<svg xmlns="http://www.w3.org/2000/svg" xmlns:xlink="http://www.w3.org/1999/xlink" width="1536" height="600" viewBox="0 0 1536 600">
  <defs>
    <clipPath id="clip-average-homeowners-insurance-cost_hero-block-image">
      <rect width="1536" height="600"/>
    </clipPath>
  </defs>
  <g id="average-homeowners-insurance-cost_hero-block-image" clip-path="url(#clip-average-homeowners-insurance-cost_hero-block-image)">
    <rect width="1536" height="600" fill="#fff"/>
    <g id="hero-car-insurance-cost-factors" transform="translate(-1797.24 -321.296)">
      <rect id="Rectangle_1930" data-name="Rectangle 1930" width="3346.767" height="1603.66" transform="translate(0 0.116)" fill="#2480fe"/>
      <path id="Path_85240" data-name="Path 85240" d="M1565.952,154.41,1344.88,694.564l22.265,6.6,198.807-448.792Z" transform="translate(1780.814 204.461)" fill="#2480fe"/>
      <path id="Path_85241" data-name="Path 85241" d="M2091.538,590.8,2047.1,692.341l-63.031,79.323a4.113,4.113,0,0,1-7.181-3.672l11.481-41.091,78.417-159.529-309.9-292.842L781,1240.259H2312.61V799.717Z" transform="translate(1034.156 363.518)" fill="#3b8dfe"/>
      <path id="Path_85242" data-name="Path 85242" d="M1381.261,401.776l-23.1-21.266-23.939,48.714L1359,452.651Z" transform="translate(1766.699 503.85)" fill="#2480fe"/>
      <path id="Path_85243" data-name="Path 85243" d="M1295.628,602.077a4.114,4.114,0,0,0,7.181,3.672l63.031-79.323L1410.3,424.884l-24.775-23.4-78.417,159.529Z" transform="translate(1715.393 531.618)" fill="#2480fe"/>
      <path id="Path_85244" data-name="Path 85244" d="M1915.646,667.752,1308.161,56.85,1080.79,207.338c284.033,166.176,462.76,493.648,691.526,669.354,54.129,41.579,101.913,75.721,143.33,103.634Z" transform="translate(1431.121 75.278)" fill="#2480fe"/>
      <path id="Path_85245" data-name="Path 85245" d="M1061.509,84.794c-43.229,42.323-10.552,132.011,45.506,178.239s138.427,54.176,174.079,14.479,142.145-165.8,142.145-165.8L1148.99,1.52Z" transform="translate(1379.237 2.013)" fill="#8fd8f2"/>
      <path id="Path_85246" data-name="Path 85246" d="M1197.973,277.525c33.793-38.674-33.7-143.423-93.593-163.875C1141.241,77.858,1218.891,1.51,1218.891,1.51l58.1,184.653Z" transform="translate(1462.358 2)" fill="#d7f2f8"/>
      <path id="Path_85247" data-name="Path 85247" d="M1050.17,40.263l5.369-5.113C1053.656,36.8,1051.867,38.5,1050.17,40.263Z" transform="translate(1390.576 46.544)" fill="#fff"/>
      <path id="Path_85248" data-name="Path 85248" d="M1953.132,555.521C1826.652,387.206,1765.178,182.356,1653.178,4.7L1650.11.05H1138.171L1052.48,81.627c54.083-47.134,182.1-34.862,299.815,151.836,171.475,271.925,250.194,637.769,600.791,810.1Z" transform="translate(1393.635 0.066)" fill="#fff"/>
      <path id="Path_85249" data-name="Path 85249" d="M1504.467,287.7l97.59-75.558,32.864,29.261L1548.3,334.9v668.424H945.255l-23.195-26.96Z" transform="translate(1220.94 280.904)" fill="#2480fe"/>
      <path id="Path_85250" data-name="Path 85250" d="M926.9,893.331l11.946,13.875h603.045V284.73Z" transform="translate(1227.349 377.024)" fill="#2480fe"/>
      <path id="Path_85251" data-name="Path 85251" d="M920.488,208.263h-.953a22.777,22.777,0,0,1-16.269-7.368L797.517,80.3A28.68,28.68,0,0,1,840.63,42.505l76.7,87.318a1.162,1.162,0,0,1-1.743,1.534h0l-76.79-87.272a26.329,26.329,0,1,0-41.235,32.751q.821,1.017,1.725,1.972h0l105.609,120.53a20.429,20.429,0,0,0,14.689,6.577,23.846,23.846,0,0,0,16.618-5.927c9.738-8.53,11.621-21.777,4.276-30.214L875.7,95.961a19.848,19.848,0,0,0-30.214,25.705l.418.465h0L880,161.014a1.162,1.162,0,0,1-1.743,1.534l-34.141-38.883a22.176,22.176,0,1,1,33.351-29.238h0l64.774,73.885c8.2,9.3,6.229,24.032-4.486,33.421A26.1,26.1,0,0,1,920.488,208.263Z" transform="translate(1047.388 44.232)" fill="#0064dc"/>
      <path id="Path_85252" data-name="Path 85252" d="M828.728,628.477a23.784,23.784,0,0,1-2.7-.163,27.24,27.24,0,0,1-16.9-8.971c-9.3-10.2-9.157-26.03.256-34.583L928.061,476.85a28.684,28.684,0,0,1,38.627,42.415h0L880.7,597.4a1.162,1.162,0,1,1-1.72-1.557l.116-.116h0l85.993-78.138A26.405,26.405,0,0,0,929.5,478.569L810.971,586.48c-8.32,7.577-8.367,22.2,0,31.306a24.937,24.937,0,0,0,15.456,8.227,18.594,18.594,0,0,0,14.781-4.508l72.7-66.122a19.848,19.848,0,0,0-26.7-29.354l-38.279,34.862a1.162,1.162,0,1,1-1.72-1.557l.116-.116h0L885.6,524.355a22.172,22.172,0,0,1,29.819,32.794h0l-72.7,66.1A20.383,20.383,0,0,1,828.728,628.477Z" transform="translate(1062.289 621.518)" fill="#0064dc"/>
      <path id="Path_85253" data-name="Path 85253" d="M1036.79,698.87a20.656,20.656,0,0,1-6.972-1.162L878.562,644.253a28.68,28.68,0,1,1,18.593-54.2h.349l109.537,38.627a1.217,1.217,0,0,1-.721,2.324h0L896.946,592.587a26.356,26.356,0,1,0-17.524,49.69h0l151.255,53.455a20.428,20.428,0,0,0,16.036-1.441A23.775,23.775,0,0,0,1058.335,681a24.938,24.938,0,0,0,0-17.5,18.429,18.429,0,0,0-10.97-10.877L954.7,619.942a19.848,19.848,0,0,0-13.2,37.419l48.807,17.2a1.162,1.162,0,0,1-.767,2.185l-48.807-17.2a22.177,22.177,0,0,1,14.735-41.835h0l92.664,32.678a20.732,20.732,0,0,1,12.155,12.155,27.241,27.241,0,0,1,0,19.128,26.1,26.1,0,0,1-12.713,14.6A24.1,24.1,0,0,1,1036.79,698.87Z" transform="translate(1136.029 778.659)" fill="#0064dc"/>
      <path id="Path_85254" data-name="Path 85254" d="M1292,379.927l1.162,2.092,208.243-196.344-1.139-2.115Z" transform="translate(1710.793 243.06)" fill="#8fd8f2"/>
      <path id="Path_85255" data-name="Path 85255" d="M1303.34,399.549l1.209,2.045,207.8-195.925-1.208-2.068Z" transform="translate(1725.809 269.596)" fill="#8fd8f2"/>
      <path id="Path_85256" data-name="Path 85256" d="M1270.48,339.523l1.093,2.161,209.289-197.39-1.069-2.185Z" transform="translate(1682.298 188.174)" fill="#8fd8f2"/>
      <path id="Path_85257" data-name="Path 85257" d="M1281,359.858l1.116,2.138,208.777-196.855-1.092-2.161Z" transform="translate(1696.228 215.809)" fill="#8fd8f2"/>
      <path id="Path_85258" data-name="Path 85258" d="M1315.32,418.707l1.278,2,207.5-195.647-1.278-2Z" transform="translate(1741.672 295.364)" fill="#8fd8f2"/>
      <path id="Path_85259" data-name="Path 85259" d="M1485.021,373.41,1406,447.922l1.929,1.371,77.092-72.676Z" transform="translate(1861.746 494.449)" fill="#8fd8f2"/>
      <path id="Path_85260" data-name="Path 85260" d="M1535.313,241.8,1328,437.261l1.371,1.906,207.314-195.461Z" transform="translate(1758.463 320.178)" fill="#8fd8f2"/>
      <path id="Path_85261" data-name="Path 85261" d="M1152.623,79.672,1237.012,0h-3.393L1150.81,78.068Z" transform="translate(1523.837 0)" fill="#8fd8f2"/>
      <path id="Path_85262" data-name="Path 85262" d="M1196.088,197.42,1405.26.1h-3.393l-207.2,195.228Z" transform="translate(1581.915 0.132)" fill="#8fd8f2"/>
      <path id="Path_85263" data-name="Path 85263" d="M1260.12,318.947l1.069,2.185,209.917-197.924L1470.06,121Z" transform="translate(1668.58 160.222)" fill="#8fd8f2"/>
      <path id="Path_85264" data-name="Path 85264" d="M1530.637,312.17l-159.087,150,1.673,1.627,157.414-148.443Z" transform="translate(1816.129 413.358)" fill="#8fd8f2"/>
      <path id="Path_85265" data-name="Path 85265" d="M1508.617,342.79,1388.18,456.348l1.813,1.488,118.531-111.861Z" transform="translate(1838.149 453.904)" fill="#8fd8f2"/>
      <path id="Path_85266" data-name="Path 85266" d="M1459.743,404.05l-34.653,32.538,2.068,1.232,32.538-30.7Z" transform="translate(1887.023 535.021)" fill="#8fd8f2"/>
      <path id="Path_85267" data-name="Path 85267" d="M1168.684,115.394,1290.934,0h-3.393L1167.08,113.581Z" transform="translate(1545.382 0)" fill="#8fd8f2"/>
      <path id="Path_85268" data-name="Path 85268" d="M1132.31,47.539l2.045,1.278L1186.021.01h-3.3Z" transform="translate(1499.341 0.013)" fill="#8fd8f2"/>
      <path id="Path_85269" data-name="Path 85269" d="M1113.127,24.729,1139.227,0h-3.393L1110.64,23.753Z" transform="translate(1470.647 0)" fill="#8fd8f2"/>
      <path id="Path_85270" data-name="Path 85270" d="M1357.6,467.3l193.625-182.562V281.55L1356,465.576Z" transform="translate(1795.538 372.813)" fill="#8fd8f2"/>
      <path id="Path_85271" data-name="Path 85271" d="M1249.84,298.3l1.069,2.185,210.428-198.412-1.046-2.208Z" transform="translate(1654.967 132.229)" fill="#8fd8f2"/>
      <path id="Path_85272" data-name="Path 85272" d="M1341.54,455l1.464,1.813,207.128-195.228-1.441-1.836Z" transform="translate(1776.391 343.947)" fill="#8fd8f2"/>
      <path id="Path_85273" data-name="Path 85273" d="M1239.5,277.624l1.093,2.161,210.8-198.761-1.069-2.185Z" transform="translate(1641.276 104.396)" fill="#8fd8f2"/>
      <path id="Path_85274" data-name="Path 85274" d="M1229,257.05l1.115,2.138,210.893-198.97-1.116-2.138Z" transform="translate(1627.372 76.906)" fill="#8fd8f2"/>
      <path id="Path_85275" data-name="Path 85275" d="M1206.72,216.465l1.209,2.069L1418.449,20.052l-1.255-2.022Z" transform="translate(1597.87 23.874)" fill="#8fd8f2"/>
      <path id="Path_85276" data-name="Path 85276" d="M1218.08,236.611l1.162,2.115L1430.158,39.872,1429,37.78Z" transform="translate(1612.913 50.026)" fill="#8fd8f2"/>
      <path id="Path_85277" data-name="Path 85277" d="M1181.62,153.022l1.418,1.859L1347.169,0h-3.393Z" transform="translate(1564.634 0)" fill="#8fd8f2"/>
      <path id="Path_85278" data-name="Path 85278" d="M1385.214,87.42l-77.324,76.348,69.051,123.017,74.094-60.358Z" transform="translate(1731.834 115.757)" fill="#fff"/>
      <path id="Path_85279" data-name="Path 85279" d="M1316.36,446.722,1552.818,234.69l18.082,23.149L1358.636,478.167Z" transform="translate(1743.049 310.764)" fill="#fff"/>
      <path id="Path_85280" data-name="Path 85280" d="M1258.57,32.681l48.97,84.39L1373.2,50.879l-31-50.829h-48.342Z" transform="translate(1666.527 0.066)" fill="#fff"/>
      <path id="Path_85281" data-name="Path 85281" d="M1365.023,628.5l170.662-385.25q-12.039-17.757-23.242-35.931L1347.43,610.536Q1355.889,619.623,1365.023,628.5Z" transform="translate(1784.191 274.522)" fill="#d7f2f8"/>
      <path id="Path_85282" data-name="Path 85282" d="M1279.64,295.731l48.435-49.481,71.375,139.286-54.153,37.21Z" transform="translate(1694.427 326.071)" fill="#fff"/>
      <path id="Path_85283" data-name="Path 85283" d="M1361.85,397.214,1399.8,362.05l104.238,95.615-39.65,37.093-102.518-89.8" transform="translate(1803.285 479.407)" fill="#fff"/>
      <path id="Path_85284" data-name="Path 85284" d="M1474.6,65.23l22.5,36.675-241.967,230.95-26.355-46.111Z" transform="translate(1627.081 86.374)" fill="#fff"/>
      <path id="Path_85285" data-name="Path 85285" d="M1637.078,121.58l-327.7,748.026L1291.2,969.1a3.068,3.068,0,0,0,5.462,2.324l60.823-80.811,279.594-638.21Z" transform="translate(1709.689 160.99)" fill="#0a3360"/>
      <path id="Path_85286" data-name="Path 85286" d="M1473.05,118.05,1415.04,250.433l55.222,24.194,2.789-6.368Z" transform="translate(1873.716 156.315)" fill="#0f5198"/>
      <path id="Path_85287" data-name="Path 85287" d="M1441.285,118.05l-2.254,5.16,2.254-2.371Z" transform="translate(1905.482 156.315)" fill="#0f5198"/>
      <path id="Path_85288" data-name="Path 85288" d="M1420.622,276.529l67.841-153.858V89.11L1403.4,283.246h0A13.085,13.085,0,0,0,1420.622,276.529Z" transform="translate(1858.303 117.995)" fill="#0f5198"/>
      <rect id="Rectangle_1931" data-name="Rectangle 1931" width="2.324" height="52.502" transform="translate(3018.49 1031.62) rotate(-66.34)" fill="#0f5198"/>
      <rect id="Rectangle_1932" data-name="Rectangle 1932" width="2.324" height="18.384" transform="translate(3005.281 1104.507) rotate(-65.06)" fill="#0f5198"/>
      <path id="Path_85289" data-name="Path 85289" d="M940.51,906.866h564.069l32.91-32.933V264.96H907.6V873.932Z" transform="translate(1201.793 350.845)" fill="#004085"/>
      <path id="Path_85290" data-name="Path 85290" d="M919.974,368.744,898.29,167.38h673.165l-21.684,201.364Z" transform="translate(1189.465 221.635)" fill="none"/>
      <path id="Path_85291" data-name="Path 85291" d="M1534.437,167.38H931.624L899.69,197.594l18.43,171.15h629.8l18.431-171.15-31.911-30.214" transform="translate(1191.319 221.635)" fill="#2e63ac"/>
      <path id="Path_85292" data-name="Path 85292" d="M899.69,180.38v25.566l11.714-9.227Z" transform="translate(1191.319 238.849)" fill="#2e63ac"/>
      <path id="Path_85293" data-name="Path 85293" d="M1193.19,180.38v25.566l-11.69-9.227Z" transform="translate(1564.475 238.849)" fill="#2e63ac"/>
      <path id="Path_85294" data-name="Path 85294" d="M919.974,379.757,898.29,178.37h673.165l-21.684,201.387Z" transform="translate(1189.465 236.188)" fill="none"/>
      <path id="Path_85295" data-name="Path 85295" d="M980.919,342.292,970.3,217.369h525.466l-10.621,124.9H980.8m553.518-163.9h-602.7L899.69,208.584l18.43,171.243h629.843l18.431-171.15-31.911-30.214" transform="translate(1191.319 236.188)" fill="#0a3360"/>
      <path id="Path_85296" data-name="Path 85296" d="M963.747,305.587a1.373,1.373,0,0,1-.442,0,1.306,1.306,0,0,1-.372-.209,1.094,1.094,0,0,1-.255-.3.836.836,0,0,1,0-.372.788.788,0,0,1,0-.372.865.865,0,0,1,.232-.3,1.074,1.074,0,0,1,.349-.209,1.256,1.256,0,0,1,.442,0h52.5a1.391,1.391,0,0,1,.465,0,1.275,1.275,0,0,1,.372.209,1.047,1.047,0,0,1,.255.3.851.851,0,0,1,0,.372.742.742,0,0,1,0,.372.885.885,0,0,1-.232.3,1.112,1.112,0,0,1-.348.209,1.326,1.326,0,0,1-.442,0h-52.5m330.029,0a1.348,1.348,0,0,1-.442,0,1.165,1.165,0,0,1-.372-.209.908.908,0,0,1-.232-.3.769.769,0,0,1,0-.372.824.824,0,0,1,0-.372,1.029,1.029,0,0,1,.255-.3,1.236,1.236,0,0,1,.371-.209,1.4,1.4,0,0,1,.442,0H1346.3a1.345,1.345,0,0,1,.441,0,1.109,1.109,0,0,1,.349.209.888.888,0,0,1,.232.3.788.788,0,0,1,0,.372.814.814,0,0,1,0,.372,1.047,1.047,0,0,1-.255.3,1.284,1.284,0,0,1-.372.209,1.421,1.421,0,0,1-.465,0h-52.456m75.628,0a1.282,1.282,0,0,1-.442,0,1.1,1.1,0,0,1-.349-.209.887.887,0,0,1-.232-.3.779.779,0,0,1,0-.372.866.866,0,0,1,0-.372,1.054,1.054,0,0,1,.255-.3,1.275,1.275,0,0,1,.372-.209,1.346,1.346,0,0,1,.441,0h52.5a1.254,1.254,0,0,1,.442,0,1.075,1.075,0,0,1,.349.209.86.86,0,0,1,.232.3.791.791,0,0,1,0,.372.834.834,0,0,1-.116.372,1.083,1.083,0,0,1-.255.3,1.288,1.288,0,0,1-.372.209,1.372,1.372,0,0,1-.441,0H1369.31m-349.877-3.021a1.4,1.4,0,0,1-.465,0,1.278,1.278,0,0,1-.372-.209,1.044,1.044,0,0,1-.255-.3.861.861,0,0,1,0-.372l-2.324-38.232a.818.818,0,0,1,0-.372.908.908,0,0,1,.232-.3,1.114,1.114,0,0,1,.372-.209,1.322,1.322,0,0,1,.441,0,1.419,1.419,0,0,1,.465,0,1.3,1.3,0,0,1,.372.209,1.075,1.075,0,0,1,.279.3.884.884,0,0,1,0,.372l2.37,38.3a.791.791,0,0,1,0,.372.884.884,0,0,1-.232.3,1.111,1.111,0,0,1-.348.209,1.323,1.323,0,0,1-.442,0m16.269,0a1.4,1.4,0,0,1-.465,0,1.28,1.28,0,0,1-.372-.209,1.046,1.046,0,0,1-.255-.3.838.838,0,0,1,0-.372l-2.022-38.232a.821.821,0,0,1,0-.372.929.929,0,0,1,.232-.3,1.119,1.119,0,0,1,.372-.209,1.323,1.323,0,0,1,.464,0,1.4,1.4,0,0,1,.465,0,1.275,1.275,0,0,1,.372.209,1.073,1.073,0,0,1,.255.3.882.882,0,0,1,0,.372l1.975,38.232a.79.79,0,0,1,0,.372.9.9,0,0,1-.232.3,1.116,1.116,0,0,1-.349.209,1.325,1.325,0,0,1-.441,0m59.335,0a1.393,1.393,0,0,1-.465,0,1.232,1.232,0,0,1-.372-.209,1.02,1.02,0,0,1-.256-.3.842.842,0,0,1,0-.372l-1.255-38.232a.842.842,0,0,1,0-.372.946.946,0,0,1,.233-.3,1.161,1.161,0,0,1,.371-.209,1.35,1.35,0,0,1,.465,0,1.328,1.328,0,0,1,.441,0,1.241,1.241,0,0,1,.372.209,1.048,1.048,0,0,1,.256.3.854.854,0,0,1,0,.372l1.232,38.232a.825.825,0,0,1,0,.372.931.931,0,0,1-.232.3,1.145,1.145,0,0,1-.349.209,1.28,1.28,0,0,1-.442,0m96.708,0a1.371,1.371,0,0,1-.442,0,1.184,1.184,0,0,1-.372-.209.971.971,0,0,1-.256-.3.814.814,0,0,1,0-.372V263.357a.838.838,0,0,1,0-.372.975.975,0,0,1,.255-.3,1.212,1.212,0,0,1,.372-.209,1.37,1.37,0,0,1,.465,0,1.3,1.3,0,0,1,.442,0,1.186,1.186,0,0,1,.372.209.993.993,0,0,1,.255.3.833.833,0,0,1,0,.372v38.232a.822.822,0,0,1,0,.372.975.975,0,0,1-.232.3,1.187,1.187,0,0,1-.372.209,1.3,1.3,0,0,1-.441,0m22.8,0a1.3,1.3,0,0,1-.441,0,1.161,1.161,0,0,1-.372-.209.958.958,0,0,1-.232-.3.812.812,0,0,1,0-.372l.255-38.232a.866.866,0,0,1,0-.372,1,1,0,0,1,.255-.3,1.205,1.205,0,0,1,.372-.209,1.3,1.3,0,0,1,.441,0,1.372,1.372,0,0,1,.465,0,1.18,1.18,0,0,1,.372.209.973.973,0,0,1,.256.3.843.843,0,0,1,0,.372l-.3,38.232a.817.817,0,0,1,0,.372.974.974,0,0,1-.256.3,1.2,1.2,0,0,1-.372.209,1.376,1.376,0,0,1-.441,0m59.335,0a1.34,1.34,0,0,1-.441,0,1.159,1.159,0,0,1-.372-.209.924.924,0,0,1-.233-.3.811.811,0,0,1,0-.372L1274,263.357a.86.86,0,0,1,0-.372,1.025,1.025,0,0,1,.256-.3,1.252,1.252,0,0,1,.372-.209,1.4,1.4,0,0,1,.465,0,1.346,1.346,0,0,1,.464,0,1.161,1.161,0,0,1,.372.209.951.951,0,0,1,.233.3.848.848,0,0,1,0,.372l-1.046,38.232a.828.828,0,0,1,0,.372,1,1,0,0,1-.255.3,1.235,1.235,0,0,1-.372.209,1.388,1.388,0,0,1-.441,0m16.409,0a1.324,1.324,0,0,1-.441,0,1.091,1.091,0,0,1-.349-.209.906.906,0,0,1-.232-.3.817.817,0,0,1,0-.372l1.231-38.232a.88.88,0,0,1,0-.372,1.017,1.017,0,0,1,.256-.3,1.211,1.211,0,0,1,.372-.209,1.371,1.371,0,0,1,.464,0,1.351,1.351,0,0,1,.466,0,1.157,1.157,0,0,1,.371.209.954.954,0,0,1,.233.3.837.837,0,0,1,0,.372l-1.278,38.232a.831.831,0,0,1,0,.372,1.028,1.028,0,0,1-.256.3,1.229,1.229,0,0,1-.372.209,1.388,1.388,0,0,1-.441,0m59.336,0a1.325,1.325,0,0,1-.441,0,1.116,1.116,0,0,1-.348-.209.908.908,0,0,1-.233-.3.788.788,0,0,1,0-.372l2-38.232a.88.88,0,0,1,0-.372,1.062,1.062,0,0,1,.255-.3,1.278,1.278,0,0,1,.4-.209,1.419,1.419,0,0,1,.465,0,1.278,1.278,0,0,1,.441,0,1.115,1.115,0,0,1,.349.209.927.927,0,0,1,.232.3.814.814,0,0,1,0,.372l-2.021,38.232a.86.86,0,0,1,0,.372,1.05,1.05,0,0,1-.256.3,1.246,1.246,0,0,1-.371.209,1.345,1.345,0,0,1-.442,0m75.72,0a1.251,1.251,0,0,1-.441,0,1.073,1.073,0,0,1-.349-.209.86.86,0,0,1-.232-.3.784.784,0,0,1,0-.372l2.975-38.232a.9.9,0,0,1,.116-.372,1.124,1.124,0,0,1,.279-.3,1.322,1.322,0,0,1,.372-.209,1.37,1.37,0,0,1,.441,0,1.324,1.324,0,0,1,.441,0,1.1,1.1,0,0,1,.349.209.882.882,0,0,1,.232.3.809.809,0,0,1,0,.372l-3,38.232a.862.862,0,0,1-.116.372,1.1,1.1,0,0,1-.279.3,1.333,1.333,0,0,1-.4.209,1.417,1.417,0,0,1-.465,0m-286.381,0h-.581l-.256-.163a.993.993,0,0,1-.186-.233l-23.915-38.232a.81.81,0,0,1-.139-.372.788.788,0,0,1,0-.372.925.925,0,0,1,.21-.325,1.152,1.152,0,0,1,.348-.232h1.139l.256.163.209.232,23.892,38.255a.865.865,0,0,1,0,.372.807.807,0,0,1,0,.372.9.9,0,0,1-.209.325,1.1,1.1,0,0,1-.348.232h-.442m4.323,0h-.511a1.159,1.159,0,0,1-.349-.232.947.947,0,0,1-.209-.325.835.835,0,0,1,0-.372.835.835,0,0,1,0-.372l22.567-38.255a.971.971,0,0,1,.186-.232l.256-.163h1.162a1.188,1.188,0,0,1,.372.233.988.988,0,0,1,.209.325.836.836,0,0,1,0,.744l-22.59,38.232a.955.955,0,0,1-.186.232l-.232.163h-.581m126.038,0h-.581l-.233-.163a.957.957,0,0,1-.186-.233l-22.242-38.232a.787.787,0,0,1,0-.744.964.964,0,0,1,.232-.325,1.215,1.215,0,0,1,.372-.232h1.116l.233.163a.934.934,0,0,1,.186.232l22.219,38.255a.837.837,0,0,1,0,.372.814.814,0,0,1,0,.372.954.954,0,0,1-.209.325,1.184,1.184,0,0,1-.372.233h-.535M960.424,261.079a.857.857,0,0,1-.814-.209,1.122,1.122,0,0,1-.279-.3.907.907,0,0,1,0-.372.819.819,0,0,1,0-.372.909.909,0,0,1,.232-.3,1.069,1.069,0,0,1,.349-.209,1.257,1.257,0,0,1,.442,0h53.223a1.42,1.42,0,0,1,.465,0,1.3,1.3,0,0,1,.4.209,1.073,1.073,0,0,1,.279.3.882.882,0,0,1,0,.372.81.81,0,0,1,0,.372.913.913,0,0,1-.233.3,1.11,1.11,0,0,1-.371.209,1.325,1.325,0,0,1-.442,0H960.214m76.7,0a1.392,1.392,0,0,1-.465,0,1.286,1.286,0,0,1-.372-.209,1.069,1.069,0,0,1-.256-.3.88.88,0,0,1,0-.372.819.819,0,0,1,0-.372.933.933,0,0,1,.232-.3,1.123,1.123,0,0,1,.372-.209,1.325,1.325,0,0,1,.464,0h53.385a1.4,1.4,0,0,1,.465,0,1.26,1.26,0,0,1,.372.209,1.045,1.045,0,0,1,.255.3.867.867,0,0,1,0,.372.837.837,0,0,1,0,.372.946.946,0,0,1-.232.3,1.16,1.16,0,0,1-.372.209,1.348,1.348,0,0,1-.465,0H1037.12m284.731,0a1.344,1.344,0,0,1-.442,0,1.135,1.135,0,0,1-.372-.209.935.935,0,0,1-.233-.3.818.818,0,0,1,0-.372.86.86,0,0,1,0-.372,1.051,1.051,0,0,1,.255-.3,1.273,1.273,0,0,1,.372-.209,1.4,1.4,0,0,1,.465,0h26.635a1.352,1.352,0,0,1,.442,0,1.143,1.143,0,0,1,.372.209.935.935,0,0,1,.232.3.811.811,0,0,1,0,.372.876.876,0,0,1,0,.372,1.062,1.062,0,0,1-.255.3,1.273,1.273,0,0,1-.4.209,1.394,1.394,0,0,1-.465,0h-26.611m50.155,0a1.277,1.277,0,0,1-.441,0,1.091,1.091,0,0,1-.349-.209.909.909,0,0,1-.232-.3.826.826,0,0,1,0-.372.89.89,0,0,1,0-.372,1.1,1.1,0,0,1,.256-.3,1.293,1.293,0,0,1,.372-.209,1.352,1.352,0,0,1,.442,0h53.293a1.258,1.258,0,0,1,.442,0,1.072,1.072,0,0,1,.349.209.886.886,0,0,1,.233.3.816.816,0,0,1,0,.372.911.911,0,0,1-.116.372,1.114,1.114,0,0,1-.279.3,1.311,1.311,0,0,1-.372.209,1.347,1.347,0,0,1-.442,0h-53.27m-415.255-3.114a1.416,1.416,0,0,1-.465,0,1.328,1.328,0,0,1-.4-.209,1.111,1.111,0,0,1-.279-.3.914.914,0,0,1,0-.372l-3.091-39.51a.84.84,0,0,1,0-.4.882.882,0,0,1,.232-.325,1.09,1.09,0,0,1,.372-.209,1.371,1.371,0,0,1,.465,0,1.4,1.4,0,0,1,.465,0,1.326,1.326,0,0,1,.4.209,1.109,1.109,0,0,1,.279.325.924.924,0,0,1,0,.4l3.068,39.51a.814.814,0,0,1,0,.372.907.907,0,0,1-.232.3,1.068,1.068,0,0,1-.348.209,1.255,1.255,0,0,1-.442,0m76.836,0a1.37,1.37,0,0,1-.465,0,1.23,1.23,0,0,1-.372-.209,1.049,1.049,0,0,1-.256-.3.922.922,0,0,1,0-.372l-2.092-39.51a.864.864,0,0,1,0-.4.906.906,0,0,1,.232-.325,1.092,1.092,0,0,1,.372-.209,1.346,1.346,0,0,1,.465,0,1.443,1.443,0,0,1,.465,0,1.3,1.3,0,0,1,.4.209,1.075,1.075,0,0,1,.279.325.914.914,0,0,1,0,.4l2.068,39.51a.811.811,0,0,1,0,.372.928.928,0,0,1-.232.3,1.116,1.116,0,0,1-.372.209,1.324,1.324,0,0,1-.465,0m60.219,0a1.4,1.4,0,0,1-.465,0,1.256,1.256,0,0,1-.372-.209,1.035,1.035,0,0,1-.255-.3.85.85,0,0,1,0-.372l-1.3-39.51a.861.861,0,0,1,0-.4.949.949,0,0,1,.233-.325,1.158,1.158,0,0,1,.372-.209,1.39,1.39,0,0,1,.465,0,1.371,1.371,0,0,1,.465,0,1.257,1.257,0,0,1,.372.209,1.046,1.046,0,0,1,.256.325.885.885,0,0,1,0,.4l1.278,39.51a.839.839,0,0,1,0,.372.962.962,0,0,1-.232.3,1.139,1.139,0,0,1-.372.209,1.274,1.274,0,0,1-.441,0m16.641,0a1.393,1.393,0,0,1-.465,0,1.256,1.256,0,0,1-.372-.209,1.04,1.04,0,0,1-.256-.3.85.85,0,0,1,0-.372l-1.092-39.51a.861.861,0,0,1,0-.4.953.953,0,0,1,.256-.325,1.16,1.16,0,0,1,.371-.209,1.4,1.4,0,0,1,.465,0,1.371,1.371,0,0,1,.465,0,1.229,1.229,0,0,1,.371.209,1.035,1.035,0,0,1,.256.325.889.889,0,0,1,0,.4l1.069,39.51a.839.839,0,0,1,0,.372.952.952,0,0,1-.233.3,1.16,1.16,0,0,1-.371.209,1.3,1.3,0,0,1-.442,0m60.2,0a1.325,1.325,0,0,1-.441,0,1.209,1.209,0,0,1-.372-.209,1,1,0,0,1-.255-.3.855.855,0,0,1,0-.372l-.3-39.51a.861.861,0,0,1,0-.4.974.974,0,0,1,.256-.325,1.184,1.184,0,0,1,.372-.209,1.349,1.349,0,0,1,.442,0,1.418,1.418,0,0,1,.465,0,1.231,1.231,0,0,1,.371.209,1,1,0,0,1,.256.325.856.856,0,0,1,0,.4l.279,39.51a.837.837,0,0,1,0,.372.981.981,0,0,1-.255.3,1.2,1.2,0,0,1-.372.209,1.372,1.372,0,0,1-.465,0m21.313,0a1.371,1.371,0,0,1-.465,0,1.216,1.216,0,0,1-.372-.209,1,1,0,0,1-.255-.3.859.859,0,0,1,0-.372v-39.51a.871.871,0,0,1,0-.4.979.979,0,0,1,.256-.325,1.215,1.215,0,0,1,.372-.209,1.416,1.416,0,0,1,.464,0,1.346,1.346,0,0,1,.441,0,1.205,1.205,0,0,1,.372.209,1,1,0,0,1,.255.325.853.853,0,0,1,0,.4v39.51a.861.861,0,0,1,0,.372,1.008,1.008,0,0,1-.256.3,1.185,1.185,0,0,1-.372.209,1.3,1.3,0,0,1-.441,0m23.241,0a1.37,1.37,0,0,1-.465,0,1.2,1.2,0,0,1-.372-.209.97.97,0,0,1-.256-.3.832.832,0,0,1,0-.372l.279-39.51a.861.861,0,0,1,0-.4,1,1,0,0,1,.255-.325,1.225,1.225,0,0,1,.372-.209,1.418,1.418,0,0,1,.465,0,1.347,1.347,0,0,1,.441,0,1.183,1.183,0,0,1,.372.209.975.975,0,0,1,.256.325.858.858,0,0,1,0,.4l-.3,39.51a.861.861,0,0,1,0,.372,1.035,1.035,0,0,1-.256.3,1.217,1.217,0,0,1-.372.209,1.324,1.324,0,0,1-.441,0m60.195,0a1.322,1.322,0,0,1-.441,0,1.114,1.114,0,0,1-.372-.209.924.924,0,0,1-.232-.3.864.864,0,0,1,0-.372l1.069-39.51a.906.906,0,0,1,0-.4,1.023,1.023,0,0,1,.255-.326,1.217,1.217,0,0,1,.372-.209,1.442,1.442,0,0,1,.93,0,1.165,1.165,0,0,1,.372.209.95.95,0,0,1,.255.325.847.847,0,0,1,0,.4l-1.092,39.51a.861.861,0,0,1,0,.372,1.023,1.023,0,0,1-.255.3,1.254,1.254,0,0,1-.372.209,1.393,1.393,0,0,1-.464,0m16.641,0a1.324,1.324,0,0,1-.441,0,1.106,1.106,0,0,1-.349-.209.932.932,0,0,1-.232-.3.867.867,0,0,1,0-.372l1.278-39.51a.917.917,0,0,1,0-.4,1.02,1.02,0,0,1,.256-.326,1.209,1.209,0,0,1,.372-.209,1.442,1.442,0,0,1,.93,0,1.166,1.166,0,0,1,.372.209.957.957,0,0,1,.232.326.83.83,0,0,1,0,.4l-1.3,39.51a.861.861,0,0,1,0,.372,1.051,1.051,0,0,1-.255.3,1.257,1.257,0,0,1-.372.209,1.388,1.388,0,0,1-.465,0m76.859,0a1.325,1.325,0,0,1-.441,0,1.116,1.116,0,0,1-.372-.209.911.911,0,0,1-.232-.3.818.818,0,0,1,0-.372l2.324-39.51a.9.9,0,0,1,.116-.4,1.071,1.071,0,0,1,.278-.325,1.314,1.314,0,0,1,.4-.209,1.466,1.466,0,0,1,.465,0,1.3,1.3,0,0,1,.441,0,1.113,1.113,0,0,1,.372.209.9.9,0,0,1,.233.325.834.834,0,0,1,0,.4l-2.324,39.51a.9.9,0,0,1,0,.372,1.1,1.1,0,0,1-.255.3,1.275,1.275,0,0,1-.372.209,1.346,1.346,0,0,1-.442,0m-125.806,0h-.627l-.256-.163a.981.981,0,0,1-.186-.232l-22.916-39.51a.859.859,0,0,1,0-.767,1,1,0,0,1,.232-.349,1.212,1.212,0,0,1,.372-.256h1.138l.256.163a.928.928,0,0,1,.186.232l22.892,39.511a1.257,1.257,0,0,1,.117.744.987.987,0,0,1-.209.325,1.163,1.163,0,0,1-.372.232h-.534M956.752,214.55a1.392,1.392,0,0,1-.465,0,1.328,1.328,0,0,1-.4-.209,1.119,1.119,0,0,1-.279-.325.933.933,0,0,1-.139-.465.863.863,0,0,1,0-.4.927.927,0,0,1,.232-.325,1.091,1.091,0,0,1,.348-.209,1.255,1.255,0,0,1,.442,0H1010.6a1.414,1.414,0,0,1,.465,0,1.3,1.3,0,0,1,.4.209,1.117,1.117,0,0,1,.279.325.931.931,0,0,1,0,.4.834.834,0,0,1,0,.4.906.906,0,0,1-.232.325,1.143,1.143,0,0,1-.372.209,1.372,1.372,0,0,1-.465,0h-53.92m77.975,0a1.44,1.44,0,0,1-.465,0,1.305,1.305,0,0,1-.4-.209,1.065,1.065,0,0,1-.279-.325.9.9,0,0,1,0-.4.857.857,0,0,1,0-.4.961.961,0,0,1,.233-.325,1.138,1.138,0,0,1,.372-.209,1.32,1.32,0,0,1,.465,0h54.106a1.4,1.4,0,0,1,.465,0,1.275,1.275,0,0,1,.395.209,1.056,1.056,0,0,1,.256.325.9.9,0,0,1,0,.4.861.861,0,0,1,0,.4.958.958,0,0,1-.232.325,1.166,1.166,0,0,1-.372.209,1.392,1.392,0,0,1-.465,0h-54.084m262.094,0a1.393,1.393,0,0,1-.465,0,1.166,1.166,0,0,1-.372-.209.96.96,0,0,1-.232-.325.861.861,0,0,1,0-.4.91.91,0,0,1,0-.4,1.068,1.068,0,0,1,.256-.325,1.279,1.279,0,0,1,.4-.209,1.4,1.4,0,0,1,.465,0h54.106a1.349,1.349,0,0,1,.465,0,1.143,1.143,0,0,1,.372.209.953.953,0,0,1,.232.325.866.866,0,0,1,0,.4.906.906,0,0,1,0,.4,1.056,1.056,0,0,1-.279.325,1.3,1.3,0,0,1-.4.209,1.439,1.439,0,0,1-.464,0h-54.06m77.952,0a1.3,1.3,0,0,1-.441,0,1.115,1.115,0,0,1-.349-.209.9.9,0,0,1-.233-.325.844.844,0,0,1,0-.4.93.93,0,0,1,.116-.4,1.113,1.113,0,0,1,.279-.325,1.3,1.3,0,0,1,.395-.209,1.35,1.35,0,0,1,.465,0h54.129a1.255,1.255,0,0,1,.442,0,1.092,1.092,0,0,1,.349.209.937.937,0,0,1,.232.325.858.858,0,0,1,0,.4.933.933,0,0,1-.116.4,1.111,1.111,0,0,1-.279.325,1.327,1.327,0,0,1-.4.209,1.394,1.394,0,0,1-.465,0h-54.176m80.787-19.36H930.07l10.621,124.9h504.2l10.621-124.9" transform="translate(1231.546 258.367)" fill="#74cde8"/>
      <path id="Path_85297" data-name="Path 85297" d="M940.733,204.361a1.367,1.367,0,0,0-.465,0,1.092,1.092,0,0,0-.372.209.877.877,0,0,0-.232.325.831.831,0,0,0,0,.4l3.091,39.51a.918.918,0,0,0,0,.372,1.108,1.108,0,0,0,.279.3,1.322,1.322,0,0,0,.395.209,1.418,1.418,0,0,0,.465,0,1.257,1.257,0,0,0,.442,0,1.071,1.071,0,0,0,.349-.209.908.908,0,0,0,.233-.3.814.814,0,0,0,0-.372l-3.068-39.51a.923.923,0,0,0,0-.4,1.117,1.117,0,0,0-.279-.325,1.327,1.327,0,0,0-.4-.209,1.392,1.392,0,0,0-.464,0" transform="translate(1244.218 270.578)" fill="#042647"/>
      <path id="Path_85298" data-name="Path 85298" d="M968.138,224.061a1.324,1.324,0,0,0-.442,0,1.116,1.116,0,0,0-.372.209.905.905,0,0,0-.232.3.814.814,0,0,0,0,.372l2.324,38.232a.857.857,0,0,0,0,.372,1.048,1.048,0,0,0,.256.3,1.281,1.281,0,0,0,.372.209,1.4,1.4,0,0,0,.465,0,1.321,1.321,0,0,0,.442,0,1.114,1.114,0,0,0,.349-.209.883.883,0,0,0,.232-.3.785.785,0,0,0,0-.372l-2.324-38.232a.88.88,0,0,0,0-.372,1.064,1.064,0,0,0-.279-.3,1.3,1.3,0,0,0-.372-.209,1.414,1.414,0,0,0-.465,0" transform="translate(1280.54 296.664)" fill="#042647"/>
      <path id="Path_85299" data-name="Path 85299" d="M997.575,241.841H945.1a1.256,1.256,0,0,0-.441,0,1.07,1.07,0,0,0-.349.209.859.859,0,0,0-.232.3.794.794,0,0,0,0,.372.84.84,0,0,0,0,.372,1.09,1.09,0,0,0,.256.3,1.308,1.308,0,0,0,.372.209,1.372,1.372,0,0,0,.441,0H997.6a1.327,1.327,0,0,0,.442,0,1.117,1.117,0,0,0,.349-.209.884.884,0,0,0,.232-.3.748.748,0,0,0,0-.372.86.86,0,0,0,0-.372,1.048,1.048,0,0,0-.256-.3,1.282,1.282,0,0,0-.372-.209,1.4,1.4,0,0,0-.465,0" transform="translate(1250.058 320.207)" fill="#042647"/>
      <path id="Path_85300" data-name="Path 85300" d="M997.05,222.691H943.595a1.256,1.256,0,0,0-.442,0,1.065,1.065,0,0,0-.349.209.906.906,0,0,0-.232.3.816.816,0,0,0,0,.372.905.905,0,0,0,0,.372,1.111,1.111,0,0,0,.279.3,1.32,1.32,0,0,0,.372.209,1.348,1.348,0,0,0,.442,0H997.05a1.324,1.324,0,0,0,.442,0,1.117,1.117,0,0,0,.372-.209.9.9,0,0,0,.232-.3.807.807,0,0,0,0-.372.891.891,0,0,0,0-.372,1.068,1.068,0,0,0-.278-.3,1.3,1.3,0,0,0-.4-.209,1.417,1.417,0,0,0-.465,0" transform="translate(1248.072 294.849)" fill="#042647"/>
      <path id="Path_85301" data-name="Path 85301" d="M996.182,202.631H942.076a1.253,1.253,0,0,0-.441,0,1.088,1.088,0,0,0-.349.209.927.927,0,0,0-.232.325.858.858,0,0,0,0,.4.925.925,0,0,0,0,.4,1.116,1.116,0,0,0,.279.325,1.32,1.32,0,0,0,.395.209,1.392,1.392,0,0,0,.465,0h54.06a1.369,1.369,0,0,0,.465,0,1.137,1.137,0,0,0,.372-.209.908.908,0,0,0,.232-.325.83.83,0,0,0,0-.4.929.929,0,0,0,0-.4,1.111,1.111,0,0,0-.279-.325,1.3,1.3,0,0,0-.4-.209,1.416,1.416,0,0,0-.465,0" transform="translate(1246.059 268.287)" fill="#042647"/>
      <path id="Path_85302" data-name="Path 85302" d="M974.252,204.362a1.347,1.347,0,0,0-.465,0,1.1,1.1,0,0,0-.372.209.907.907,0,0,0-.233.325.855.855,0,0,0,0,.4l2.091,39.51a.913.913,0,0,0,0,.372,1.049,1.049,0,0,0,.256.3,1.23,1.23,0,0,0,.371.209,1.371,1.371,0,0,0,.465,0,1.327,1.327,0,0,0,.465,0,1.114,1.114,0,0,0,.372-.209.929.929,0,0,0,.232-.3.81.81,0,0,0,0-.372l-2.068-39.511a.9.9,0,0,0,0-.4,1.071,1.071,0,0,0-.279-.325,1.3,1.3,0,0,0-.4-.209,1.442,1.442,0,0,0-.465,0" transform="translate(1288.604 270.578)" fill="#042647"/>
      <path id="Path_85303" data-name="Path 85303" d="M975.3,224.062a1.324,1.324,0,0,0-.465,0,1.122,1.122,0,0,0-.372.209.935.935,0,0,0-.232.3.816.816,0,0,0,0,.372l2.022,38.232a.835.835,0,0,0,0,.372,1.049,1.049,0,0,0,.256.3,1.273,1.273,0,0,0,.371.209,1.4,1.4,0,0,0,.465,0,1.323,1.323,0,0,0,.441,0,1.111,1.111,0,0,0,.349-.209.9.9,0,0,0,.232-.3.791.791,0,0,0,0-.372l-2-38.232a.882.882,0,0,0,0-.372,1.072,1.072,0,0,0-.256-.3,1.273,1.273,0,0,0-.371-.209,1.394,1.394,0,0,0-.465,0" transform="translate(1289.995 296.663)" fill="#042647"/>
      <path id="Path_85304" data-name="Path 85304" d="M1000.512,204.361a1.394,1.394,0,0,0-.465,0,1.162,1.162,0,0,0-.372.209.951.951,0,0,0-.232.325.866.866,0,0,0,0,.4l1.3,39.51a.857.857,0,0,0,0,.372,1.047,1.047,0,0,0,.256.3,1.254,1.254,0,0,0,.372.209,1.394,1.394,0,0,0,.465,0,1.278,1.278,0,0,0,.441,0,1.14,1.14,0,0,0,.372-.209.947.947,0,0,0,.232-.3.835.835,0,0,0,0-.372l-1.278-39.51a.879.879,0,0,0,0-.4,1.042,1.042,0,0,0-.256-.325,1.252,1.252,0,0,0-.371-.209,1.367,1.367,0,0,0-.465,0" transform="translate(1323.376 270.578)" fill="#042647"/>
      <path id="Path_85305" data-name="Path 85305" d="M1001.171,224.062a1.346,1.346,0,0,0-.465,0,1.161,1.161,0,0,0-.372.209.95.95,0,0,0-.232.3.839.839,0,0,0,0,.372l1.255,38.232a.848.848,0,0,0,0,.372,1.024,1.024,0,0,0,.256.3,1.228,1.228,0,0,0,.372.209,1.392,1.392,0,0,0,.465,0,1.276,1.276,0,0,0,.442,0,1.135,1.135,0,0,0,.349-.209.925.925,0,0,0,.232-.3.812.812,0,0,0,0-.372l-1.232-38.232a.862.862,0,0,0,0-.372,1.047,1.047,0,0,0-.256-.3,1.232,1.232,0,0,0-.372-.209,1.327,1.327,0,0,0-.442,0" transform="translate(1324.251 296.663)" fill="#042647"/>
      <path id="Path_85306" data-name="Path 85306" d="M1029.971,222.692H976.7a1.326,1.326,0,0,0-.465,0,1.117,1.117,0,0,0-.372.209.929.929,0,0,0-.232.3.814.814,0,0,0,0,.372.882.882,0,0,0,0,.372,1.073,1.073,0,0,0,.256.3,1.282,1.282,0,0,0,.372.209,1.4,1.4,0,0,0,.465,0h53.246a1.349,1.349,0,0,0,.465,0,1.159,1.159,0,0,0,.371-.209.949.949,0,0,0,.233-.3.841.841,0,0,0,0-.372.862.862,0,0,0,0-.372,1.051,1.051,0,0,0-.256-.3,1.254,1.254,0,0,0-.372-.209,1.4,1.4,0,0,0-.465,0" transform="translate(1291.849 294.849)" fill="#042647"/>
      <path id="Path_85307" data-name="Path 85307" d="M1029.844,202.632H975.622a1.323,1.323,0,0,0-.465,0,1.138,1.138,0,0,0-.371.209.953.953,0,0,0-.233.325.861.861,0,0,0,0,.4.9.9,0,0,0,0,.4,1.067,1.067,0,0,0,.279.325,1.3,1.3,0,0,0,.4.209,1.439,1.439,0,0,0,.465,0h54.06a1.394,1.394,0,0,0,.465,0,1.162,1.162,0,0,0,.372-.209.95.95,0,0,0,.232-.325.858.858,0,0,0,0-.4.916.916,0,0,0,0-.4,1.067,1.067,0,0,0-.255-.326,1.282,1.282,0,0,0-.4-.209,1.392,1.392,0,0,0-.465,0" transform="translate(1290.418 268.287)" fill="#042647"/>
      <path id="Path_85308" data-name="Path 85308" d="M1007.785,204.361a1.393,1.393,0,0,0-.465,0,1.16,1.16,0,0,0-.372.209.952.952,0,0,0-.255.325.859.859,0,0,0,0,.4l1.092,39.51a.855.855,0,0,0,0,.372,1.048,1.048,0,0,0,.256.3,1.257,1.257,0,0,0,.371.209,1.4,1.4,0,0,0,.465,0,1.3,1.3,0,0,0,.442,0,1.16,1.16,0,0,0,.372-.209.956.956,0,0,0,.233-.3.835.835,0,0,0,0-.372l-1.069-39.51a.886.886,0,0,0,0-.4,1.046,1.046,0,0,0-.255-.325,1.236,1.236,0,0,0-.372-.209,1.371,1.371,0,0,0-.465,0" transform="translate(1332.976 270.578)" fill="#042647"/>
      <path id="Path_85309" data-name="Path 85309" d="M1010.321,224.116h-.511a1.167,1.167,0,0,0-.349.232.931.931,0,0,0-.209.325.793.793,0,0,0,0,.372.817.817,0,0,0,.139.372l23.915,38.232a1.008,1.008,0,0,0,.187.232l.255.163h1.116a1.115,1.115,0,0,0,.348-.232.9.9,0,0,0,.209-.325.817.817,0,0,0,0-.372.853.853,0,0,0,0-.372l-23.892-38.255-.209-.232-.3-.256h-.628" transform="translate(1336.366 296.608)" fill="#042647"/>
      <path id="Path_85310" data-name="Path 85310" d="M1034.032,204.361a1.343,1.343,0,0,0-.441,0,1.187,1.187,0,0,0-.373.209.981.981,0,0,0-.256.325.867.867,0,0,0,0,.4l.3,39.51a.861.861,0,0,0,0,.372,1,1,0,0,0,.255.3,1.21,1.21,0,0,0,.372.209,1.327,1.327,0,0,0,.442,0,1.37,1.37,0,0,0,.465,0,1.2,1.2,0,0,0,.372-.209.976.976,0,0,0,.255-.3.84.84,0,0,0,0-.372l-.279-39.51a.857.857,0,0,0,0-.4,1,1,0,0,0-.256-.326,1.231,1.231,0,0,0-.372-.209,1.415,1.415,0,0,0-.464,0" transform="translate(1367.761 270.578)" fill="#042647"/>
      <path id="Path_85311" data-name="Path 85311" d="M1045.035,224.05h-.6l-.256.163a.983.983,0,0,0-.186.232L1021.422,262.7a.844.844,0,0,0,0,.372.844.844,0,0,0,0,.372.952.952,0,0,0,.209.325,1.163,1.163,0,0,0,.349.232h1.092l.232-.163a.961.961,0,0,0,.186-.232l22.591-38.232a.835.835,0,0,0,0-.744.975.975,0,0,0-.209-.325,1.188,1.188,0,0,0-.372-.232h-.534" transform="translate(1352.481 296.675)" fill="#042647"/>
      <path id="Path_85312" data-name="Path 85312" d="M1043.335,204.361a1.418,1.418,0,0,0-.465,0,1.207,1.207,0,0,0-.372.209.978.978,0,0,0-.256.325.861.861,0,0,0,0,.4V244.8a.863.863,0,0,0,0,.372.992.992,0,0,0,.256.3,1.206,1.206,0,0,0,.372.209,1.372,1.372,0,0,0,.465,0,1.3,1.3,0,0,0,.441,0,1.181,1.181,0,0,0,.372-.209,1.008,1.008,0,0,0,.256-.3.859.859,0,0,0,0-.372v-39.51a.86.86,0,0,0,0-.4,1,1,0,0,0-.256-.325,1.209,1.209,0,0,0-.372-.209,1.347,1.347,0,0,0-.441,0" transform="translate(1380.049 270.578)" fill="#042647"/>
      <path id="Path_85313" data-name="Path 85313" d="M1043.365,224.061a1.37,1.37,0,0,0-.465,0,1.211,1.211,0,0,0-.372.209.975.975,0,0,0-.256.3.831.831,0,0,0,0,.372v38.232a.814.814,0,0,0,0,.372.975.975,0,0,0,.256.3,1.178,1.178,0,0,0,.371.209,1.372,1.372,0,0,0,.442,0,1.3,1.3,0,0,0,.441,0,1.179,1.179,0,0,0,.372-.209.975.975,0,0,0,.232-.3.811.811,0,0,0,0-.372V225.061a.833.833,0,0,0,0-.372,1,1,0,0,0-.255-.3,1.19,1.19,0,0,0-.372-.209,1.3,1.3,0,0,0-.442,0" transform="translate(1380.089 296.663)" fill="#042647"/>
      <path id="Path_85314" data-name="Path 85314" d="M1053.593,204.361a1.415,1.415,0,0,0-.465,0,1.22,1.22,0,0,0-.372.209,1,1,0,0,0-.256.325.857.857,0,0,0,0,.4l-.279,39.51a.84.84,0,0,0,0,.372.973.973,0,0,0,.255.3,1.2,1.2,0,0,0,.372.209,1.371,1.371,0,0,0,.465,0,1.327,1.327,0,0,0,.442,0,1.217,1.217,0,0,0,.372-.209,1.027,1.027,0,0,0,.255-.3.859.859,0,0,0,0-.372l.3-39.51a.862.862,0,0,0,0-.4.982.982,0,0,0-.256-.325,1.185,1.185,0,0,0-.372-.209,1.348,1.348,0,0,0-.441,0" transform="translate(1393.265 270.578)" fill="#042647"/>
      <path id="Path_85315" data-name="Path 85315" d="M1055.507,204.35H1055a1.206,1.206,0,0,0-.372.256,1,1,0,0,0-.232.349.858.858,0,0,0,0,.767l22.916,39.51a.962.962,0,0,0,.186.232l.256.163h1.162a1.165,1.165,0,0,0,.372-.232.978.978,0,0,0,.209-.325,1.253,1.253,0,0,0-.117-.744l-22.893-39.51a.909.909,0,0,0-.186-.232l-.256-.163h-.627" transform="translate(1396.046 270.589)" fill="#042647"/>
      <path id="Path_85316" data-name="Path 85316" d="M1053.427,224.061a1.3,1.3,0,0,0-.441,0,1.207,1.207,0,0,0-.372.209.991.991,0,0,0-.255.3.857.857,0,0,0,0,.372l-.256,38.232a.821.821,0,0,0,0,.372.956.956,0,0,0,.232.3,1.16,1.16,0,0,0,.372.209,1.3,1.3,0,0,0,.441,0,1.375,1.375,0,0,0,.441,0,1.216,1.216,0,0,0,.372-.209.987.987,0,0,0,.255-.3.819.819,0,0,0,0-.372l.3-38.232a.824.824,0,0,0,0-.372.98.98,0,0,0-.255-.3,1.185,1.185,0,0,0-.372-.209,1.374,1.374,0,0,0-.465,0" transform="translate(1393.106 296.663)" fill="#042647"/>
      <path id="Path_85317" data-name="Path 85317" d="M1080.3,204.361a1.394,1.394,0,0,0-.465,0,1.207,1.207,0,0,0-.372.209,1.018,1.018,0,0,0-.256.325.9.9,0,0,0,0,.4l-1.069,39.51a.865.865,0,0,0,0,.372.942.942,0,0,0,.233.3,1.115,1.115,0,0,0,.372.209,1.325,1.325,0,0,0,.441,0,1.393,1.393,0,0,0,.465,0,1.262,1.262,0,0,0,.372-.209,1.026,1.026,0,0,0,.255-.3.857.857,0,0,0,0-.372l1.092-39.511a.864.864,0,0,0,0-.4.955.955,0,0,0-.256-.325,1.155,1.155,0,0,0-.372-.209,1.392,1.392,0,0,0-.464,0" transform="translate(1427.587 270.578)" fill="#042647"/>
      <path id="Path_85318" data-name="Path 85318" d="M1079.757,224.062a1.393,1.393,0,0,0-.465,0,1.252,1.252,0,0,0-.372.209,1.027,1.027,0,0,0-.256.3.865.865,0,0,0,0,.372l-1.023,38.232a.818.818,0,0,0,0,.372.931.931,0,0,0,.232.3,1.157,1.157,0,0,0,.371.209,1.35,1.35,0,0,0,.442,0,1.4,1.4,0,0,0,.442,0,1.235,1.235,0,0,0,.372-.209,1,1,0,0,0,.256-.3.837.837,0,0,0,0-.372l1.046-38.232a.835.835,0,0,0,0-.372.95.95,0,0,0-.232-.3,1.16,1.16,0,0,0-.372-.209,1.348,1.348,0,0,0-.465,0" transform="translate(1426.925 296.663)" fill="#042647"/>
      <path id="Path_85319" data-name="Path 85319" d="M1067.252,224.05h-.534a1.2,1.2,0,0,0-.372.232.982.982,0,0,0-.232.325.79.79,0,0,0,0,.744l22.242,38.232a.962.962,0,0,0,.186.232l.232.163h1.116a1.19,1.19,0,0,0,.372-.232.949.949,0,0,0,.209-.325.821.821,0,0,0,0-.372.84.84,0,0,0,0-.372l-22.172-38.07a.933.933,0,0,0-.186-.232l-.232-.163h-.581" transform="translate(1411.563 296.675)" fill="#042647"/>
      <path id="Path_85320" data-name="Path 85320" d="M1087.682,204.361a1.417,1.417,0,0,0-.465,0,1.212,1.212,0,0,0-.372.209,1.026,1.026,0,0,0-.256.325.91.91,0,0,0,0,.395l-1.278,39.51a.859.859,0,0,0,0,.372.931.931,0,0,0,.233.3,1.107,1.107,0,0,0,.348.209,1.325,1.325,0,0,0,.441,0,1.394,1.394,0,0,0,.465,0,1.259,1.259,0,0,0,.372-.209,1.046,1.046,0,0,0,.255-.3.854.854,0,0,0,0-.372l1.3-39.51a.838.838,0,0,0,0-.4.953.953,0,0,0-.232-.325,1.167,1.167,0,0,0-.372-.209,1.4,1.4,0,0,0-.465,0" transform="translate(1437.081 270.578)" fill="#042647"/>
      <path id="Path_85321" data-name="Path 85321" d="M1087.026,224.062a1.372,1.372,0,0,0-.465,0,1.209,1.209,0,0,0-.372.209,1.029,1.029,0,0,0-.256.3.9.9,0,0,0,0,.372l-1.232,38.232a.816.816,0,0,0,0,.372.909.909,0,0,0,.232.3,1.091,1.091,0,0,0,.348.209,1.324,1.324,0,0,0,.441,0,1.4,1.4,0,0,0,.442,0,1.229,1.229,0,0,0,.372-.209,1.017,1.017,0,0,0,.255-.3.835.835,0,0,0,0-.372l1.278-38.232a.824.824,0,0,0,0-.372.957.957,0,0,0-.232-.3,1.163,1.163,0,0,0-.372-.209,1.346,1.346,0,0,0-.465,0" transform="translate(1436.273 296.663)" fill="#042647"/>
      <path id="Path_85322" data-name="Path 85322" d="M1113.347,224.061a1.418,1.418,0,0,0-.465,0,1.273,1.273,0,0,0-.4.209,1.066,1.066,0,0,0-.256.3.884.884,0,0,0,0,.372l-2,38.232a.791.791,0,0,0,0,.372.9.9,0,0,0,.233.3,1.112,1.112,0,0,0,.348.209,1.349,1.349,0,0,0,.884,0,1.26,1.26,0,0,0,.372-.209,1.041,1.041,0,0,0,.256-.3.849.849,0,0,0,0-.372l2.022-38.232a.814.814,0,0,0,0-.372.93.93,0,0,0-.233-.3,1.108,1.108,0,0,0-.348-.209,1.276,1.276,0,0,0-.442,0" transform="translate(1470.078 296.664)" fill="#042647"/>
      <path id="Path_85323" data-name="Path 85323" d="M1139.671,241.84h-52.479a1.393,1.393,0,0,0-.442,0,1.237,1.237,0,0,0-.372.209,1.01,1.01,0,0,0-.255.3.83.83,0,0,0,0,.372.755.755,0,0,0,0,.372.9.9,0,0,0,.232.3,1.159,1.159,0,0,0,.372.209,1.347,1.347,0,0,0,.442,0h52.456a1.418,1.418,0,0,0,.464,0,1.271,1.271,0,0,0,.372-.209,1.039,1.039,0,0,0,.256-.3.809.809,0,0,0,0-.372.782.782,0,0,0,0-.372.881.881,0,0,0-.232-.3,1.108,1.108,0,0,0-.348-.209,1.349,1.349,0,0,0-.442,0" transform="translate(1438.153 320.208)" fill="#042647"/>
      <path id="Path_85324" data-name="Path 85324" d="M1125.939,222.691H1099.3a1.394,1.394,0,0,0-.465,0,1.28,1.28,0,0,0-.372.209,1.039,1.039,0,0,0-.256.3.863.863,0,0,0,0,.372.817.817,0,0,0,0,.372.93.93,0,0,0,.232.3,1.143,1.143,0,0,0,.373.209,1.348,1.348,0,0,0,.441,0h26.611a1.4,1.4,0,0,0,.465,0,1.283,1.283,0,0,0,.4-.209,1.069,1.069,0,0,0,.256-.3.88.88,0,0,0,0-.372.814.814,0,0,0,0-.372.933.933,0,0,0-.232-.3,1.132,1.132,0,0,0-.372-.209,1.343,1.343,0,0,0-.441,0" transform="translate(1454.162 294.849)" fill="#042647"/>
      <path id="Path_85325" data-name="Path 85325" d="M1142.645,202.631h-54.106a1.392,1.392,0,0,0-.465,0,1.277,1.277,0,0,0-.4.209,1.065,1.065,0,0,0-.256.325.906.906,0,0,0,0,.4.861.861,0,0,0,0,.4.961.961,0,0,0,.233.325,1.16,1.16,0,0,0,.372.209,1.393,1.393,0,0,0,.465,0h54.06a1.44,1.44,0,0,0,.465,0,1.3,1.3,0,0,0,.4-.209,1.061,1.061,0,0,0,.279-.325.914.914,0,0,0,0-.4.857.857,0,0,0,0-.4.957.957,0,0,0-.233-.325,1.144,1.144,0,0,0-.372-.209,1.348,1.348,0,0,0-.465,0" transform="translate(1439.874 268.287)" fill="#042647"/>
      <path id="Path_85326" data-name="Path 85326" d="M1121.891,204.361a1.461,1.461,0,0,0-.465,0,1.306,1.306,0,0,0-.4.209,1.072,1.072,0,0,0-.279.326.9.9,0,0,0-.116.4l-2.324,39.51a.816.816,0,0,0,0,.372.906.906,0,0,0,.232.3,1.122,1.122,0,0,0,.372.209,1.328,1.328,0,0,0,.442,0,1.348,1.348,0,0,0,.441,0,1.27,1.27,0,0,0,.371-.209,1.094,1.094,0,0,0,.256-.3.892.892,0,0,0,0-.372l2.324-39.51a.841.841,0,0,0,0-.4.907.907,0,0,0-.233-.325,1.113,1.113,0,0,0-.372-.209,1.3,1.3,0,0,0-.442,0" transform="translate(1480.777 270.578)" fill="#042647"/>
      <path id="Path_85327" data-name="Path 85327" d="M1146.976,224.061a1.372,1.372,0,0,0-.441,0,1.322,1.322,0,0,0-.372.209,1.126,1.126,0,0,0-.279.3.907.907,0,0,0-.117.372l-2.974,38.232a.782.782,0,0,0,0,.372.859.859,0,0,0,.232.3,1.069,1.069,0,0,0,.349.209,1.25,1.25,0,0,0,.441,0,1.42,1.42,0,0,0,.465,0,1.322,1.322,0,0,0,.395-.209,1.087,1.087,0,0,0,.279-.3.854.854,0,0,0,.117-.372l3-38.232a.814.814,0,0,0,0-.372.9.9,0,0,0-.232-.3,1.089,1.089,0,0,0-.349-.209,1.328,1.328,0,0,0-.442,0" transform="translate(1513.192 296.664)" fill="#042647"/>
      <path id="Path_85328" data-name="Path 85328" d="M1172.254,241.841h-52.5a1.352,1.352,0,0,0-.442,0,1.278,1.278,0,0,0-.372.209,1.05,1.05,0,0,0-.255.3.859.859,0,0,0,0,.372.776.776,0,0,0,0,.372.885.885,0,0,0,.232.3,1.1,1.1,0,0,0,.349.209,1.28,1.28,0,0,0,.441,0h52.479a1.373,1.373,0,0,0,.441,0,1.3,1.3,0,0,0,.372-.209,1.09,1.09,0,0,0,.255-.3.838.838,0,0,0,.117-.372.8.8,0,0,0,0-.372.862.862,0,0,0-.233-.3,1.061,1.061,0,0,0-.349-.209,1.252,1.252,0,0,0-.441,0" transform="translate(1481.267 320.207)" fill="#042647"/>
      <path id="Path_85329" data-name="Path 85329" d="M1174.174,222.691h-53.293a1.344,1.344,0,0,0-.441,0,1.266,1.266,0,0,0-.372.209,1.084,1.084,0,0,0-.256.3.876.876,0,0,0,0,.372.824.824,0,0,0,0,.372.91.91,0,0,0,.232.3,1.1,1.1,0,0,0,.349.209,1.282,1.282,0,0,0,.442,0H1174.1a1.349,1.349,0,0,0,.441,0,1.3,1.3,0,0,0,.372-.209,1.1,1.1,0,0,0,.279-.3.9.9,0,0,0,.116-.372.814.814,0,0,0,0-.372.886.886,0,0,0-.232-.3,1.076,1.076,0,0,0-.349-.209,1.256,1.256,0,0,0-.442,0" transform="translate(1482.763 294.849)" fill="#042647"/>
      <path id="Path_85330" data-name="Path 85330" d="M1176.308,202.631h-54.13a1.348,1.348,0,0,0-.465,0,1.3,1.3,0,0,0-.4.209,1.121,1.121,0,0,0-.279.325.925.925,0,0,0-.116.4.835.835,0,0,0,0,.4.912.912,0,0,0,.232.325,1.12,1.12,0,0,0,.349.209,1.3,1.3,0,0,0,.441,0h54.083a1.392,1.392,0,0,0,.464,0,1.323,1.323,0,0,0,.4-.209,1.115,1.115,0,0,0,.279-.325.931.931,0,0,0,.117-.4.868.868,0,0,0,0-.4.931.931,0,0,0-.233-.325,1.1,1.1,0,0,0-.349-.209,1.25,1.25,0,0,0-.441,0" transform="translate(1484.232 268.287)" fill="#042647"/>
      <rect id="Rectangle_1933" data-name="Rectangle 1933" width="2.324" height="27.007" transform="translate(2121.571 389.039)" fill="#0a3360"/>
      <rect id="Rectangle_1934" data-name="Rectangle 1934" width="2.324" height="27.007" transform="translate(2724.245 389.039)" fill="#0a3360"/>
      <rect id="Rectangle_1935" data-name="Rectangle 1935" width="96.754" height="79.672" transform="translate(2583.843 659.848)" fill="#0a3360"/>
      <rect id="Rectangle_1936" data-name="Rectangle 1936" width="96.754" height="79.672" transform="translate(2444.627 659.848)" fill="#0a3360"/>
      <rect id="Rectangle_1937" data-name="Rectangle 1937" width="96.754" height="79.672" transform="translate(2305.411 659.848)" fill="#0a3360"/>
      <rect id="Rectangle_1938" data-name="Rectangle 1938" width="96.754" height="79.672" transform="translate(2166.195 659.848)" fill="#0a3360"/>
      <rect id="Rectangle_1939" data-name="Rectangle 1939" width="96.754" height="79.672" transform="translate(2583.843 772.104)" fill="#0a3360"/>
      <rect id="Rectangle_1940" data-name="Rectangle 1940" width="96.754" height="79.672" transform="translate(2444.627 772.104)" fill="#0a3360"/>
      <rect id="Rectangle_1941" data-name="Rectangle 1941" width="96.754" height="79.672" transform="translate(2305.411 772.104)" fill="#0a3360"/>
      <rect id="Rectangle_1942" data-name="Rectangle 1942" width="96.754" height="79.672" transform="translate(2166.195 772.104)" fill="#0a3360"/>
      <rect id="Rectangle_1943" data-name="Rectangle 1943" width="96.754" height="79.672" transform="translate(2583.843 884.36)" fill="#0a3360"/>
      <rect id="Rectangle_1944" data-name="Rectangle 1944" width="96.754" height="79.672" transform="translate(2444.627 884.36)" fill="#0a3360"/>
      <rect id="Rectangle_1945" data-name="Rectangle 1945" width="96.754" height="79.672" transform="translate(2305.411 884.36)" fill="#0a3360"/>
      <rect id="Rectangle_1946" data-name="Rectangle 1946" width="96.754" height="79.672" transform="translate(2166.195 884.36)" fill="#0a3360"/>
      <rect id="Rectangle_1947" data-name="Rectangle 1947" width="96.754" height="79.672" transform="translate(2583.843 996.64)" fill="#0a3360"/>
      <rect id="Rectangle_1948" data-name="Rectangle 1948" width="96.754" height="79.672" transform="translate(2444.627 996.64)" fill="#0a3360"/>
      <rect id="Rectangle_1949" data-name="Rectangle 1949" width="96.754" height="79.672" transform="translate(2305.411 996.64)" fill="#0a3360"/>
      <rect id="Rectangle_1950" data-name="Rectangle 1950" width="96.754" height="79.672" transform="translate(2166.195 996.64)" fill="#0a3360"/>
      <rect id="Rectangle_1951" data-name="Rectangle 1951" width="96.754" height="191.951" transform="translate(2583.843 996.64)" fill="#0a3360"/>
      <rect id="Rectangle_1952" data-name="Rectangle 1952" width="96.754" height="79.672" transform="translate(2444.627 1108.896)" fill="#0a3360"/>
      <rect id="Rectangle_1953" data-name="Rectangle 1953" width="96.754" height="79.672" transform="translate(2305.411 1108.896)" fill="#0a3360"/>
      <rect id="Rectangle_1954" data-name="Rectangle 1954" width="96.754" height="79.672" transform="translate(2166.195 1108.896)" fill="#0a3360"/>
      <rect id="Rectangle_1955" data-name="Rectangle 1955" width="96.754" height="79.672" transform="translate(2583.843 669.145)" fill="#259ed9"/>
      <rect id="Rectangle_1956" data-name="Rectangle 1956" width="96.754" height="79.672" transform="translate(2444.627 669.145)" fill="#259ed9"/>
      <rect id="Rectangle_1957" data-name="Rectangle 1957" width="96.754" height="79.672" transform="translate(2305.411 669.145)" fill="#f65992"/>
      <rect id="Rectangle_1958" data-name="Rectangle 1958" width="96.754" height="79.672" transform="translate(2166.195 669.145)" fill="#f65992"/>
      <rect id="Rectangle_1959" data-name="Rectangle 1959" width="96.754" height="79.672" transform="translate(2583.843 781.401)" fill="#259ed9"/>
      <rect id="Rectangle_1960" data-name="Rectangle 1960" width="96.754" height="79.672" transform="translate(2444.627 781.401)" fill="#2e63ac"/>
      <rect id="Rectangle_1961" data-name="Rectangle 1961" width="96.754" height="79.672" transform="translate(2305.411 781.401)" fill="#2e63ac"/>
      <rect id="Rectangle_1962" data-name="Rectangle 1962" width="96.754" height="79.672" transform="translate(2166.195 781.401)" fill="#2e63ac"/>
      <rect id="Rectangle_1963" data-name="Rectangle 1963" width="96.754" height="79.672" transform="translate(2583.843 893.657)" fill="#259ed9"/>
      <rect id="Rectangle_1964" data-name="Rectangle 1964" width="96.754" height="79.672" transform="translate(2444.627 893.657)" fill="#2e63ac"/>
      <rect id="Rectangle_1965" data-name="Rectangle 1965" width="96.754" height="79.672" transform="translate(2305.411 893.657)" fill="#2e63ac"/>
      <rect id="Rectangle_1966" data-name="Rectangle 1966" width="96.754" height="79.672" transform="translate(2166.195 893.657)" fill="#2e63ac"/>
      <rect id="Rectangle_1967" data-name="Rectangle 1967" width="96.754" height="79.672" transform="translate(2583.843 1005.937)" fill="#2e63ac"/>
      <rect id="Rectangle_1968" data-name="Rectangle 1968" width="96.754" height="79.672" transform="translate(2444.627 1005.937)" fill="#2e63ac"/>
      <rect id="Rectangle_1969" data-name="Rectangle 1969" width="96.754" height="79.672" transform="translate(2305.411 1005.937)" fill="#2e63ac"/>
      <rect id="Rectangle_1970" data-name="Rectangle 1970" width="96.754" height="79.672" transform="translate(2166.195 1005.937)" fill="#2e63ac"/>
      <rect id="Rectangle_1971" data-name="Rectangle 1971" width="96.754" height="191.951" transform="translate(2583.843 1005.937)" fill="#259ed9"/>
      <rect id="Rectangle_1972" data-name="Rectangle 1972" width="96.754" height="79.672" transform="translate(2444.627 1118.193)" fill="#259ed9"/>
      <rect id="Rectangle_1973" data-name="Rectangle 1973" width="96.754" height="79.672" transform="translate(2305.411 1118.193)" fill="#2e63ac"/>
      <rect id="Rectangle_1974" data-name="Rectangle 1974" width="96.754" height="79.672" transform="translate(2166.195 1118.193)" fill="#2e63ac"/>
      <path id="Path_85331" data-name="Path 85331" d="M950.5,327.812a18.222,18.222,0,0,1,0-25.333,17.269,17.269,0,0,1,12.527-5,18.036,18.036,0,0,1,9.831,2.719,15.435,15.435,0,0,1,6.229,7.67h-6.694a9.668,9.668,0,0,0-9.3-5.229,11.318,11.318,0,0,0-8.529,3.44,14.107,14.107,0,0,0,0,18.152,11.319,11.319,0,0,0,8.53,3.44,9.668,9.668,0,0,0,9.3-5.23h6.81a15.3,15.3,0,0,1-6.229,7.646,18.154,18.154,0,0,1-9.831,2.7,17.315,17.315,0,0,1-12.643-4.974Z" transform="translate(1251.813 393.904)" fill="#042647"/>
      <path id="Path_85332" data-name="Path 85332" d="M947.733,346.52h23.893v4.23l-13.759,31.864h-6.206l14.456-31.376H947.71Z" transform="translate(1254.904 458.843)" fill="#042647"/>
      <path id="Path_85333" data-name="Path 85333" d="M1008.167,355.751a9.04,9.04,0,0,1,3.114-6.972,15.27,15.27,0,0,1,17.641,0,9.04,9.04,0,0,1,3.114,6.972,8.6,8.6,0,0,1-1.417,4.9,9.438,9.438,0,0,1-3.765,3.254,9.3,9.3,0,0,1,4.462,3.486,9.853,9.853,0,0,1,1.65,5.717,10.084,10.084,0,0,1-3.578,8.111,15.688,15.688,0,0,1-18.594,0,10.087,10.087,0,0,1-3.579-8.111,9.944,9.944,0,0,1,1.65-5.764,9.11,9.11,0,0,1,4.416-3.44,8.554,8.554,0,0,1-5.114-8.158Zm19.244,17.059a5.857,5.857,0,0,0-2-4.648,7.9,7.9,0,0,0-5.3-1.7,8.367,8.367,0,0,0-5.369,1.65,5.717,5.717,0,0,0-2.068,4.648,6.321,6.321,0,0,0,2,4.927,7.693,7.693,0,0,0,5.392,1.813,7.553,7.553,0,0,0,5.369-1.836,6.368,6.368,0,0,0,1.975-4.881Zm-.79-16.5a5.134,5.134,0,0,0-1.743-4.137,8.3,8.3,0,0,0-9.506,0,5.182,5.182,0,0,0-1.743,4.16,5.3,5.3,0,0,0,1.813,4.23,7.67,7.67,0,0,0,9.3,0,5.3,5.3,0,0,0,1.882-4.276Z" transform="translate(1333.686 458.118)" fill="#042647"/>
      <path id="Path_85334" data-name="Path 85334" d="M1080.625,378.444a5.578,5.578,0,0,0,5.183-2.789,19.923,19.923,0,0,0,1.65-9.506,7.646,7.646,0,0,1-3.347,2.6,11.851,11.851,0,0,1-4.648.93,11.62,11.62,0,0,1-8.274-3.021,11.783,11.783,0,0,1,8.785-20.546,10.505,10.505,0,0,1,9.622,4.509q2.859,4.509,2.859,13.945a28.774,28.774,0,0,1-2.626,13.945q-2.627,4.648-9.437,4.648a11.319,11.319,0,0,1-8.2-2.789,10.6,10.6,0,0,1-3.231-6.973h5.229A5.9,5.9,0,0,0,1080.625,378.444Zm-7.368-20.569a7.3,7.3,0,0,0,1.766,5.066,7.553,7.553,0,0,0,10.041,0,8.389,8.389,0,0,0,0-10.3,6.484,6.484,0,0,0-4.951-1.906,6.414,6.414,0,0,0-4.95,1.952,7.181,7.181,0,0,0-1.883,5.183Z" transform="translate(1413.18 458.248)" fill="#042647"/>
      <path id="Path_85335" data-name="Path 85335" d="M1154.46,347.18l-10.784,17.292,10.737,17.245h-6.368l-7.809-12.527-7.3,12.527h-6.368l10.737-17.245L1126.57,347.18h6.368l7.809,12.574,7.368-12.574Z" transform="translate(1491.74 459.717)" fill="#042647"/>
      <path id="Path_85336" data-name="Path 85336" d="M1152.446,479.017v5.067h-9.994v10.133h-5.369V484.084h-9.994v-5.067h9.994V469h5.369v10.133Z" transform="translate(1492.429 621.024)" fill="#042647"/>
      <path id="Path_85337" data-name="Path 85337" d="M964.909,429.952V422.4H946.92v-4.276l16.711-23.962H970.6V417.4h4.648v4.927H970.6v7.554Zm.256-12.481V399.924l-11.621,17.547Z" transform="translate(1253.858 521.925)" fill="#042647"/>
      <path id="Path_85338" data-name="Path 85338" d="M1008.29,393.92h21.87v4.95H1013.5v9.9a7.873,7.873,0,0,1,3.114-2.324,11.622,11.622,0,0,1,4.835-.953,11.988,11.988,0,0,1,5.113,1.092,8.574,8.574,0,0,1,3.6,2.928,13.777,13.777,0,0,1,2.487,8.065,13.015,13.015,0,0,1-3.231,9.3,11.621,11.621,0,0,1-8.971,3.51,13.947,13.947,0,0,1-9.018-2.7,10.877,10.877,0,0,1-3.928-7.112h5.531a6.137,6.137,0,0,0,2.324,3.7,8.483,8.483,0,0,0,5.066,1.371,6.066,6.066,0,0,0,4.951-2.138,8.666,8.666,0,0,0,1.766-5.694,7.715,7.715,0,0,0-1.79-5.462,6.974,6.974,0,0,0-5.276-1.906,6.531,6.531,0,0,0-6.508,4.648H1008.2Z" transform="translate(1334.074 521.607)" fill="#042647"/>
      <path id="Path_85339" data-name="Path 85339" d="M1080.141,398.308a6.508,6.508,0,0,0-5.857,3,19.71,19.71,0,0,0-2.045,9.971,8.532,8.532,0,0,1,3.788-3.393,12.224,12.224,0,0,1,5.369-1.185,10.713,10.713,0,0,1,8.065,3.184,11.875,11.875,0,0,1,3.091,8.622,12.457,12.457,0,0,1-3.138,8.832,11.318,11.318,0,0,1-8.739,3.393q-7.716,0-10.6-5.16a18.126,18.126,0,0,1-2.092-5.9,44.885,44.885,0,0,1-.6-7.879q0-18.2,12.83-18.2a10.97,10.97,0,0,1,7.832,2.7,10.647,10.647,0,0,1,3.347,6.6h-5.229A5.532,5.532,0,0,0,1080.141,398.308Zm6.973,20.5a7.785,7.785,0,0,0-1.766-5.322,6.3,6.3,0,0,0-5-2.022,7.925,7.925,0,0,0-5.346,1.813,6.531,6.531,0,0,0-2.115,5.253,7.46,7.46,0,0,0,1.975,5.438,6.973,6.973,0,0,0,5.3,2.022,6.716,6.716,0,0,0,5.136-1.929,7.367,7.367,0,0,0,1.813-5.229Z" transform="translate(1413.362 521.147)" fill="#042647"/>
      <path id="Path_85340" data-name="Path 85340" d="M954.708,478.5V448.283H950.06V443.1H960.4v35.3Z" transform="translate(1258.016 586.729)" fill="#042647"/>
      <path id="Path_85341" data-name="Path 85341" d="M1007.754,478.6v-4.137l3.626-3.137,3.649-3.161q1.278-1.116,3.161-2.882a33.733,33.733,0,0,0,2.929-3.021q1.046-1.278,2.138-2.859a9.95,9.95,0,0,0,2.045-5.764q0-6.159-5.857-6.159a5.694,5.694,0,0,0-4.648,1.859,7.764,7.764,0,0,0-1.72,5h-5.461a11.62,11.62,0,0,1,3.416-8.669,11.993,11.993,0,0,1,8.483-3,11.459,11.459,0,0,1,8.274,2.928,10.251,10.251,0,0,1,3.068,7.763,13.367,13.367,0,0,1-1.929,6.972q-1.046,1.7-2,3a25.251,25.251,0,0,1-2.626,3l-2.7,2.626q-1,.953-2.905,2.626l-2.6,2.324h15.665v4.648Z" transform="translate(1334.216 586.137)" fill="#042647"/>
      <path id="Path_85342" data-name="Path 85342" d="M1071.334,444.972a13.108,13.108,0,0,1,8.413-2.58,11.621,11.621,0,0,1,8.112,2.649,8.716,8.716,0,0,1,2.952,6.787,8.528,8.528,0,0,1-1.65,5.276,7.974,7.974,0,0,1-3.928,2.928v.186a8.342,8.342,0,0,1,4.648,3.254,11.133,11.133,0,0,1,1.65,6.438,9.067,9.067,0,0,1-3.068,6.973,12.039,12.039,0,0,1-8.506,2.835,13.945,13.945,0,0,1-8.9-2.766,10.226,10.226,0,0,1-3.7-7.925h5.462a6.205,6.205,0,0,0,2.045,4.3,6.974,6.974,0,0,0,4.927,1.673,6.344,6.344,0,0,0,4.648-1.673,5.858,5.858,0,0,0,1.65-4.3,5.486,5.486,0,0,0-2.324-4.951,12.479,12.479,0,0,0-6.787-1.464h-1.162v-4.648h1.348q8.251,0,8.251-5.415a4.929,4.929,0,0,0-1.534-3.812,7.391,7.391,0,0,0-8.692,0,5.717,5.717,0,0,0-1.836,3.509h-5.508A9.507,9.507,0,0,1,1071.334,444.972Z" transform="translate(1413.338 585.763)" fill="#042647"/>
      <path id="Path_85343" data-name="Path 85343" d="M957.093,509.187a3.369,3.369,0,0,1-2.324.976,3.23,3.23,0,0,1-2.324-1,3.486,3.486,0,0,1,0-4.834,3.229,3.229,0,0,1,2.324-1,3.393,3.393,0,0,1,3.44,3.347h0a3.229,3.229,0,0,1-1.115,2.51Z" transform="translate(1259.884 666.482)" fill="#042647"/>
      <path id="Path_85344" data-name="Path 85344" d="M1013.8,492.039a15.036,15.036,0,0,1,12.527,0,9.642,9.642,0,0,1,4,3.9,19.187,19.187,0,0,1,2.045,5.648,41.22,41.22,0,0,1,0,14.27,19.5,19.5,0,0,1-2.045,5.671,9.622,9.622,0,0,1-4,3.928,15.035,15.035,0,0,1-12.527,0,9.622,9.622,0,0,1-4-3.928,19.5,19.5,0,0,1-2.045-5.671,41.381,41.381,0,0,1,0-14.27,19.193,19.193,0,0,1,2.045-5.648A9.647,9.647,0,0,1,1013.8,492.039Zm6.275,3.812a6.973,6.973,0,0,0-3.927,1.023,5.741,5.741,0,0,0-2.325,3,33.582,33.582,0,0,0,0,17.757,6.74,6.74,0,0,0,12.341,0,33.659,33.659,0,0,0,0-17.757,5.834,5.834,0,0,0-6-4.044Z" transform="translate(1333.589 649.721)" fill="#042647"/>
      <path id="Path_85345" data-name="Path 85345" d="M1067,500.024V495.05h26.449v5.02Zm0,11.3V506.3h26.449v5.02Z" transform="translate(1412.861 655.518)" fill="#042647"/>
      <path id="Path_85346" data-name="Path 85346" d="M1023.116,332.257l-2.487-6.972H1006.15l-2.487,6.972h-5.9l12.388-34.607h6.554l12.388,34.607Zm-15.5-11.481H1019l-5.671-16.269Z" transform="translate(1321.177 394.132)" fill="#042647"/>
      <path id="Path_85347" data-name="Path 85347" d="M1017.859,327.812a18.221,18.221,0,0,1,0-25.333,17.268,17.268,0,0,1,12.527-5,18.011,18.011,0,0,1,9.808,2.719,15.43,15.43,0,0,1,6.229,7.669h-6.81a9.668,9.668,0,0,0-9.3-5.229,11.318,11.318,0,0,0-8.53,3.44,14.108,14.108,0,0,0,0,18.151,11.319,11.319,0,0,0,8.53,3.44,9.669,9.669,0,0,0,9.3-5.23h6.81a15.291,15.291,0,0,1-6.229,7.646,18.152,18.152,0,0,1-9.807,2.7A17.314,17.314,0,0,1,1017.859,327.812Z" transform="translate(1341.008 393.904)" fill="#042647"/>
      <path id="Path_85348" data-name="Path 85348" d="M1067.926,310.642a8.437,8.437,0,0,1,0-11.179,8.3,8.3,0,0,1,10.9,0,7.367,7.367,0,0,1,2.115,5.578,7.74,7.74,0,0,1-12.992,5.6ZM1069,332.535l19.848-34.607h5.578l-19.848,34.607Zm7.507-27.471q0-4.207-3.138-4.207t-3.137,4.207q0,4.207,3.137,4.207t3.138-4.183Zm8.181,25.914a7.461,7.461,0,0,1-2.115-5.6,7.364,7.364,0,0,1,2.115-5.578,8.227,8.227,0,0,1,10.83,0,7.39,7.39,0,0,1,2.115,5.578,7.693,7.693,0,0,1-12.945,5.6Zm8.53-5.6q0-4.183-3.138-4.183t-3.137,4.183q0,4.183,3.137,4.183t3.138-4.16Z" transform="translate(1411.284 393.83)" fill="#042647"/>
      <path id="Path_85349" data-name="Path 85349" d="M1123.82,309.186V303.91h40.6v5.276Z" transform="translate(1488.099 402.421)" fill="#042647"/>
      <path id="Path_85350" data-name="Path 85350" d="M1123.82,406.2V400.92h40.6V406.2Z" transform="translate(1488.099 530.876)" fill="#042647"/>
      <ellipse id="Ellipse_971" data-name="Ellipse 971" cx="4.253" cy="4.253" rx="4.253" ry="4.253" transform="translate(2627.979 691.596)" fill="#042647"/>
      <ellipse id="Ellipse_972" data-name="Ellipse 972" cx="4.253" cy="4.253" rx="4.253" ry="4.253" transform="translate(2627.979 717.859)" fill="#042647"/>
      <path id="Path_85351" data-name="Path 85351" d="M1773.909,856.034V639.261L1704.3,523.96,1283.1,707.753,1187.83,835.744l44.809,74.233h451.93Z" transform="translate(1572.857 693.799)" fill="#ffb061"/>
      <path id="Path_85352" data-name="Path 85352" d="M1260.437,553.158h0a73.141,73.141,0,0,1,100.426,24.8h0l25.077,41.556a73.141,73.141,0,0,1-24.8,100.426h0a73.141,73.141,0,0,1-100.427-24.8h0l-25.078-41.556a73.141,73.141,0,0,1,24.8-100.426Z" transform="translate(1622.198 718.498)" fill="#ffb061"/>
      <path id="Path_85353" data-name="Path 85353" d="M1318.6,527.7h0a73.14,73.14,0,0,1,100.426,24.8h0l25.078,41.556a73.141,73.141,0,0,1-24.8,100.426h0a73.141,73.141,0,0,1-100.426-24.8h0L1293.8,628.124A73.141,73.141,0,0,1,1318.6,527.7Z" transform="translate(1699.211 684.785)" fill="#ffb061"/>
      <path id="Path_85354" data-name="Path 85354" d="M1379.646,507.158h0a73.141,73.141,0,0,1,100.426,24.8h0l25.078,41.556a73.142,73.142,0,0,1-24.8,100.426h0a73.14,73.14,0,0,1-100.426-24.8h0l-25.078-41.556A73.141,73.141,0,0,1,1379.646,507.158Z" transform="translate(1780.05 657.587)" fill="#ffb061"/>
      <path id="Path_85355" data-name="Path 85355" d="M1182.141,733.224a99.79,99.79,0,0,0-5.671,13.155h469.686l15.548-25.565-434.893-73.3Z" transform="translate(1557.815 857.397)" fill="#ffb061"/>
      <path id="Path_85356" data-name="Path 85356" d="M1601.135,936.963V653.417c-41.068-68.1-81.345-129.222-100.217-147.234-35.3-33.909-105.772,274.76-105.772,274.76l-76.836,156.02Z" transform="translate(1745.631 666.813)" fill="#ffb061"/>
      <path id="Path_85357" data-name="Path 85357" d="M1247.681,726.715l-38.837-64.355-26.7,51.131a99.94,99.94,0,0,0-5.671,13.155Z" transform="translate(1557.815 877.061)" fill="#ff8f2f"/>
      <path id="Path_85358" data-name="Path 85358" d="M1324.094,626.333a2.184,2.184,0,0,1-1.86-1.046l-39.255-65.076a2.192,2.192,0,0,1,3.719-2.324h0l39.255,65.076a2.184,2.184,0,0,1-1.859,3.3Z" transform="translate(1698.408 737.359)" fill="#ff8f2f"/>
      <path id="Path_85359" data-name="Path 85359" d="M1369.242,578.425a2.185,2.185,0,0,1-1.859-1.046l-23.752-39.348a2.192,2.192,0,1,1,3.718-2.324h0l23.752,39.348a2.185,2.185,0,0,1-1.859,3.3Z" transform="translate(1778.717 707.989)" fill="#ff8f2f"/>
      <path id="Path_85360" data-name="Path 85360" d="M1276.686,667.758a2.185,2.185,0,0,1-1.859-1.046l-49.737-82.391a2.193,2.193,0,1,1,3.719-2.324l49.736,82.391a2.185,2.185,0,0,1-1.859,3.3Z" transform="translate(1621.753 769.284)" fill="#ff8f2f"/>
      <path id="Path_85361" data-name="Path 85361" d="M1165.282,498.19c-18.872-13.224-43.159-17.594-65.355-5.183-24.311,13.6-33.793,52.433-19.523,68.655s170.1,177.472,258.538,324.753c24.845,41.37,56.2,65.076,85.993,74.233h54.385c46.134-16.5,67.4-78.324,8.646-164.178C1377.825,635.872,1165.282,498.19,1165.282,498.19Z" transform="translate(1421.745 643.081)" fill="#ffb061"/>
      <path id="Path_85362" data-name="Path 85362" d="M1143.147,490.41a65.254,65.254,0,0,0-13.41-4.23c-25.287,5.044-39.65,21.382-48.947,45.577l16.943,18.988c13.945,15.6,42.392-.558,58.1-14.479s12.364-20.336-1.557-35.908Z" transform="translate(1431.121 643.773)" fill="#ff8f2f"/>
      <path id="Path_85363" data-name="Path 85363" d="M1572.838,721.744v-42.3a241.5,241.5,0,0,0-233.158,42.184Z" transform="translate(1773.929 882.033)" fill="#ffb061"/>
    </g>
  </g>
</svg>
