<svg xmlns="http://www.w3.org/2000/svg" id="Insurance_by_state" data-name="Insurance by state" viewBox="0 0 718 412"><defs><style>.cls-2{fill:#2862a4}.cls-3{fill:#bf5927}.cls-4{fill:#4ebee5}.cls-7{fill:#f7cd97}</style></defs><path d="M27.24 32.86h645.51v332.29H27.24z" style="fill:none"/><path d="M636.84 365.14H63.16a.97.97 0 0 1 0-1.94h573.68a.97.97 0 0 1 0 1.94Z"/><path d="m301.97 323.64 258.06-24.71 13.99-31.88-325.99 27.03 53.94 29.56zM165.746 80.291 559.7 47.833l16.273 197.51-393.955 32.46z" class="cls-7"/><path d="m527.02 336.78-.77-4.56c-3.14-18.53-5.03-29.72-8.13-40.86-4.63-16.61-12.59-20.85-13.34-21.22l-29.9-17.3a.967.967 0 0 0-1.12.11c-.31.27-.42.71-.26 1.09 10.73 26.82 31.2 78.35 31.91 81.35.92 3.9.08 6.01-3.46 8.7-3.59 2.73-10.23 6.89-10.29 6.93a.96.96 0 0 0-.34 1.27l3.34 6.32c.17.32.5.51.85.51.08 0 .16 0 .23-.03l14.65-3.67a.99.99 0 0 0 .48-.29l15.91-17.53c.2-.22.29-.52.24-.81Z" class="cls-3"/><path d="M518.12 291.36c-4.74-17.02-13.72-22.53-14.1-22.76-.02-.01-.05-.03-.07-.04l-31.73-15.53a.965.965 0 0 0-1.15.23c-.29.32-.32.8-.09 1.17.08.12 7.77 12.04 13.27 26.59.1.27.32.48.59.57l32.04 10.94a.965.965 0 0 0 .97-.21c.26-.25.36-.62.27-.96Z"/><path d="M527.02 336.78a.976.976 0 0 0-1.48-.65c-2.99 1.94-6.58 4.32-10.06 6.62-4.07 2.7-7.91 5.24-9.93 6.5-7.02 4.39-10.12 3.32-12.92 1.73a.967.967 0 0 0-.96 0c-4.56 2.67-7.94 4.28-11.3 5.83-3.54 1.64-3.63 5.67-3.18 7.57.1.44.49.74.94.74h25.98c7.21 0 12.43-5.24 14.93-8.42l.4 7.5c.03.51.45.91.96.91h6.16c.5 0 .92-.38.96-.89.06-.68 1.37-16.79-.52-27.48Z" class="cls-2"/><path d="M404.65 38.76c6.92 16.37 15.35 159.46-28.58 206.38H116.88c43.94-46.92 35.5-190.01 28.58-206.38h259.19Z" style="fill:#f3f9fc"/><path d="M376.07 246.1H116.88c-.38 0-.73-.23-.89-.58a.97.97 0 0 1 .18-1.04c10.02-10.7 18.01-27.29 23.75-49.32 4.79-18.41 7.94-40.18 9.36-64.72 2.45-42.41-1.21-83.04-4.71-91.3a.98.98 0 0 1 .08-.91c.18-.27.48-.43.8-.43h259.19c.39 0 .74.23.89.59 3.65 8.63 7.35 48.82 4.85 92.16-2.22 38.57-9.86 89.88-33.62 115.25-.18.19-.44.31-.7.31Zm-257.02-1.93h256.6c9.88-10.71 17.78-27.2 23.46-49.02 4.79-18.41 7.94-40.18 9.36-64.72 2.39-41.48-1.06-81.26-4.48-90.71H146.84c3.48 10.88 6.75 49.41 4.37 90.82-2.18 37.76-9.55 87.74-32.15 113.63Z"/><path d="M386.77 109.86c-.2-.85-.38-1.66-.55-2.43-1.48-6.64-2.46-11.02-7.12-12.06-4.99-1.11-5.88 2.41-6.9 6.49-.12.47-.24.96-.37 1.46-1.27 4.82-1.64 5.32-6.56 8.87-4.36 3.14-8.33 4.71-9.16 5.01-1.8-.05-14.83-.28-19.3 2.34-2.44 1.43-3.4 4.09-4.41 6.9-1.05 2.91-2.13 5.93-4.96 7.83-2.86 1.92-4.82 1.9-6.71 1.88-1.77-.02-3.61-.04-5.64 1.66-1.48 1.24-2.45 2.98-3.48 4.82-1.35 2.43-2.74 4.92-5.44 6.31 3.61-7.73 2.37-10.62.58-11.67-1.45-.85-3.55-.47-5.56.76 2.43-6.52 1.18-10.19.4-11.62-.89-1.63-2.33-2.63-3.95-2.75-1.67-.12-3.5.65-5.13 2.18-3.33 3.1-5.23 8.6-5.23 15.09s-1.71 7.68-2.24 7.84c-1.09.33-2.81-.95-4.28-3.18-2.3-3.49-2.11-10.5 3.75-17.62 2.16-2.63 4.66-3.94 6.48-4.9 1.88-.99 3.82-2.01 2.94-4.07-1.45-3.4-8.19-3.33-14.22-1.77-4.09 1.06-5.92.56-6.17.15-.09-.14.04-.66.75-1.44 2.55-2.81 14.35-10.43 14.47-10.5.36-.23.52-.67.4-1.08a.966.966 0 0 0-.93-.69H178.91a.96.96 0 0 0-.89.59.97.97 0 0 0 .2 1.05c1.17 1.21 4.2 5.12 2.83 7.13-.19.27-.43.42-.78.46-1.75.22-5.14-2.06-6.86-3.55a.958.958 0 0 0-.96-.18c-.33.12-.57.4-.63.75l-6.13 36.06c-.03.19 0 .38.07.55l22.4 51.03c.14.31.43.53.77.57.11.01 11.11 1.4 17.29 4.47 6.15 3.05 12.96 10.86 13.03 10.94.23.27.59.39.93.31.11-.02 11.03-2.32 17.89-.03 5.38 1.79 8.59 6.44 13.91 14.14 1.41 2.04 3.01 4.35 4.81 6.84.19.26.48.4.78.4.14 0 .28-.03.42-.1 6.59-3.17 11.07-8.75 13.31-16.6.97-3.4 6.34-8.28 11.81-9.49 5.64-1.25 27.41-2.39 33.58-.04 5.78 2.2 7.63 5.48 11.69 12.66l.61 1.08c4.49 7.93 7.54 10.05 12.09 8.43 5.7-2.03 4.3-9.52 1.94-17.31-.89-2.93-1.82-5.53-2.64-7.82-2.11-5.87-3.5-9.75-1.96-12.66 2.36-4.45 15.39-25.33 15.52-25.54.07-.11.12-.24.14-.38l3.67-25.9c3.31-1.97 24.58-14.67 27.36-16.95 3.62-2.96 3.42-7.11 1.66-14.73Z" class="cls-4"/><path d="M446.33 135.16c-.87-1.97-14.85-11.07-20.82-14.89a.966.966 0 0 0-1.19.12c-.91.87-18.45 16.6-21.25 19.11l-24.48-5.71c-.57-1.37-2.25-5.37-3.24-7.26-1.31-2.51-3.01-2.99-7.09-4.16l-.49-.14c-1.36-.39-2.45-.81-3.41-1.18-2.15-.83-3.84-1.49-5.31.07-.7.75-1 1.57-.87 2.44.03.23.1.46.19.7-3.79-1.84-5.15-2.06-7.21-2.06-1.65 0-2.94.81-3.36 2.12-.38 1.16-.07 2.92 1.95 4.39.91.67 1.78 1.17 2.55 1.55-.19.14-.37.3-.53.48-.4.47-.83 1.3-.6 2.56.55 2.94 1.63 7.16 2.73 9.47 1.31 2.75 9.28 5.28 16.82 4.4 2 .99 15 7.4 24.04 11.41 3.97 1.76 7.57 2.41 10.73 2.41 6.27 0 10.78-2.56 12.88-4.05 4.82-3.43 27.44-20.44 27.67-20.61.36-.27.48-.75.3-1.16Z" class="cls-3"/><path d="M368.77 138.12c.04-.18.02-.37-.05-.55-.1-.95-.29-1.8-.42-2.39l-.1-.45c-.05-.22-.1-.44-.15-.65-.39-1.72-.79-3.05-1.85-3.85.21-.07.39-.2.52-.39a.958.958 0 0 0-.3-1.33l-37.63-23.93a.958.958 0 0 0-1.33.3.958.958 0 0 0 .3 1.33l29.67 18.87c-.08.32 0 .75.62 1.18.76.53 1.07 1.23.84 1.94-.22.69-.87 1.17-1.59 1.17-.06 0-.12 0-.18.02-.98.02-1.67.03-1.75.04-.53.01-.95.46-.94.99s.46.95.99.94c.02 0 1.13-.03 2.61-.05l5.34.05c1.64.08 2.1.48 2.56 2.24-4.83.94-13.23 1.01-13.32 1.01-.53 0-.96.44-.96.97s.44.96.97.96c.38 0 8.75-.07 13.75-1.06l.03.14c.15.66.25 1.26.32 1.79-3 1.29-10.16 1.75-12.85 1.83a.97.97 0 0 0-.94.99c.01.52.44.94.96.94h.03c.39-.01 8.58-.25 12.89-1.73-.14 2.06-1.16 2.66-2.32 2.92-3.53.82-7.23 1.02-7.27 1.02-.53.03-.94.48-.91 1.02.03.51.45.91.96.91h.05c.16 0 3.9-.22 7.6-1.07 3.45-.8 3.98-3.66 3.82-6.1Z"/><path d="M460.98 293.9c-1.41-13.6-8.26-18.75-9.38-19.51l-24.54-29.86a.957.957 0 0 0-1.13-.27.96.96 0 0 0-.57 1.02c.12.86 11.66 85.76 11.8 89.63.14 3.68-.03 6.29-3.44 8.88-3.57 2.71-11.73 7.15-11.81 7.19-.47.25-.64.83-.39 1.3l3.34 6.32c.17.32.5.51.85.51.08 0 .16 0 .23-.03l14.65-3.67c.16-.04.3-.12.42-.23l17.67-16.34c.17-.16.28-.37.3-.6.14-1.23 3.44-30.2 1.98-44.35Z" class="cls-3"/><path d="M515.7 92.37c-1.96-2.05-5.41-4.31-11.11-4.23 7.28-8.43 10.35-18.03 8.46-26.65-1.37-6.23-5.17-10.99-10.43-13.06-9.1-3.59-18.71-1.03-22.73.37.2-.99.27-2.2-.15-3.32-.44-1.15-1.29-2.01-2.55-2.53-1.51-.63-3.38-.42-5.4.61-2.96 1.5-6.83 5.21-8.85 10.97-.66-.96-1.48-1.76-2.63-1.92-1.35-.19-2.78.57-4.38 2.31-4.07 4.43-5.34 15.79-1.02 22.73.28.45.88.59 1.33.31l23.14 37.01c-.24.15-.41.39-.45.69-.07.53.31 1.01.84 1.08l27.86 3.51h.12c.15 0 .3-.04.44-.11.38-.2 9.45-4.94 11.04-14.63.85-5.13-.44-9.93-3.53-13.16Z"/><path d="M493.43 83.48c-1.21-1.43-3.52-1.81-7.07-1.14-3.34.63-3.98-.78-4.19-1.24-.87-1.93.12-4.68 3.55-9.81.25-.38.21-.87-.1-1.2-3.08-3.24-6.95-5.81-10.9-7.25-3.73-1.36-7.26-1.6-9.7-.66-6.54 2.52-7.43 8.46-8.01 12.39l-.02.1c-4.41 3.35-7.1 9.64-6.58 15.46.39 4.35 2.49 7.64 5.92 9.26 2.02.95 4.13 1.32 6.2 1.32.1 0 .2 0 .3-.01l-2.47 7.54c-1.3-.19-3.99-.55-7.03-.81a.97.97 0 0 0-.71.23c-.2.17-.32.41-.34.66-.37 4.97-.81 14.23.38 20.36.06.31.27.57.56.7.12.05.26.08.39.08.18 0 .35-.05.51-.14 11.86-7.32 24.53-14.63 33.07-19.47.36-.2.55-.61.47-1.02s-.4-.72-.81-.78c-1.09-.15-1.95-.46-2.77-.99-1.24-.8-2.18-2.65-2.51-4.95-.45-3.11.27-6.31 1.82-8.27 1.49.56 3.09.7 4.62.35 2.55-.59 4.6-2.48 5.6-5.19.91-2.43.84-4.29-.18-5.51Z" class="cls-3"/><path d="M460.53 290.77c-2.04-11.27-7.91-15.69-8.94-16.39l-24.54-29.86a.971.971 0 0 0-1.13-.27c-.4.17-.63.59-.57 1.01l4.56 33.78c.05.34.27.63.58.76l28.71 12.03c.12.05.25.07.37.07.22 0 .43-.07.6-.21.28-.22.41-.58.35-.93ZM473.9 96.91c-3.99 2.35-9.65 1.99-9.71 1.99a.943.943 0 0 0-.98.66l-3.1 9.44c-.14.41.02.86.38 1.1.16.11.35.16.53.16.23 0 .45-.08.63-.24l13.36-11.56a.96.96 0 0 0 .15-1.29.96.96 0 0 0-1.27-.27ZM456.94 80.54a3.06 3.06 0 0 0 1.09 3.03l1.36 1.08a.974.974 0 0 0 1.36-.15.978.978 0 0 0-.15-1.36l-1.36-1.08c-.34-.27-.5-.69-.41-1.12.09-.43.4-.76.84-.88 2.94-.78 5.12-2 6.47-3.62a.966.966 0 0 0-1.48-1.24c-1.08 1.29-2.97 2.32-5.49 2.99-1.14.3-1.99 1.2-2.23 2.35ZM473.53 76.09c-1.57-.59-3.55-.04-4.82 1.35a.964.964 0 0 0 1.42 1.3c.74-.8 1.88-1.16 2.72-.85.99.37 1.22 1.56 1.24 2.49.01.53.44.94.97.94h.02c.53-.01.96-.45.94-.99-.05-2.12-.96-3.67-2.49-4.25ZM457.43 74.92c.84-.53 1.53-.49 1.9-.28.4.22.47.66.46.98-.01.53.41.98.94.99h.02c.52 0 .95-.42.96-.94.03-1.19-.49-2.17-1.44-2.71-1.11-.63-2.56-.51-3.89.33-.45.29-.58.88-.3 1.33s.88.58 1.33.3ZM461.22 90.23c2.32-.03 4.62-1.21 6.17-3.15a.978.978 0 0 0-.15-1.36.978.978 0 0 0-1.36.15c-1.19 1.49-2.94 2.4-4.68 2.42-1.29.01-2.41-.48-3.17-1.38a.966.966 0 0 0-1.48 1.24c1.12 1.34 2.75 2.07 4.59 2.07h.09ZM457.84 70.02c.13 0 .27-.03.39-.08 1.2-.54 2.43-.87 4.87-.85.52 0 .97-.42.97-.96 0-.53-.42-.97-.96-.97-2.78-.02-4.28.39-5.68 1.02-.49.22-.7.79-.49 1.28.16.36.51.57.88.57ZM473.5 69.84a.97.97 0 0 0-1.24.57.97.97 0 0 0 .57 1.24c.03.01 2.78 1.05 4.96 3.9a.966.966 0 0 0 1.36.18c.42-.32.5-.93.18-1.35-2.54-3.32-5.7-4.49-5.83-4.54ZM490.61 85.86c-2.78-.46-4.99.35-6.54 2.39a.968.968 0 0 0 .18 1.35.966.966 0 0 0 1.36-.18c1.11-1.45 2.64-1.99 4.7-1.65a.97.97 0 0 0 1.11-.8.963.963 0 0 0-.8-1.11Z"/><path d="M417.13 213.97c-3.9 19.55-8.09 60.17-8.09 60.17s80.04 3.55 118.92-2.23c-11.43-27.85-30.6-70.4-30.6-70.4l-13.14-33.52 17.64-26.43 6.23 4.73s2.16-12.93 13.1-21.29c-9.35-8.61-14.92-13.75-22.26-15.17-5.87-1.14-9.35-.44-12.21-.84-8.15 4.62-21.06 12.05-33.11 19.49-1.16-5.96-.75-14.93-.36-20.1-2.54-.21-5.33-.35-7.78-.26-5.78.23-11.36 4.23-20.48 12.97l7.09 9.76s-5.52 8.01-7.22 13.4c-1.71 5.39-1.58 9.32-.53 11.69 0 0 1.84 4.86 6.3 11.3-6.81 17.17-8.31 20.75-13.5 46.75Z" style="fill:#fff"/><path d="M461.6 276.17c-28.06 0-52.17-1.04-52.61-1.06-.27-.01-.51-.13-.69-.33s-.26-.47-.23-.73c.04-.41 4.24-40.89 8.11-60.26l.95.19-.95-.19c5.13-25.67 6.68-29.59 13.23-46.11l.13-.33c-4.15-6.08-5.95-10.63-6.11-11.05-1.28-2.91-1.1-7.3.5-12.35 1.49-4.69 5.67-11.14 6.97-13.09l-6.69-9.21a.976.976 0 0 1 .11-1.27c8.76-8.39 14.72-12.98 21.11-13.23 2.18-.09 4.84 0 7.9.26.53.04.92.51.88 1.03-.34 4.51-.74 12.59.11 18.46 11.53-7.08 23.65-14.07 31.91-18.76.19-.1.4-.15.61-.12 1 .14 2.12.14 3.42.13 2.26 0 5.07-.02 8.84.71 7.59 1.47 13.27 6.7 22.68 15.36l.05.05c.21.19.32.47.31.75-.01.29-.15.55-.38.72-10.51 8.03-12.71 20.56-12.73 20.68a.965.965 0 0 1-1.54.61l-5.41-4.11-16.79 25.16 12.95 33.05c.17.38 19.3 42.85 30.6 70.39.11.27.09.59-.05.84-.15.26-.4.43-.7.48-17.43 2.59-43.32 3.3-66.5 3.3Zm-51.5-2.95c9.36.38 80.13 3.02 116.49-2.09-11.34-27.53-29.93-68.81-30.12-69.23l-13.16-33.56a.943.943 0 0 1 .1-.89l17.64-26.43c.15-.22.38-.37.64-.42.26-.04.53.02.74.18l5.03 3.81c.9-3.61 3.91-12.84 12.24-19.66-8.7-8-14.11-12.84-20.96-14.17-3.58-.69-6.29-.69-8.46-.68-1.24 0-2.33 0-3.37-.11-8.54 4.84-21.06 12.07-32.8 19.31-.27.17-.6.19-.89.06a.972.972 0 0 1-.56-.7c-1.12-5.76-.79-14.27-.44-19.4-2.58-.19-4.84-.25-6.71-.18-5.03.2-9.94 3.28-19.24 12.12l6.59 9.07c.24.33.25.78.01 1.12-.05.08-5.46 7.96-7.1 13.14-1.98 6.23-1.2 9.57-.56 11.01 0 .02.01.03.02.05.02.05 1.86 4.84 6.2 11.09.18.27.22.61.1.91l-.32.81c-6.5 16.38-8.04 20.28-13.13 45.77-3.51 17.56-7.29 52.63-7.97 59.06ZM440.38 118.72l-8.3 12.12"/><path d="M432.07 131.8a.964.964 0 0 1-.8-1.51l8.31-12.12a.964.964 0 1 1 1.59 1.09l-8.31 12.12c-.19.27-.49.42-.8.42ZM502.28 140.58l-6.74-5.77a.98.98 0 0 0-1.06-.13c-.35.18-.56.54-.53.93l1.04 14.29a.96.96 0 0 0 .97.89c.32 0 .62-.16.8-.43l5.71-8.52c.27-.41.2-.95-.17-1.27Z"/><path d="m488.52 178.95-4.3-10.97s-29.62-5-53.59-.76c-1.58 3.97-2.87 7.22-3.99 10.18 8.58-1.6 31.78-4.65 61.87 1.55Z" class="cls-4"/><path d="M488.52 179.92c-.06 0-.13 0-.19-.02-29.91-6.16-52.97-3.13-61.5-1.54a.98.98 0 0 1-.92-.33.956.956 0 0 1-.16-.96c1.05-2.77 2.27-5.85 3.68-9.41l.31-.79c.12-.31.4-.54.73-.6 23.86-4.21 53.62.71 53.92.76.33.06.61.28.74.6l4.3 10.97c.13.33.07.7-.16.97-.19.22-.46.34-.74.34Zm-36.04-5.65c9.73 0 21.45.84 34.49 3.39l-3.45-8.8c-4.08-.63-30.51-4.46-52.19-.77l-.11.29c-1.14 2.88-2.16 5.45-3.06 7.79 5.04-.85 13.45-1.89 24.33-1.89Z" class="cls-4"/><path d="M458.5 337.28a.954.954 0 0 0-.99.04c-3.87 2.51-9.58 5.47-14.17 7.84-3.24 1.68-6.03 3.12-7.57 4.09-7.02 4.39-10.12 3.32-12.92 1.73a.967.967 0 0 0-.96 0c-4.56 2.67-7.94 4.28-11.3 5.83-3.54 1.64-3.63 5.67-3.18 7.57.1.44.49.74.94.74h25.98c7.21 0 12.43-5.24 14.93-8.42l.4 7.5c.03.51.45.91.96.91h6.16c.46 0 .85-.32.95-.77.05-.22 1.13-5.63 1.27-26.24a.96.96 0 0 0-.5-.85Z" class="cls-2"/><path d="M636.84 365.14H63.16a.97.97 0 0 1 0-1.94h573.68a.97.97 0 0 1 0 1.94ZM173.62 72.6h-.32c-.8 0-1.34-.11-1.64-.32-.3-.21-.45-.58-.45-1.11 0-.49.13-.85.38-1.08.25-.23.63-.35 1.13-.35h4.97c1.07 0 1.76.1 2.05.31.29.21.44.58.44 1.12s-.17.9-.52 1.11c-.35.21-1 .32-1.97.32h-.86v10.91c0 1.47.07 2.54.21 3.21.14.67.37 1.28.69 1.84.46.81 1.11 1.44 1.94 1.89.83.45 1.74.68 2.75.68 1.89 0 3.27-.57 4.14-1.71.87-1.14 1.3-2.99 1.3-5.53V72.61h-1.05c-1.03 0-1.72-.1-2.07-.31-.35-.21-.52-.58-.52-1.12s.14-.92.42-1.12c.28-.21.85-.31 1.73-.31h5.34c.48 0 .84.12 1.08.36s.37.6.37 1.07c0 .53-.14.9-.43 1.11-.29.21-.82.32-1.58.32h-.28v11.72c0 3.22-.72 5.64-2.16 7.25-1.44 1.61-3.61 2.42-6.5 2.42-2.61 0-4.7-.81-6.26-2.42-1.56-1.61-2.34-3.78-2.34-6.52V72.6ZM197.89 90.07c0-1.04.36-1.88 1.08-2.55.72-.66 1.66-1 2.82-1s2.13.33 2.85.98c.72.65 1.07 1.51 1.07 2.57s-.36 1.92-1.08 2.57c-.72.65-1.67.98-2.84.98s-2.11-.33-2.83-.98-1.07-1.51-1.07-2.57ZM218.8 92.64c-.07.6-.22 1.01-.46 1.24-.24.23-.62.35-1.13.35-.56 0-.97-.16-1.24-.49-.27-.33-.43-.85-.47-1.58l-.26-4.62v-.36c0-.64.12-1.09.37-1.35.25-.27.65-.4 1.22-.4.8 0 1.37.57 1.71 1.71.16.57.31 1 .46 1.29.46.93 1.2 1.65 2.2 2.15 1 .5 2.2.76 3.59.76 1.71 0 3.1-.4 4.17-1.21 1.07-.81 1.6-1.84 1.6-3.1 0-1.05-.33-1.89-.99-2.53-.66-.64-1.62-1.05-2.88-1.23l-2.95-.4c-2.75-.38-4.75-1.11-6.01-2.17-1.26-1.06-1.89-2.55-1.89-4.48 0-2.03.84-3.73 2.52-5.11 1.68-1.38 3.77-2.07 6.28-2.07.73 0 1.5.1 2.31.29.81.19 1.72.49 2.75.91.03-.38.13-.65.32-.8.19-.15.5-.22.96-.22.58 0 .99.09 1.21.26.23.17.36.58.42 1.23l.28 4.16v.2c0 .46-.13.83-.4 1.08-.27.26-.64.39-1.11.39-.7 0-1.25-.49-1.63-1.47-.19-.56-.37-.98-.56-1.25-.44-.66-1.07-1.17-1.89-1.53-.82-.36-1.76-.54-2.81-.54-1.61 0-2.91.4-3.91 1.19-1 .8-1.5 1.84-1.5 3.12 0 1.01.37 1.8 1.12 2.39.75.58 1.89.98 3.43 1.19l3.18.4c2.31.31 4.05 1.01 5.21 2.12 1.17 1.11 1.75 2.6 1.75 4.49 0 2.23-.83 4.02-2.49 5.36-1.66 1.35-3.87 2.02-6.65 2.02-.96 0-1.9-.11-2.85-.34-.94-.23-1.94-.58-3-1.05ZM241.09 90.07c0-1.04.36-1.88 1.08-2.55.72-.66 1.66-1 2.82-1s2.13.33 2.85.98c.72.65 1.07 1.51 1.07 2.57s-.36 1.92-1.08 2.57c-.72.65-1.67.98-2.84.98s-2.11-.33-2.83-.98-1.07-1.51-1.07-2.57ZM267.18 72.6h-2.91c-.81 0-1.38-.11-1.7-.33-.33-.22-.49-.59-.49-1.1 0-.54.14-.92.43-1.12.29-.21 1.06-.31 2.34-.31h5.67c.73 0 1.22.1 1.48.29.26.19.49.55.71 1.06l7.78 19.44h.34c.72 0 1.21.1 1.47.3.27.2.4.56.4 1.07 0 .54-.13.92-.38 1.12-.25.21-.72.31-1.41.31h-5.41c-1.01 0-1.66-.1-1.94-.31-.29-.21-.43-.58-.43-1.12 0-.5.16-.86.47-1.06.31-.21.9-.31 1.76-.31h1.85l-1.93-4.74h-10.11l-1.71 4.74h1.93c.88 0 1.47.1 1.79.31.32.21.48.56.48 1.06 0 .54-.14.92-.43 1.12-.29.21-.91.31-1.88.31h-5.23c-.85 0-1.41-.1-1.69-.31s-.42-.58-.42-1.12.14-.88.42-1.07c.28-.2.82-.3 1.61-.3h.38l6.77-17.93Zm-1.01 10.55h8.14l-4.28-10.55-3.86 10.55ZM289.19 90.07c0-1.04.36-1.88 1.08-2.55.72-.66 1.66-1 2.82-1s2.13.33 2.85.98c.72.65 1.07 1.51 1.07 2.57s-.36 1.92-1.08 2.57c-.72.65-1.67.98-2.84.98s-2.11-.33-2.83-.98-1.07-1.51-1.07-2.57Z"/><path d="M458.51 121.71c-3.68-1.2-7.82-.1-11.08 2.97-3.03 2.85-4.55 6.73-3.79 9.65.39 1.51 1.55 3.47 4.82 4.29.89.22 1.78.33 2.67.33 5.69 0 11.03-4.28 12.36-8.87 1.11-3.85-.75-6.98-4.98-8.36Z" class="cls-4"/><path d="m454.37 127.87-.05-.05c-.01-.01-.02-.03-.03-.04a.219.219 0 0 0-.05-.03c-.05-.04-.1-.08-.16-.11a.405.405 0 0 0-.09-.05c-.06-.03-.13-.04-.19-.05-.03 0-.06-.02-.09-.02h-.28c-.02 0-.03.01-.05.02-.08.02-.15.05-.22.09 0 0-.02 0-.03.01-9.59 5.68-21.11 13.82-21.58 20.36-.13 1.78.59 3.35 2.08 4.54.87.7 1.8 1.06 2.77 1.06.27 0 .55-.03.83-.08 4.24-.85 8.44-8.39 13.69-18.07-1.08 5.63-1.75 13.02 1.13 16.37 1.07 1.25 2.5 1.87 4.28 1.87.41 0 .83-.03 1.27-.1 2.94-.44 4.86-1.75 5.7-3.89 2.8-7.15-8.44-21.24-8.92-21.84Zm-17.53 23.76c-.7.14-1.34-.04-2.01-.58-1-.8-1.44-1.75-1.36-2.9.29-4.03 6.64-10.14 17.56-16.97-.43.78-.85 1.56-1.26 2.32-4.85 8.96-9.44 17.43-12.94 18.13Zm24.65-2.63c-.58 1.47-1.94 2.35-4.18 2.68-1.69.25-2.93-.12-3.79-1.12-3.08-3.6-1.02-14.36.5-19.99 3.46 4.67 9.24 13.91 7.47 18.43ZM419.72 275s-.1 0-.15-.01a.963.963 0 0 1-.81-1.1l5.2-33.66c.08-.53.58-.89 1.1-.81.53.08.89.57.81 1.1l-5.2 33.66c-.07.48-.48.82-.95.82ZM467.71 254.65c-.31 0-.61-.14-.79-.41l-34.59-49.76c-.3-.44-.2-1.04.24-1.34.44-.3 1.04-.2 1.34.24l34.59 49.76a.961.961 0 0 1-.79 1.51Z"/><path d="M541.8 145.68c-4.35-7.11-8.05-10.49-16.97-18.65l-.24-.22c-.89-.81-1.74-1.59-2.58-2.37a.964.964 0 0 0-1.15-.12c-12.3 7.32-13.68 21.28-13.73 21.88-.03.34.12.66.39.86l9.88 7.3c-3.51 2.92-15.82 13.15-20.84 17.12-7.12 5.63-9.08 7.47-7.14 12.43l4.58 11.73c.12.35 1.22 3.41 3.7 3.55h.26c1.86 0 4.36-1.04 7.83-3.26.13-.08.29-.16.47-.26 1.01-.54 2.9-1.55 3.46-3.8.53-2.09-.19-4.68-2.18-7.9 3.56-2.24 7.84-4.84 11.98-7.36 8.64-5.26 16.8-10.23 19.12-12.2 3.99-3.39 7.61-11.44 3.15-18.73Z" class="cls-3"/><path d="m522.52 151.8-6.34 3.83M516.18 156.6c-.33 0-.65-.17-.83-.47a.965.965 0 0 1 .33-1.33l6.34-3.83a.965.965 0 0 1 1.33.33c.28.46.13 1.05-.33 1.33l-6.34 3.83c-.16.09-.33.14-.5.14ZM501.65 194.37c-.28 0-.55-.12-.74-.35a.966.966 0 0 1 .12-1.36c3.18-2.66 5-6.12 5-9.5a.97.97 0 0 1 1.94 0c0 3.95-2.08 7.95-5.69 10.98-.18.15-.4.22-.62.22Z"/><path d="M396.34 32.86H139.8c-5.75 0-10.44 4.68-10.44 10.44s4.68 10.44 10.44 10.44h256.54c.53 0 .97-.43.97-.97V33.83a.97.97 0 0 0-.97-.97Z" class="cls-2"/><path d="M396.34 32.86c-5.75 0-10.44 4.68-10.44 10.44s4.68 10.44 10.44 10.44 10.44-4.68 10.44-10.44-4.68-10.44-10.44-10.44Z" class="cls-4"/></svg>