<svg xmlns="http://www.w3.org/2000/svg" id="Life_Events_" data-name="Life Events" viewBox="0 0 948 488"><defs><style>.cls-2{fill:#c76e38}.cls-3{fill:#2862a4}.cls-4{fill:#e4b9e4}.cls-5{fill:#4ebee5}.cls-6{fill:#f3f9fc}.cls-8{fill:#f8a258}</style></defs><path d="M928.11 446.24H19.89c-.85 0-1.53-.69-1.53-1.53s.69-1.53 1.53-1.53h908.22c.85 0 1.53.69 1.53 1.53s-.69 1.53-1.53 1.53Z"/><path d="M215.74 104.03c-63.54 25.04-78.01 126.14-45.7 264.92l303.39 80.61V131.89c-74.5 0-194.15-52.89-257.69-27.86Z" class="cls-4"/><path d="M473.43 451.1c-.13 0-.26-.02-.39-.05l-303.39-80.61c-.55-.15-.97-.58-1.1-1.14-16.1-69.17-20.64-129.93-13.11-175.71 3.83-23.27 10.73-42.77 20.53-57.95 10.09-15.65 23.29-26.76 39.22-33.04l.56 1.43-.56-1.43c38.85-15.31 98.04-1.9 155.28 11.06 37.89 8.58 73.68 16.69 102.98 16.69.85 0 1.53.69 1.53 1.53v317.67c0 .48-.22.93-.6 1.22-.27.21-.6.32-.94.32Zm-302.11-83.39 300.57 79.86V133.42c-29.34-.27-64.71-8.28-102.12-16.76-56.79-12.86-115.5-26.16-153.48-11.2-15.32 6.04-28.02 16.75-37.76 31.84-9.57 14.83-16.32 33.93-20.08 56.78-7.43 45.19-2.98 105.21 12.87 173.62Z" class="cls-4"/><path d="M731.69 104.03C668.15 78.99 548.5 131.89 474 131.89v317.67l303.39-80.61c32.31-138.78 17.84-239.89-45.7-264.92Z" class="cls-4"/><path d="M474 451.1c-.33 0-.66-.11-.94-.32-.38-.29-.6-.74-.6-1.22V131.89c0-.85.69-1.53 1.53-1.53 29.29 0 65.08-8.11 102.98-16.69 57.24-12.96 116.43-26.37 155.28-11.06 15.93 6.28 29.12 17.39 39.22 33.04 9.8 15.18 16.7 34.68 20.53 57.95 7.53 45.78 2.99 106.54-13.11 175.71-.13.55-.55.99-1.1 1.14L474.4 451.06c-.13.03-.26.05-.39.05Zm1.53-317.68v314.15l300.57-79.86c15.85-68.41 20.3-128.43 12.87-173.62-3.76-22.85-10.51-41.96-20.08-56.78-9.74-15.1-22.45-25.81-37.76-31.84-37.97-14.96-96.69-1.66-153.48 11.2-37.41 8.47-72.78 16.48-102.12 16.76Zm301.86 235.53Z" class="cls-4"/><path d="M583.82 134.41a1668.665 1668.665 0 0 1-36.18-71.37c-.24-.49-.71-.82-1.26-.87-30.4-2.55-61.01-6.82-90.99-12.7-.22-.04-.46-.04-.68.02-20.8 5.35-42.07 9.95-63.2 13.67-.55.1-1 .48-1.18 1.01-8.11 23.34-16.7 46.85-25.54 69.89-.1.26-.13.54-.08.81 4.27 24.92 8.95 50.12 13.92 74.91.09.43.35.8.73 1.02 30.54 17.76 62.28 34.07 94.36 48.47.2.09.41.13.63.13.17 0 .34-.03.51-.09 30.75-10.75 61.39-23.2 91.07-36.98.43-.2.75-.6.85-1.06 6.19-28.4 11.98-57.28 17.2-85.84.06-.34 0-.7-.16-1Z" class="cls-8"/><path d="M394.09 175.27c-.54 0-1.07-.29-1.35-.8a1.53 1.53 0 0 1 .61-2.08c16.69-9.12 40.25-8.27 49.61-7.47.19.02.33.03.42.03.32 0 .62.09.89.27.7.48.87 1.44.38 2.14-.51.74-1.18.68-1.95.61-9.08-.77-31.92-1.61-47.88 7.11-.23.13-.49.19-.73.19ZM553.91 175.27c-.25 0-.5-.06-.73-.19-15.95-8.72-38.79-7.88-47.87-7.11-.78.07-1.45.12-1.96-.61-.48-.7-.31-1.65.39-2.14.27-.19.58-.27.89-.27.08 0 .22-.02.42-.03 9.36-.79 32.92-1.64 49.6 7.48a1.533 1.533 0 0 1-.74 2.88Z"/><path d="M370.48 178.15a1.69 1.69 0 0 0-.2-.66c-4.82-8.26-13.47-13.05-21.54-11.92-7.12 1-12.41 6.32-14.52 14.61-4.85 18.55 10.66 58.59 11.62 59.59.29.31.7.47 1.11.47a1.38 1.38 0 0 0 .86-.27c8.5-5.85 17.03-11.93 25.36-18.04.43-.32.67-.83.62-1.36-1.17-14.04-2.29-28.31-3.33-42.41Z" class="cls-8"/><path d="M586.25 89.46c-4.55-11.58-13.62-28.11-31.02-41.07-28.78-21.57-56.11-32.52-81.23-32.54-25.12.01-52.45 10.96-81.23 32.54-17.4 12.97-26.47 29.49-31.02 41.07-5.65 14.37-7.51 29.14-5.12 40.52 2.26 10.94 5.06 23.52 7.02 32.16 1.08 4.77 2.03 8.89 2.71 11.82.34 1.46.61 2.63.8 3.43.07.31.14.6.22.87-.57 2.48-2.56 11.96-1.5 19.84 1.3 9.58 3.68 18.83 12.25 21.66a1.505 1.505 0 0 0 1.82-.72c4.81-8.75 5.6-17.74 2.64-30.05-1.86-7.72-5.18-23.63-6.78-44.46 12.41-2.93 18.4-9.1 19.95-20.43.74-5.41 1.16-9.74 1.57-13.92.49-5.03.95-9.77 1.92-16.1 1.31-8.31 9.11-14.47 13.11-17.12 2.86 7.83 15.77 33.66 61.65 34.13 45.82-.48 58.74-26.26 61.62-34.13 4 2.65 11.81 8.81 13.11 17.12.97 6.34 1.43 11.09 1.92 16.12.41 4.18.83 8.51 1.57 13.91 1.55 11.33 7.54 17.5 19.95 20.43-1.6 20.82-4.92 36.74-6.78 44.46-2.96 12.31-2.17 21.3 2.64 30.05.36.65 1.13.95 1.83.72 8.56-2.82 10.95-12.08 12.25-21.66 1.06-7.86-.91-17.28-1.5-19.84.07-.26.14-.55.22-.87a2053.565 2053.565 0 0 0 3.51-15.25c1.96-8.63 4.76-21.22 7.02-32.15 2.39-11.38.53-26.15-5.12-40.52Z" class="cls-2"/><path d="M613.79 180.18c-2.11-8.29-7.4-13.62-14.52-14.61-8.06-1.13-16.72 3.66-21.54 11.92-.12.2-.19.43-.2.66-1.04 14.07-2.16 28.34-3.33 42.41-.04.53.19 1.05.62 1.36 8.33 6.12 16.86 12.19 25.36 18.04.16.11.35.19.54.24.11.02.22.03.33.03.41 0 .82-.17 1.11-.47.96-1 16.47-41.03 11.63-59.58Z" class="cls-8"/><path d="m593.03 186.96-.88-10.07a1.52 1.52 0 0 0-1.25-1.37c-33.29-6.23-61.86-3.83-79.97-.73-10.91 1.85-17.16 6.11-20.48 9.36-1.77 1.73-2.99 3.44-3.77 4.81-2.17-1.95-6.39-4.75-12.67-4.75h-.02c-6.28 0-10.5 2.8-12.67 4.75-.78-1.37-2.01-3.08-3.77-4.81-3.32-3.25-9.57-7.51-20.47-9.36-18.11-3.11-46.68-5.5-79.97.73-.68.13-1.19.69-1.25 1.37l-.74 8.38q-.23 2.57.23 3.07c.24.27.58.44.94.49 2.07.26 4.15.52 6.23.77-.79 4.58-2.07 16.44 2.77 28.67 3.24 8.91 22.35 15.91 39.85 18.9 7.64 1.31 14.32 1.87 20.07 1.87 14.67 0 23.35-3.65 26.87-7.93 10.03-11.74 10.8-26.04 10.83-29.74.79-1.24 4.11-5.69 11.08-5.69h.04c6.93 0 10.29 4.46 11.09 5.7.02 3.55.76 17.95 10.81 29.71 3.53 4.3 12.21 7.96 26.89 7.96 5.75 0 12.42-.56 20.06-1.87 17.5-2.99 36.61-9.99 39.84-18.86 4.83-12.22 3.58-24.05 2.78-28.71 2.08-.25 4.15-.51 6.23-.77.77-.1 1.34-.75 1.34-1.52 0 0 0-.12-.02-.35Zm-87.68 38.38c-4.24-5.12-10.87-15.46-7.67-27.18 2.15-7.85 15.4-10.09 28.79-11.71 6.4-.73 14.05-1.14 21.19-1.14 8.98 0 17.13.65 20.91 2.11 5.85 2.32 8.53 6.48 5.88 21.82-1.68 9.97-22.97 16.03-36.89 17.66-.92.12-1.86.25-2.83.38-10.55 1.43-25.01 3.38-29.38-1.94Zm-62.7 0c-4.37 5.32-18.81 3.36-29.36 1.94-.97-.13-1.92-.26-2.86-.38-13.9-1.63-35.18-7.69-36.87-17.67-2.65-15.33.02-19.5 5.87-21.81 3.79-1.47 11.95-2.12 20.93-2.12 7.13 0 14.77.41 21.17 1.14 13.39 1.62 26.65 3.86 28.8 11.71 3.21 11.72-3.43 22.06-7.66 27.18Z" class="cls-3"/><path d="M421.29 194.27c-2.03-.11-3.98.57-5.49 1.94a7.746 7.746 0 0 0-2.54 5.44c-.19 4.31 3.11 8.01 7.36 8.25.15 0 .29.01.44.01 1.89 0 3.68-.69 5.09-1.98 1.54-1.41 2.43-3.35 2.51-5.47.14-4.28-3.16-7.96-7.37-8.19ZM532.2 196.21a7.525 7.525 0 0 0-5.49-1.94c-4.21.24-7.51 3.91-7.36 8.19.07 2.12.96 4.06 2.5 5.47a7.53 7.53 0 0 0 5.09 1.98c.15 0 .29 0 .44-.01 4.25-.24 7.55-3.94 7.36-8.25-.09-2.11-1-4.04-2.54-5.44Z"/><path d="M542.5 36.55c-.26-2.16-.7-5.46-1.36-8.95-1.74-9.21-4.05-15.1-6.88-17.51-1.72-1.48-3.73-2.08-5.96-1.8-5.04.65-10.24 5.92-13.92 10.55-.06-5.38-.87-13.54-4.85-17.25-.04-.04-.09-.08-.13-.11-4.59-3.41-29.03-.04-54.88 9.55-24.12 8.95-57.75 26.11-81.04 57-.36.48-.41 1.13-.12 1.65.27.5.79.8 1.35.8h.1c56.25-3.82 112.43-13.38 166.97-28.43.34-.09.64-.3.85-.59q.39-.55-.13-4.91Z" class="cls-2"/><path d="M462.18 109.71c-2.67 0-5.41-.22-8.21-.66a1.539 1.539 0 1 1 .48-3.04c12.69 2.01 23.97-.76 33.52-8.25 9.71-7.61 17.15-19.68 22.12-35.89a1.54 1.54 0 0 1 1.92-1.02 1.54 1.54 0 0 1 1.02 1.92c-9.27 30.24-27.55 46.93-50.85 46.93ZM501.08 107.1c-.66 0-1.26-.43-1.47-1.09a1.54 1.54 0 0 1 1.02-1.92c21.94-6.7 37.73-27.69 36.71-48.83-.04-.85.61-1.57 1.46-1.61.82-.04 1.57.61 1.61 1.46 1.08 22.5-15.64 44.82-38.88 51.91-.15.05-.3.07-.45.07Z"/><path d="M721.49 228c-10.66-6.49-24.33-9.31-24.91-9.42-.44-.09-.89.02-1.24.29-1.76 1.36-7.39 4.87-10.05 3.16-1.44-.93-3.39-4.4-.35-17.26 4.48-18.91-1.76-28.92-9.09-32-6.27-2.63-13.24-.36-16.93 5.51-1.52 2.41-2.97 4.74-4.41 7.03-4.78 7.64-9.3 14.85-15.24 23.99-.25.39-.32.87-.18 1.3l21.31 66.58a1.522 1.522 0 0 0 1.46 1.06c.27 0 .53-.07.77-.21.15-.09 15.19-8.86 30.04-18.8 27.47-18.39 30.69-24.72 30.72-27.89.01-1.4-.67-2.59-1.92-3.35Z" class="cls-8"/><path d="M240.62 444.67h-88.1c-45.76 0-69.38-55.15-51.97-93.63 21.8-48.18 81.91-68.52 148.18-99.63 80.04-37.57-8.11 193.26-8.11 193.26Z" class="cls-6"/><path d="M240.62 446.21h-88.1c-19.38 0-36.22-9.57-47.43-26.93-13.24-20.53-15.58-47.56-5.94-68.86 18.76-41.47 65.49-62.55 119.6-86.97 9.53-4.3 19.38-8.74 29.33-13.41 12.1-5.68 21.32-5.69 27.41-.04 30.01 27.87-30.83 188.41-33.44 195.23-.23.59-.8.99-1.43.99Zm23.41-197.37c-4.11 0-9 1.32-14.64 3.97-9.97 4.68-19.83 9.13-29.37 13.43-53.54 24.16-99.78 45.03-118.06 85.44-9.22 20.38-6.97 46.26 5.72 65.93 10.62 16.46 26.55 25.53 44.85 25.53h87.04c2.46-6.56 16.63-44.79 27.6-85.36 15.74-58.22 17.9-94.72 6.25-105.54-2.44-2.27-5.58-3.4-9.38-3.4Z"/><path d="M250.27 416.55c-.03-.56-.37-1.06-.88-1.3s-1.1-.19-1.56.15c-.38.28-38.63 27.74-77.8 27.74-.85 0-1.53.69-1.53 1.53s.69 1.53 1.53 1.53h80.29a1.535 1.535 0 0 0 1.54-1.62l-1.59-28.03Z"/><path d="M707.38 444.67h88.1c45.76 0 69.38-55.15 51.97-93.63-21.8-48.18-81.91-68.52-148.18-99.63-80.04-37.57 8.11 193.26 8.11 193.26Z" class="cls-6"/><path d="M795.47 446.21h-88.1c-.64 0-1.21-.39-1.43-.99-2.6-6.82-63.45-167.36-33.44-195.23 6.09-5.65 15.31-5.64 27.41.04 9.95 4.67 19.8 9.11 29.33 13.41 54.11 24.42 100.84 45.5 119.6 86.97 9.64 21.3 7.31 48.33-5.94 68.86-11.21 17.37-28.05 26.93-47.43 26.93Zm-87.03-3.07h87.04c18.3 0 34.23-9.07 44.85-25.53 12.69-19.67 14.94-45.55 5.72-65.93-18.28-40.41-64.52-61.28-118.06-85.44-9.54-4.3-19.4-8.75-29.37-13.43-10.86-5.1-18.94-5.29-24.02-.57-11.66 10.82-9.5 47.32 6.25 105.54 10.97 40.57 25.13 78.8 27.6 85.36Z"/><path d="M777.96 443.14c-39.17 0-77.41-27.46-77.8-27.74a1.56 1.56 0 0 0-1.56-.15c-.51.24-.84.74-.88 1.3l-1.6 28.03c-.02.42.13.83.42 1.14.29.31.69.48 1.12.48h80.29c.85 0 1.53-.69 1.53-1.53s-.69-1.53-1.53-1.53Z"/><path d="M307.27 209.3c-5.94-9.13-10.46-16.35-15.24-23.99-1.44-2.3-2.89-4.62-4.41-7.03-3.69-5.87-10.65-8.14-16.93-5.51-7.33 3.07-13.57 13.09-9.09 32 3.05 12.86 1.09 16.34-.35 17.26-2.66 1.71-8.28-1.8-10.05-3.16-.35-.27-.81-.38-1.24-.29-.58.12-14.24 2.93-24.91 9.42-1.25.76-1.94 1.95-1.92 3.35.03 3.17 3.25 9.51 30.72 27.89 14.86 9.94 29.89 18.71 30.04 18.8.24.14.5.21.77.21.19 0 .37-.03.55-.1.43-.17.77-.52.91-.96l21.31-66.58c.14-.44.08-.92-.18-1.3Z" class="cls-8"/><path d="M671.96 201.12s-20.84 8.92-83.19 11.67c-62.66 2.76-98.88 4.63-114.77 29.24-15.89-24.61-52.11-26.48-114.77-29.24-62.35-2.75-83.19-11.67-83.19-11.67l-25.66 10.43 173.23 50.48L474 251.65l50.39 10.38 173.23-50.48-25.66-10.43Z" class="cls-6"/><path d="M524.39 263.56c-.1 0-.21-.01-.31-.03L474 253.22l-50.08 10.31c-.24.05-.5.04-.74-.03l-173.23-50.47c-.63-.18-1.07-.74-1.1-1.39-.03-.65.35-1.25.95-1.5l25.66-10.43c.38-.15.8-.15 1.18.01.21.09 21.46 8.85 82.65 11.55 60.48 2.67 97.59 4.31 114.7 28.05 17.11-23.75 54.22-25.38 114.7-28.05 61.19-2.7 82.44-11.46 82.65-11.55.37-.16.8-.16 1.18-.01l25.66 10.43a1.534 1.534 0 0 1-.15 2.89L524.8 263.5c-.14.04-.28.06-.43.06ZM474 250.11c.1 0 .21.01.31.03l50.02 10.3 168.62-49.13-21-8.53c-3.89 1.49-26.18 9.04-83.11 11.55-61.06 2.69-97.91 4.32-113.55 28.54-.28.44-.77.7-1.29.7s-1.01-.26-1.29-.7c-15.64-24.22-52.49-25.85-113.55-28.54-56.93-2.51-79.22-10.06-83.11-11.55l-21 8.53 168.62 49.13 50.02-10.3c.1-.02.21-.03.31-.03Z"/><path d="M508.61 240.48c-.79-.07-1.49.42-1.65 1.19-.02.08-2.75 8.44-32.96 8.44s-32.93-8.36-32.94-8.38c-.16-.77-.88-1.3-1.66-1.22-.78.08-1.38.74-1.38 1.53v234.63c0 .1.01.2.03.3.22 1.11 3.14 10.85 35.95 10.85s35.73-9.74 35.95-10.85c.02-.1.03-.2.03-.3V242.04c0-.79-.59-1.48-1.37-1.55Z" class="cls-5"/><path d="M707.95 208.87a1.54 1.54 0 0 0-1.24-.35L508.2 240.51c-.74.12-1.29.76-1.29 1.51v234.63a1.543 1.543 0 0 0 1.53 1.54c.08 0 .16 0 .24-.02l198.51-31.99c.74-.12 1.29-.76 1.29-1.51V210.04c0-.45-.2-.88-.54-1.17Z" class="cls-5"/><path d="m531.24 272.39-2.28.37c-.74.12-1.29.76-1.29 1.51v19.03a1.543 1.543 0 0 0 1.53 1.54c.08 0 .16 0 .24-.02l2.28-.37c.74-.12 1.29-.76 1.29-1.52V273.9a1.543 1.543 0 0 0-1.78-1.52ZM554.65 268.62l-2.17.35c-.74.12-1.29.76-1.29 1.52v11.71l-8.14-10.87a1.53 1.53 0 0 0-1.47-.6l-2.9.47c-.74.12-1.29.76-1.29 1.51v19.03a1.543 1.543 0 0 0 1.54 1.54c.08 0 .16 0 .24-.02l2.17-.35c.74-.12 1.29-.76 1.29-1.51v-11.71l8.14 10.87c.34.46.91.69 1.47.59l2.9-.47c.74-.12 1.29-.76 1.29-1.51v-19.03a1.543 1.543 0 0 0-1.78-1.52ZM568.08 274.73c-2.87-.7-2.87-1.11-2.87-1.47 0-1.09 1.25-1.78 2.48-1.97 1.16-.19 2.35 0 3.12.47.38.23.83.29 1.26.16.42-.13.77-.43.95-.84l.98-2.17c.34-.75.03-1.62-.7-2-1.67-.86-3.81-1.13-6.05-.77-4.44.71-7.42 3.73-7.42 7.51 0 4.74 4.08 5.71 6.54 6.29 2.61.62 2.98.92 2.98 1.69 0 1.76-2.09 2.24-2.73 2.34-1.56.25-3.33-.08-4.75-.88a1.532 1.532 0 0 0-2.29 1.34v2.58c0 .62.38 1.19.96 1.42 1.42.58 3 .87 4.59.87.66 0 1.33-.05 1.98-.16 4.62-.75 7.61-3.85 7.61-7.92 0-4.89-4.33-5.94-6.65-6.51ZM594.36 262.22l-2.28.37c-.74.12-1.29.76-1.29 1.51v12.75c0 1.53-.47 3.37-4.16 3.96-1.47.24-2.57.12-3.11-.34-.39-.33-.59-.96-.59-1.85v-12.75a1.543 1.543 0 0 0-1.78-1.52l-2.28.37c-.74.12-1.29.76-1.29 1.52v12.83c0 2.45.73 4.31 2.17 5.54 1.21 1.03 2.85 1.54 4.92 1.54.76 0 1.58-.07 2.45-.21 5.82-.94 9.02-4.27 9.02-9.37v-12.83a1.543 1.543 0 0 0-1.78-1.52ZM614.37 272.83c-.31-.55-.62-1.09-1-1.56 1.46-1.44 2.27-3.35 2.27-5.46 0-2.47-1.01-3.84-1.85-4.56-1.42-1.21-3.46-1.6-6.08-1.18l-6.27 1.01c-.74.12-1.29.76-1.29 1.51v19.03a1.543 1.543 0 0 0 1.54 1.54c.08 0 .16 0 .24-.02l2.28-.37c.74-.12 1.29-.76 1.29-1.52v-6.58l2.18-.35c1.2-.19 1.27-.2 2.23 1.61l2.39 4.48c.31.58.95.9 1.6.79l2.52-.41c.49-.08.92-.39 1.13-.84s.21-.98-.03-1.41l-3.15-5.72Zm-8.87-7.2 2.7-.43c.84-.13 1.5-.07 1.79.18.24.2.28.63.28.95 0 1.95-1.35 2.58-2.48 2.76l-2.29.37v-3.83ZM631.29 257.48c-.27-.67-.96-1.06-1.67-.94l-2.77.45c-.55.09-1.01.47-1.2 1l-7.19 20.19c-.18.51-.08 1.08.27 1.5.29.35.73.55 1.18.55.08 0 .16 0 .24-.02l2.33-.38c.56-.09 1.02-.48 1.21-1.01l1.79-5.18 6-.97 1.62 4.21c.26.68.95 1.08 1.68.97l2.5-.4c.46-.07.86-.35 1.09-.76.23-.41.26-.89.09-1.33l-7.16-17.88Zm-3.89 10.56 1.08-3.14 1.07 2.79-2.15.35ZM657.97 251.97l-2.17.35c-.74.12-1.29.76-1.29 1.51v11.71l-8.14-10.87a1.53 1.53 0 0 0-1.47-.6l-2.9.47c-.74.12-1.29.76-1.29 1.52v19.03a1.543 1.543 0 0 0 1.53 1.54c.08 0 .16 0 .24-.02l2.17-.35c.74-.12 1.29-.76 1.29-1.51v-11.71l8.14 10.87c.34.46.91.69 1.47.6l2.9-.47c.74-.12 1.29-.76 1.29-1.52v-19.03a1.543 1.543 0 0 0-1.78-1.52ZM681.42 265.17c-.2-.39-.56-.67-.99-.78s-.88-.03-1.24.22c-1.68 1.14-3.23 1.82-4.75 2.06-1.41.23-3.37.26-4.71-.88-1.02-.87-1.54-2.32-1.54-4.31 0-3.94 2.45-6.78 6.39-7.42 1.53-.25 3.18-.12 4.91.39.74.22 1.52-.15 1.83-.86l.98-2.23a1.532 1.532 0 0 0-1.03-2.1c-2.34-.59-4.82-.71-7.16-.33-6.88 1.11-11.33 6.18-11.33 12.92 0 3.48 1.1 6.25 3.17 8.01 1.64 1.39 3.79 2.11 6.31 2.11.77 0 1.58-.07 2.42-.2 2.44-.39 4.83-1.37 7.12-2.89.65-.43.87-1.29.51-1.98l-.9-1.73ZM697.01 250.88c.51-.08.95-.42 1.16-.89l1-2.26c.23-.51.16-1.11-.19-1.56-.34-.45-.9-.67-1.46-.58l-11.34 1.83c-.74.12-1.29.76-1.29 1.51v19.03a1.543 1.543 0 0 0 1.54 1.54c.08 0 .16 0 .24-.02l10.93-1.76c.74-.12 1.29-.76 1.29-1.52v-2.09a1.543 1.543 0 0 0-1.78-1.52l-6.88 1.11v-3.36l6.2-1c.74-.12 1.29-.76 1.29-1.52v-2.12a1.543 1.543 0 0 0-1.78-1.52l-5.71.92v-3.15l6.77-1.09Z"/><path d="M547.05 387.35c-3.45.56-5.17.83-8.62 1.39V325.4c-5.46 4.42-8.19 6.62-13.64 11.04l-3.38-6.96 15.49-12.47c4.06-.65 6.09-.98 10.16-1.64v71.98Z" class="cls-6"/><path d="M538.43 390.27a1.543 1.543 0 0 1-1.54-1.54v-60.12l-11.14 9.02c-.36.29-.84.41-1.3.31-.46-.1-.84-.41-1.05-.83l-3.39-6.96c-.31-.64-.14-1.42.42-1.87l15.49-12.47c.21-.17.46-.28.72-.32l10.16-1.64a1.54 1.54 0 0 1 1.78 1.52v71.98c0 .75-.55 1.4-1.29 1.51l-8.62 1.39c-.08.01-.16.02-.24.02Zm8.62-2.92Zm-8.62-63.49a1.527 1.527 0 0 1 1.53 1.53v61.54l5.55-.89v-68.87l-7.98 1.29-14.22 11.45 2.01 4.12 12.14-9.83c.28-.23.62-.34.97-.34Z"/><path d="M559.36 347.94c0-11.47 2.62-21.04 7.41-28.1 4.8-7.06 11.77-11.6 20.49-13.01 17.44-2.81 27.8 9.2 27.8 32.13 0 12.39-2.59 22.68-7.36 30.22s-11.72 12.34-20.44 13.74-15.7-1.15-20.49-7.15c-4.8-6-7.41-15.45-7.41-27.84Zm46.99-7.57c0-18.51-6.67-27.51-19.08-25.51-12.41 2-19.08 13.15-19.08 31.66 0 20.46 6.67 30.29 19.08 28.29 12.41-2 19.08-13.97 19.08-34.44Z" class="cls-6"/><path d="M582.75 384.84c-7.03 0-12.9-2.75-17.17-8.1-5.07-6.34-7.75-16.3-7.75-28.8 0-11.55 2.65-21.57 7.68-28.96 5.09-7.49 12.53-12.21 21.52-13.66 7.76-1.25 14.51.34 19.5 4.59 6.59 5.62 10.08 15.66 10.08 29.05 0 12.45-2.63 23.18-7.6 31.04-5.06 7.99-12.49 12.99-21.49 14.44-1.64.26-3.23.4-4.76.4Zm9.37-76.88c-1.47 0-3.01.13-4.61.39-8.13 1.31-14.87 5.58-19.47 12.35-4.68 6.88-7.15 16.3-7.15 27.23 0 11.8 2.45 21.09 7.08 26.88 4.54 5.68 10.95 7.9 19.05 6.59 8.11-1.31 14.82-5.82 19.39-13.05 4.66-7.37 7.12-17.53 7.12-29.4 0-12.46-3.11-21.7-9-26.71-3.35-2.85-7.51-4.28-12.41-4.28Zm-7.91 68.63c-3.7 0-6.88-1.12-9.5-3.35-5.35-4.56-8.06-13.55-8.06-26.72 0-19.28 7.23-31.06 20.37-33.18 5.38-.87 9.85.18 13.3 3.11 5.02 4.27 7.56 12.32 7.56 23.91 0 27-11.08 34.45-20.37 35.95-1.14.18-2.24.28-3.29.28Zm6.3-60.47c-.95 0-1.95.08-3 .25-8.12 1.31-17.79 7.6-17.79 30.15 0 12.06 2.42 20.5 6.98 24.39 2.65 2.26 6.12 3.06 10.32 2.38 14.71-2.37 17.79-19.21 17.79-32.92 0-10.5-2.24-17.96-6.48-21.58-2.09-1.78-4.71-2.67-7.82-2.67Z"/><path d="M644.4 371.66c-3.45.56-5.17.83-8.62 1.39v-63.34c-5.46 4.42-8.19 6.62-13.64 11.04l-3.39-6.96c6.2-4.99 9.3-7.48 15.49-12.47 4.06-.65 6.09-.98 10.16-1.64v71.98Z" class="cls-6"/><path d="M635.79 374.58a1.543 1.543 0 0 1-1.54-1.54v-60.12l-11.15 9.02c-.36.29-.84.41-1.3.3-.46-.1-.84-.41-1.05-.83l-3.39-6.96c-.31-.64-.14-1.42.42-1.87l15.49-12.47c.21-.17.45-.28.72-.32l10.16-1.64a1.543 1.543 0 0 1 1.78 1.52v71.98c0 .75-.55 1.4-1.29 1.51l-8.62 1.39c-.08.01-.16.02-.24.02Zm8.61-2.92Zm-8.61-63.49a1.527 1.527 0 0 1 1.53 1.53v61.54l5.55-.89v-68.87l-7.98 1.29-14.22 11.45 2.01 4.12 12.14-9.83c.28-.23.62-.34.97-.34Z"/><path d="M695.07 364.58c-.46-.06-6.16-.77-15.72-1.06-9.55-.29-22.95-.15-38.8 1.5-17.74 1.85-33.86 5.1-48.33 9.14-14.47 4.04-27.28 8.88-38.39 13.9-11.12 5.02-20.54 10.21-28.22 14.97-.36.22-.63.56-.77.95-.14.39-.12.79.04 1.13 3.76 7.64 5.64 11.46 9.4 19.09.25.5.78.74 1.34.65.21-.03.41-.11.61-.23 12.27-7.6 24.8-13.57 37.03-18.26 12.23-4.69 24.15-8.09 35.21-10.55s21.26-3.99 30.04-4.92c28.9-3.07 49.27-.58 49.47-.56.78.1 1.6-.48 1.82-1.3 2.51-9.11 3.77-13.67 6.29-22.78.23-.82-.22-1.57-1.01-1.67Z" class="cls-3"/><path d="M661.35 433.48c-14.31 2.31-26.23 4.23-37.36 6.02-11.13 1.79-21.46 3.46-32.59 5.25-11.13 1.79-23.05 3.71-37.36 6.02-.82.13-1.48-.42-1.48-1.24s.66-1.59 1.48-1.72c14.31-2.31 26.23-4.23 37.36-6.02 11.13-1.79 21.46-3.46 32.59-5.25 11.13-1.79 23.05-3.71 37.36-6.02.82-.13 1.48.42 1.48 1.24s-.66 1.59-1.48 1.72Z"/><path d="m439.8 240.52-198.51-31.99c-.45-.07-.9.05-1.24.35-.34.29-.54.72-.54 1.17v234.63c0 .75.55 1.4 1.29 1.51l198.51 31.99a1.5 1.5 0 0 0 1.23-.35c.34-.29.54-.72.54-1.17V242.03c0-.75-.55-1.4-1.29-1.51Z" class="cls-5"/><path d="M423.55 423.81c-10.97-1.77-19.2-3.09-27.43-4.42s-16.46-2.65-27.43-4.42c-.83-.13-1.51.43-1.51 1.27v30.45c0 .84.68 1.62 1.51 1.76 10.97 1.77 19.2 3.09 27.43 4.42s16.46 2.65 27.43 4.42c.83.13 1.51-.43 1.51-1.27v-30.45c0-.84-.68-1.62-1.51-1.76Z" style="fill:#fff"/><path d="M423.55 344.77c-16.65-2.68-31.22-5.03-44.75-7.21-13.53-2.18-26.02-4.19-38.51-6.21-12.49-2.01-24.98-4.02-38.51-6.21s-28.1-4.53-44.75-7.21c-.83-.13-1.51-.92-1.51-1.76v-80.35c0-.84.68-1.41 1.51-1.27 16.65 2.68 31.22 5.03 44.75 7.21s26.02 4.19 38.51 6.21c12.49 2.01 24.98 4.03 38.51 6.21 13.53 2.18 28.1 4.53 44.75 7.21.83.13 1.51.92 1.51 1.76v80.35c0 .84-.68 1.41-1.51 1.27Zm-164.99-29.61c16.35 2.63 30.65 4.94 43.93 7.08 13.28 2.14 25.54 4.12 37.81 6.09 12.26 1.98 24.52 3.95 37.81 6.09 13.28 2.14 27.59 4.45 43.93 7.08v-77.32c-16.35-2.63-30.65-4.94-43.93-7.08-13.28-2.14-25.54-4.12-37.81-6.09-12.26-1.98-24.52-3.95-37.81-6.09-13.28-2.14-27.59-4.45-43.93-7.08v77.32ZM509.98 426.76V242.03c0-.85-.69-1.53-1.53-1.53s-1.53.69-1.53 1.53v184.49c-.43 1-4.61 8.33-32.91 8.33s-32.56-7.49-32.91-8.31V242.03c0-.85-.69-1.53-1.53-1.53s-1.53.69-1.53 1.53v234.62c0 .85.69 1.53 1.53 1.53s1.53-.69 1.53-1.53v-45.5c3.9 3.09 12.77 6.76 32.91 6.76s29.01-3.67 32.91-6.76v45.5c0 .85.69 1.53 1.53 1.53s1.53-.69 1.53-1.53v-49.89Z"/><path d="m237.04 309.13-4.88-9.46c-.31-.6-.97-.92-1.63-.81-5.59.99-13.29 5.26-16.98 12.32-2.45 4.69-2.57 9.69-.36 14.47 5.63 12.16 12.08 22.2 17.25 26.85 1.5 1.35 3.94 2.4 6.66 2.4 1.32 0 2.71-.25 4.08-.83 2.64-1.12 7.11-4.45 7.43-14.07.49-14.78-10.36-29.3-11.56-30.87Z" class="cls-8"/><path d="M241.91 316.71c-.22-.39-.59-.67-1.03-.76l-20.74-4.29a1.53 1.53 0 0 0-1.65.76c-.33.59-.23 1.32.24 1.81 2.56 2.66 5.25 5.81 8.09 9.15 6.83 8.02 13.89 16.32 19.82 18.04a1.533 1.533 0 0 0 1.33-.23c.38-.28.62-.72.63-1.19.29-8.77-3.48-17.5-6.69-23.29Z"/><path d="M262.97 313.89c-5.88-16.9-24.53-28.57-26.42-29.72l-9.67-8.59c-.5-.45-1.24-.52-1.81-.17-5.83 3.51-12.6 11.61-13.68 21.1-.71 6.26 1.29 11.88 5.8 16.25 11.64 11.27 23.27 19.79 31.11 22.78 1.09.41 2.37.64 3.74.64 2.93 0 6.23-1.04 8.74-3.48 2.44-2.37 5.96-7.96 2.19-18.81Z" class="cls-8"/><path d="M263.75 316.48c-.24-.92-.5-1.77-.78-2.59-1.91-5.48-5.38-10.98-10.31-16.35-.29-.32-.7-.5-1.13-.5h-22.12c-.64 0-1.21.4-1.44 1-.22.6-.06 1.27.43 1.69 12.86 11.25 23.35 18.79 32.13 18.79.66 0 1.3-.04 1.94-.13.44-.06.82-.3 1.07-.67s.32-.82.21-1.24Z"/><path d="M262.97 290.84c-5.88-16.9-24.53-28.57-26.42-29.72l-9.67-8.59c-.5-.45-1.24-.52-1.81-.17-5.83 3.51-12.6 11.61-13.68 21.1-.71 6.26 1.29 11.88 5.8 16.25 11.64 11.27 23.27 19.79 31.11 22.78 1.09.41 2.37.64 3.74.64 2.93 0 6.23-1.04 8.74-3.48 2.44-2.37 5.96-7.96 2.19-18.81Z" class="cls-8"/><path d="M262.97 290.84c-1.78-5.1-4.91-10.24-9.33-15.26-.31-.35-.74-.55-1.22-.52l-19.03.81c-.64.03-1.19.44-1.39 1.05-.2.6 0 1.27.48 1.67 8.41 6.9 20.23 14.42 27.55 14.42.64 0 1.24-.06 1.8-.18.43-.09.8-.36 1.02-.75.22-.38.26-.84.11-1.26Z"/><path d="M262.93 268.4c-5.74-13.59-25.54-26.79-26.39-27.35-.56-.37-1.26-.32-1.77.06l-8-10.58a1.532 1.532 0 0 0-1.72-2.53c-5.83 3.51-12.6 11.61-13.68 21.1-.71 6.26 1.29 11.88 5.8 16.25 11.64 11.27 23.27 19.79 31.11 22.78 1.33.51 2.92.79 4.58.79 3.24 0 6.77-1.07 9.22-3.61 2.53-2.62 4.73-7.69.83-16.91Z" class="cls-8"/><path d="M254.47 291.14c-10.36 0-24.82-12.13-39.99-25.74-.63-.57-.68-1.54-.12-2.17.56-.63 1.54-.68 2.17-.12 12.55 11.27 31.52 28.3 41.01 24.39.78-.32 1.68.05 2 .83.32.78-.05 1.68-.83 2-1.32.54-2.74.8-4.24.8ZM253.9 315.24c-10.98 0-26.5-13.94-40.39-26.41-.63-.57-.68-1.54-.12-2.17.56-.63 1.54-.68 2.17-.12 14.32 12.85 32.13 28.86 41.3 25.08.78-.32 1.68.05 2 .83.32.78-.05 1.68-.83 2-1.28.53-2.67.78-4.13.78ZM246.75 337.85c-.22 0-.44-.05-.65-.14-10.1-4.73-16.18-10.3-32.28-25.72-.61-.59-.63-1.56-.05-2.17.59-.61 1.56-.63 2.17-.05 15.83 15.16 21.8 20.64 31.46 25.16a1.531 1.531 0 0 1-.65 2.92Z"/><path d="M733 311.18c-3.69-7.06-11.39-11.34-16.98-12.32a1.53 1.53 0 0 0-1.63.81l-4.88 9.46c-1.2 1.57-12.05 16.09-11.56 30.87.32 9.62 4.79 12.94 7.43 14.07 1.37.58 2.76.83 4.08.83 2.71 0 5.15-1.05 6.66-2.4 5.18-4.65 11.63-14.69 17.25-26.85 2.21-4.78 2.09-9.78-.36-14.47Z" class="cls-8"/><path d="M728.06 312.42c-.32-.59-.99-.9-1.65-.76l-20.74 4.29c-.44.09-.81.37-1.03.76-3.21 5.79-6.98 14.53-6.69 23.29.02.47.25.91.63 1.19a1.533 1.533 0 0 0 1.33.23c5.93-1.72 12.99-10.02 19.82-18.04 2.84-3.34 5.53-6.49 8.09-9.15.47-.48.56-1.22.24-1.81Z"/><path d="M735.16 296.5c-1.08-9.49-7.85-17.59-13.68-21.1-.57-.35-1.31-.28-1.81.17l-9.67 8.59c-1.89 1.15-20.55 12.83-26.42 29.72-3.77 10.85-.25 16.44 2.19 18.81 2.51 2.44 5.82 3.48 8.74 3.48 1.37 0 2.65-.23 3.74-.64 7.84-2.99 19.47-11.5 31.11-22.78 4.51-4.37 6.52-9.99 5.8-16.25Z" class="cls-8"/><path d="M718.57 298.04c-.22-.6-.8-1-1.44-1h-22.12c-.43 0-.84.18-1.13.5-4.93 5.37-8.4 10.87-10.31 16.35-.28.82-.54 1.67-.78 2.59-.11.43-.04.88.21 1.24.24.37.63.61 1.07.67.69.09 1.41.15 2.15.15 6.34 0 14.81-3.84 31.92-18.8.48-.42.65-1.1.43-1.69Z"/><path d="M735.16 273.45c-1.08-9.49-7.85-17.59-13.68-21.1-.57-.35-1.31-.28-1.81.17l-9.67 8.59c-1.89 1.15-20.55 12.82-26.42 29.72-3.77 10.85-.25 16.44 2.19 18.81 2.51 2.44 5.82 3.48 8.74 3.48 1.37 0 2.65-.23 3.74-.64 7.84-2.99 19.47-11.5 31.11-22.78 4.51-4.37 6.52-9.99 5.8-16.25Z" class="cls-8"/><path d="M714.55 276.92c-.2-.6-.75-1.02-1.39-1.05l-19.03-.81c-.49-.03-.91.17-1.22.52-4.41 5.02-7.55 10.15-9.33 15.26-.15.42-.1.88.11 1.26.22.38.59.66 1.02.75.56.12 1.16.18 1.8.18 7.32 0 19.15-7.52 27.55-14.42.49-.4.68-1.07.48-1.67Z"/><path d="M735.16 249.1c-1.08-9.49-7.85-17.59-13.68-21.1a1.54 1.54 0 0 0-2.11.52c-.41.68-.23 1.54.39 2.01l-8 10.58c-.51-.38-1.21-.43-1.77-.06-.84.56-20.65 13.76-26.39 27.35-3.9 9.23-1.7 14.29.83 16.91 2.45 2.54 5.98 3.61 9.22 3.61 1.66 0 3.25-.28 4.58-.79 7.84-2.99 19.47-11.5 31.11-22.78 4.51-4.37 6.52-9.99 5.8-16.25Z" class="cls-8"/><path d="M692.07 291.14c-1.5 0-2.92-.26-4.24-.8a1.526 1.526 0 0 1-.83-2c.32-.78 1.22-1.16 2-.83 9.49 3.92 28.46-13.12 41.01-24.39.63-.57 1.6-.51 2.17.12.57.63.51 1.6-.12 2.17-15.17 13.61-29.63 25.74-39.99 25.74ZM692.65 315.24c-1.46 0-2.84-.25-4.13-.78-.78-.32-1.16-1.22-.83-2s1.22-1.16 2-.83c9.17 3.78 26.98-12.22 41.3-25.08.63-.57 1.6-.51 2.17.12.57.63.51 1.6-.12 2.17-13.89 12.47-29.41 26.41-40.39 26.41ZM699.8 337.85a1.531 1.531 0 0 1-.65-2.92c9.67-4.52 15.63-10 31.46-25.16.61-.59 1.58-.57 2.17.05.59.61.56 1.58-.05 2.17-16.1 15.42-22.18 21-32.28 25.72-.21.1-.43.14-.65.14Z"/><path d="M0 0h948v488H0z" style="fill:none"/></svg>