<svg xmlns="http://www.w3.org/2000/svg" xmlns:xlink="http://www.w3.org/1999/xlink" width="1536" height="600" viewBox="0 0 1536 600">
  <defs>
    <clipPath id="clip-homeowners-101_hero-block-image">
      <rect width="1536" height="600"/>
    </clipPath>
  </defs>
  <g id="homeowners-101_hero-block-image" clip-path="url(#clip-homeowners-101_hero-block-image)">
    <rect width="1536" height="600" fill="#fff"/>
    <g id="hero-homeowners-101" transform="translate(-431.891 -356.564)">
      <rect id="Rectangle_2302" data-name="Rectangle 2302" width="2035.309" height="969.005" transform="translate(0)" fill="#2480fe"/>
      <path id="Path_87349" data-name="Path 87349" d="M696.894,658.75a47.378,47.378,0,0,0-17.286,64.522l13.993,24.24a67.056,67.056,0,0,0-16.961,5.654h367.416c10.12-12.169,13.993-24.89,6.558-37.766l-62.826-45.681c15.7-.608-9.018-13.653-.622-28.268l67.222-116.408a47.253,47.253,0,0,0-81.879-47.194l-1.866,3.378-41.526-71.971a56.155,56.155,0,0,0-76.494-20.495h0a56.155,56.155,0,0,0-20.494,76.494l6.572,11.307A88.607,88.607,0,0,0,722.8,451.5h0A88.578,88.578,0,0,0,690.477,572.15l48.551,84.1a47.194,47.194,0,0,0-42.134,2.5Z" transform="translate(278.358 157.635)" fill="#3b8dfe"/>
      <path id="Path_87350" data-name="Path 87350" d="M.11,667.245v66.2H1964.593V501.82S485.715,651.6.11,667.245Z" transform="translate(0.045 207.457)" fill="#3b8dfe"/>
      <path id="Path_87351" data-name="Path 87351" d="M1031.254,655.848a47.378,47.378,0,0,0-17.286,64.522l13.993,24.24A67.055,67.055,0,0,0,1011,750.264h367.486c10.12-12.169,13.993-24.89,6.558-37.766l-62.826-45.681c15.7-.608-9.017-13.654-.622-28.268l67.222-116.423a47.249,47.249,0,1,0-81.3-48.169l-.551.947-1.937,3.35-41.526-71.928a56.155,56.155,0,0,0-76.494-20.495h0a56.155,56.155,0,0,0-20.494,76.494l6.572,11.307a88.606,88.606,0,0,0-115.9-25.06h0a88.579,88.579,0,0,0-32.324,120.649l48.551,84.1a47.2,47.2,0,0,0-42.162,2.53Z" transform="translate(416.586 156.424)" fill="#3b8dfe"/>
      <path id="Path_87352" data-name="Path 87352" d="M1545.394,227.923a45.909,45.909,0,0,0-36.749,22.784l-1.88,3.251-40.31-69.822a54.516,54.516,0,0,0-74.246-19.9h0a54.515,54.515,0,0,0-19.9,74.246l6.374,11.039a86.02,86.02,0,0,0-112.536-24.325h0a85.978,85.978,0,0,0-31.377,117.1l47.123,81.624a45.766,45.766,0,0,0-57.667,65.017l13.583,23.519a64.465,64.465,0,0,0-20.212,7.463,65.37,65.37,0,0,0-23.858,89.045l55.123,95.419A65.5,65.5,0,0,0,1223.42,754.8a75.253,75.253,0,0,0,5.654,27.915,65.034,65.034,0,0,0,3,5.908l4.99,8.636a75.39,75.39,0,0,0,61.865,32.268h107.292l-23.589-40.848a65.37,65.37,0,0,0,16.791-84.239l-48.975-84.8c.565-.3,1.145-.551,1.7-.876a45.95,45.95,0,0,0,22.7-43.392,86.557,86.557,0,0,0,65.016,20.607,29.381,29.381,0,0,0,3.59,2.487l30.29,17.484a29.682,29.682,0,0,0,40.409-10.827l31.25-54.176Zm-50.458,222.16-10.219-17.7a46.389,46.389,0,0,0,25.583-8.919Z" transform="translate(489.915 81.81)" fill="#0064dc"/>
      <g id="Group_17485" data-name="Group 17485" transform="translate(372.886)">
        <path id="Path_87353" data-name="Path 87353" d="M583.738,826.679V720.984a71.759,71.759,0,0,0-71.547-71.547h0a71.83,71.83,0,0,0-68.013,49.469V660.886A97.907,97.907,0,0,0,252.195,633.72V422.076A126.444,126.444,0,0,0,126.1,296h0A126.444,126.444,0,0,0,0,422.076v404.6Z" transform="translate(0 122.369)" fill="#0064dc"/>
        <path id="Path_87354" data-name="Path 87354" d="M89.427,718.606a.707.707,0,0,1-.707-.707V435.8a.707.707,0,0,1,1.413,0V717.9A.707.707,0,0,1,89.427,718.606Z" transform="translate(36.678 179.87)" fill="#2480fe"/>
        <path id="Path_87355" data-name="Path 87355" d="M101.6,536.576a.707.707,0,0,1-.594-.325L59.369,471.842a.707.707,0,0,1,1.145-.82h0l41.639,64.423a.707.707,0,0,1-.212.975A.691.691,0,0,1,101.6,536.576Z" transform="translate(24.503 194.623)" fill="#2480fe"/>
        <path id="Path_87356" data-name="Path 87356" d="M245.207,664.382a.707.707,0,0,1-.707-.707V558.857a.707.707,0,1,1,1.413,0V663.675a.707.707,0,0,1-.707.707Z" transform="translate(101.079 230.744)" fill="#2480fe"/>
      </g>
      <path id="Path_87357" data-name="Path 87357" d="M980.672,158.769V153.3c0-28.777,23.236-52.9,52.013-52.3a51.01,51.01,0,0,1,43.137,25.357,22.488,22.488,0,0,0,32.735,6.714l.367-.269a23.336,23.336,0,0,0,9.328-16.028,76.691,76.691,0,0,1,78.218-67.038C1238.238,50.884,1271,86.191,1271,127.985V172.79a30.275,30.275,0,0,0,30.275,30.275h10.29a26.855,26.855,0,0,1,26.855,26.855h0a26.855,26.855,0,0,1-26.855,26.855H936.475A26.855,26.855,0,0,1,909.62,229.92h0a26.855,26.855,0,0,1,26.855-26.855h0a44.2,44.2,0,0,0,44.2-44.2Z" transform="translate(-239.437 265.127)" fill="#3b8dfe"/>
      <path id="Path_87358" data-name="Path 87358" d="M891.772,84.949h0c0-27.349-21.2-50.529-48.466-51.929a51.151,51.151,0,0,0-53.709,48.4V84.1h0a24.509,24.509,0,0,1-24.509,24.509H740.834A20.834,20.834,0,0,0,720,129.443h0a20.834,20.834,0,0,0,20.777,20.89H915.432a20.834,20.834,0,0,0,20.819-20.848h0a20.834,20.834,0,0,0-20.834-20.834h0a23.661,23.661,0,0,1-23.646-23.7Z" transform="translate(551.461 240.233)" fill="#3b8dfe"/>
      <rect id="Rectangle_2303" data-name="Rectangle 2303" width="2035.309" height="969.005" transform="translate(0)" fill="none"/>
      <rect id="Rectangle_2304" data-name="Rectangle 2304" width="232.548" height="450.468" transform="translate(1802.761 459.187)" fill="#0064dc"/>
      <path id="Path_87359" data-name="Path 87359" d="M1290.54,316.91v81.681h24.635V316.91Z" transform="translate(533.521 131.014)" fill="#ffb061"/>
      <path id="Path_87360" data-name="Path 87360" d="M1273.09,332.033v66.557h47.279V316.91H1273.09Z" transform="translate(526.307 131.014)" fill="#ffb061"/>
      <rect id="Rectangle_2305" data-name="Rectangle 2305" width="24.636" height="66.572" transform="translate(1824.061 463.047)" fill="#ffb061"/>
      <rect id="Rectangle_2306" data-name="Rectangle 2306" width="24.636" height="48.777" transform="translate(1799.397 529.59)" fill="#ffd18f"/>
      <rect id="Rectangle_2307" data-name="Rectangle 2307" width="24.636" height="66.572" transform="translate(1799.397 463.047)" fill="#ffd18f"/>
      <rect id="Rectangle_2308" data-name="Rectangle 2308" width="24.636" height="15.152" transform="translate(1824.061 447.924)" fill="#ff8f2f"/>
      <rect id="Rectangle_2309" data-name="Rectangle 2309" width="24.636" height="15.152" transform="translate(1799.397 447.924)" fill="#ffb061"/>
      <rect id="Rectangle_2310" data-name="Rectangle 2310" width="87.448" height="120.112" transform="translate(1841.672 529.59)" fill="#ff8f2f"/>
      <path id="Path_87361" data-name="Path 87361" d="M1384.606,374.7,1317.13,494.458h134.924Z" transform="translate(544.514 154.904)" fill="#ff8f2f"/>
      <rect id="Rectangle_2311" data-name="Rectangle 2311" width="592.261" height="245.863" transform="translate(1391.374 649.363)" fill="#fff"/>
      <rect id="Rectangle_2312" data-name="Rectangle 2312" width="116.564" height="245.863" transform="translate(1618.311 649.363)" fill="#91d8e8"/>
      <path id="Path_87362" data-name="Path 87362" d="M1166.689,374.69H802.482v.014L735.02,494.462H869.93v-.028h296.759Z" transform="translate(303.864 154.9)" fill="#ffb061"/>
      <rect id="Rectangle_2313" data-name="Rectangle 2313" width="64.211" height="133.977" transform="translate(1645.661 712.782)" fill="#3179c9"/>
      <path id="Path_87363" data-name="Path 87363" d="M1085.762,316.91h211.616L1183.9,518.349H972.28Z" transform="translate(401.95 131.014)" fill="#ff8f2f"/>
      <rect id="Rectangle_2314" data-name="Rectangle 2314" width="134.924" height="245.863" transform="translate(1848.697 649.363)" fill="#91d8e8"/>
      <path id="Path_87364" data-name="Path 87364" d="M1375.432,374.7,1307.97,494.458h134.938Z" transform="translate(540.727 154.904)" fill="#91d8e8"/>
      <path id="Path_87365" data-name="Path 87365" d="M1098.323,316.91,984.84,518.349l85.709,13.442,141.256-13.442Z" transform="translate(407.142 131.014)" fill="#fff"/>
      <path id="Path_87366" data-name="Path 87366" d="M1264.186,316.91H1052.57l113.454,201.439h211.644Z" transform="translate(435.142 131.014)" fill="#ff8f2e"/>
      <path id="Path_87367" data-name="Path 87367" d="M1319.593,374.7H1179.68l67.476,119.758h126.8L1441.429,374.7Z" transform="translate(487.691 154.904)" fill="#ffb061"/>
      <path id="Path_87368" data-name="Path 87368" d="M1342.725,659.474a89.207,89.207,0,1,0-178.414,0Z" transform="translate(481.336 235.751)" fill="#20c1b0"/>
      <rect id="Rectangle_2315" data-name="Rectangle 2315" width="78.472" height="182.443" transform="translate(1465.592 712.782)" fill="#ff8f2e"/>
      <rect id="Rectangle_2316" data-name="Rectangle 2316" width="78.472" height="133.977" transform="translate(1876.923 712.782)" fill="#3179c9"/>
      <circle id="Ellipse_1112" data-name="Ellipse 1112" cx="39.222" cy="39.222" r="39.222" transform="translate(1465.607 565.166)" fill="#6bacfb"/>
      <rect id="Rectangle_2317" data-name="Rectangle 2317" width="78.472" height="2.601" transform="translate(1876.923 778.435)" fill="#90d8e8"/>
      <rect id="Rectangle_2318" data-name="Rectangle 2318" width="333.169" height="245.863" transform="translate(1058.177 649.363)" fill="#fff"/>
      <rect id="Rectangle_2319" data-name="Rectangle 2319" width="333.805" height="14.869" transform="translate(1058.177 649.363)" fill="#d7f2f9"/>
      <rect id="Rectangle_2320" data-name="Rectangle 2320" width="263.643" height="182.443" transform="translate(1092.961 712.782)" fill="#ffd18f"/>
      <path id="Path_87369" data-name="Path 87369" d="M1024.99,459.67,887.72,705.193h136.662Z" transform="translate(366.992 190.032)" fill="#91d8e8"/>
      <path id="Path_87370" data-name="Path 87370" d="M887.72,686.669H989.6V504.48Z" transform="translate(366.992 208.557)" fill="#ff8f2f"/>
      <rect id="Rectangle_2321" data-name="Rectangle 2321" width="95.363" height="2.601" transform="translate(1460.179 603.088)" fill="#fff"/>
      <rect id="Rectangle_2322" data-name="Rectangle 2322" width="2.601" height="100.578" transform="translate(1503.514 548.629)" fill="#fff"/>
      <path id="Path_87371" data-name="Path 87371" d="M1046.376,591.188a1.286,1.286,0,0,1-1.286-1.286h0V568.7a1.3,1.3,0,0,1,2.6,0h0v21.2a1.286,1.286,0,0,1-1.286,1.286h0Z" transform="translate(432.05 234.568)" fill="#ffcc8f"/>
      <rect id="Rectangle_2323" data-name="Rectangle 2323" width="2.601" height="77.596" transform="translate(1914.873 702.182)" fill="#90d8e8"/>
      <rect id="Rectangle_2324" data-name="Rectangle 2324" width="263.643" height="2.601" transform="translate(1092.961 848.314)" fill="#ffb061"/>
      <rect id="Rectangle_2325" data-name="Rectangle 2325" width="263.643" height="2.601" transform="translate(1092.961 802.689)" fill="#ffb061"/>
      <rect id="Rectangle_2326" data-name="Rectangle 2326" width="263.643" height="2.601" transform="translate(1092.961 757.064)" fill="#ffb061"/>
      <rect id="Rectangle_2327" data-name="Rectangle 2327" width="2.601" height="182.443" transform="translate(1157.582 712.782)" fill="#ffb061"/>
      <rect id="Rectangle_2328" data-name="Rectangle 2328" width="2.601" height="182.443" transform="translate(1223.489 712.782)" fill="#ffb061"/>
      <rect id="Rectangle_2329" data-name="Rectangle 2329" width="2.601" height="182.443" transform="translate(1289.369 712.782)" fill="#ffb061"/>
      <rect id="Rectangle_2330" data-name="Rectangle 2330" width="113.836" height="14.869" transform="translate(1734.847 649.363)" fill="#d7f2f9"/>
      <path id="Path_87372" data-name="Path 87372" d="M984.84,513.9h17.484l95.363-171.008-8.551-15.222Z" transform="translate(407.142 135.462)" fill="#d7f2f9"/>
      <rect id="Rectangle_2331" data-name="Rectangle 2331" width="64.211" height="2.601" transform="translate(1645.661 778.435)" fill="#90d8e8"/>
      <path id="Path_87373" data-name="Path 87373" d="M1273.09,365.395c0-41.229,24.9-62.034,53.526-76.762s30.247-34.275,39.01-61.568c11.7-36.409,67.929-39.01,67.929,6.954,0,37.992-61.922,53.3-82.939,67.928-17.639,12.2-8.381,63.6-28.268,63.6Z" transform="translate(526.307 82.529)" fill="#fff"/>
      <rect id="Rectangle_2332" data-name="Rectangle 2332" width="2035.309" height="81.144" transform="translate(0 894.419)" fill="#2c4a7a"/>
    </g>
  </g>
</svg>
