<svg xmlns="http://www.w3.org/2000/svg" xmlns:xlink="http://www.w3.org/1999/xlink" width="1536" height="600" viewBox="0 0 1536 600">
  <defs>
    <clipPath id="clip-path">
      <path id="Path_79056" data-name="Path 79056" d="M1087.407,520.846l27.376,98.537H898.554l27.376-98.537Z" transform="translate(-898.554 -520.846)" fill="none"/>
    </clipPath>
    <clipPath id="clip-path-2">
      <path id="Path_79095" data-name="Path 79095" d="M884.148,517.377l-74.314,97.8L616.948,574.616l114.844-80.422Z" transform="translate(-616.948 -494.194)" fill="none"/>
    </clipPath>
    <clipPath id="clip-path-3">
      <path id="Path_79116" data-name="Path 79116" d="M1277.568,495l114.841,80.418-192.886,40.562-74.312-97.8Z" transform="translate(-1125.211 -495.001)" fill="none"/>
    </clipPath>
    <clipPath id="clip-path-4">
      <path id="Path_79138" data-name="Path 79138" d="M999.141,119.583s-35.111-33.725-98.4-3.234-49.433,73.918-49.433,73.918l7.854,79s-5.082,32.339,9.24,60.982,47.585,36.5,85.929,11.55,54.976-45.275,58.21-64.216c9.24-15.246,27.719-42.965,27.719-42.965s14.322-45.275,2.31-80.386S999.141,119.583,999.141,119.583Z" transform="translate(-850.02 -103.588)" fill="none"/>
    </clipPath>
    <clipPath id="clip-life-insurance-types_hero-block-image">
      <rect width="1536" height="600"/>
    </clipPath>
  </defs>
  <g id="life-insurance-types_hero-block-image" clip-path="url(#clip-life-insurance-types_hero-block-image)">
    <rect width="1536" height="600" fill="#fff"/>
    <g id="hero-different-types-life" transform="translate(-199.129 -32.156)" style="isolation: isolate">
      <rect id="Rectangle_1158" data-name="Rectangle 1158" width="1756.395" height="637.525" transform="translate(66.348)" fill="#0a3360"/>
      <rect id="Rectangle_1159" data-name="Rectangle 1159" width="19.403" height="194.829" transform="translate(1230.753 206.503)" fill="#5873a6"/>
      <rect id="Rectangle_1160" data-name="Rectangle 1160" width="9.702" height="194.829" transform="translate(1178.98 206.503)" fill="#5873a6"/>
      <path id="Path_79025" data-name="Path 79025" d="M1045.574,154.714h234.047a28.79,28.79,0,0,1,28.79,28.79v34.761H1045.574V154.714Z" transform="translate(-58.254 -11.762)" fill="#5873a6"/>
      <path id="Path_79026" data-name="Path 79026" d="M1253,223.494l9.721,9.721-.019-9.721Z" transform="translate(-74.024 -16.992)" fill="#2c4a7a"/>
      <g id="Group_791" data-name="Group 791" transform="translate(851.594 479.95)" style="isolation: isolate">
        <g id="Group_790" data-name="Group 790" clip-path="url(#clip-path)">
          <path id="Path_79027" data-name="Path 79027" d="M1031.993,609.822l1.261-2.024h-2.793l1.532,2.024m47.814.6h1.8l-.27-1.372h-1.789q-.163,0-.307.011a2.616,2.616,0,0,0-.268.034,1.719,1.719,0,0,0-.23.058,1.153,1.153,0,0,0-.192.083.766.766,0,0,0-.148.1.462.462,0,0,0-.1.115.366.366,0,0,0-.046.129.428.428,0,0,0,0,.144.522.522,0,0,0,.051.147.594.594,0,0,0,.1.132.85.85,0,0,0,.144.119,1.37,1.37,0,0,0,.193.106,1.745,1.745,0,0,0,.224.084,2.252,2.252,0,0,0,.252.06q.133.024.279.036t.307.012m-20.448,0h1.8l-.2-1.372h-1.789q-.163,0-.309.011a2.736,2.736,0,0,0-.272.034,1.734,1.734,0,0,0-.233.058,1.1,1.1,0,0,0-.193.083.827.827,0,0,0-.154.1.5.5,0,0,0-.1.115.389.389,0,0,0-.053.13.428.428,0,0,0,0,.144.5.5,0,0,0,.043.147.543.543,0,0,0,.089.132.8.8,0,0,0,.138.119,1.3,1.3,0,0,0,.187.106,1.677,1.677,0,0,0,.22.084,2.168,2.168,0,0,0,.249.06q.132.024.277.036t.306.012m11.619-71.031.113.541h-1.881l-.109-.541h1.877m-8.066,0,.1.541h-33.785l-.039-.541h33.726m9.3,5.915.117.562h-1.917l-.113-.562h1.913m-8.221,0,.1.562h-63.3l.01-.562h63.191m9.5,6.146.121.584h-1.954l-.118-.584h1.951m-8.381,0,.106.584h-89.4l.056-.584h89.237m9.711,6.394.126.608h-1.993l-.123-.608h1.99m-8.548,0,.111.608h-56.205l-.006-.608h56.1m9.931,6.65.132.633H1074.3l-.128-.633h2.03m-8.721,0,.115.633H967.126l.075-.633H1067.48m10.163,6.929.137.659H1075.7l-.133-.659h2.072m-8.9,0,.12.659H998.479l.016-.659h70.245m10.4,7.218.143.687h-2.12l-.139-.687h2.116m-9.09,0,.125.687H983.736l.045-.687h86.273m10.657,7.53.149.717h-2.166l-.145-.717h2.162m-9.287,0,.13.717h-46.823l-.036-.717h46.729m10.924,7.868.156.749h-2.214l-.151-.749h2.209m-9.492,0,.136.749H951.971l.112-.749h120.773m10.718,5.892.161.774H926.955l.166-.774h156.452m-.025,5.88,1.161,5.672h-4.7q-.515,0-.979-.032t-.88-.1a7.52,7.52,0,0,1-.779-.161,5.4,5.4,0,0,1-.677-.226,4.452,4.452,0,0,1-.55-.269,2.533,2.533,0,0,1-.414-.3,1.467,1.467,0,0,1-.276-.323,1.013,1.013,0,0,1-.136-.35.749.749,0,0,1,0-.285.9.9,0,0,1,.112-.28,1.459,1.459,0,0,1,.22-.275,2.562,2.562,0,0,1,.324-.271,1.775,1.775,0,0,1,.231-.13,2.911,2.911,0,0,1,.289-.118q.159-.055.346-.1t.4-.092q.218-.044.458-.077t.5-.055q.261-.022.544-.033t.587-.011h1.784l-.431-2.184h2.854m-20.2,0,.856,5.673h-4.7q-.518,0-.982-.032t-.874-.1a7.224,7.224,0,0,1-.768-.161,5.163,5.163,0,0,1-.664-.226,4.2,4.2,0,0,1-.536-.269,2.346,2.346,0,0,1-.4-.3,1.366,1.366,0,0,1-.258-.323.961.961,0,0,1-.117-.35.773.773,0,0,1,.008-.246.906.906,0,0,1,.086-.243,1.278,1.278,0,0,1,.165-.24,2.013,2.013,0,0,1,.243-.237,1.877,1.877,0,0,1,.333-.215,3.149,3.149,0,0,1,.436-.182,5.212,5.212,0,0,1,.538-.148q.294-.065.638-.113l-3.18-2.293h3.342l2.949,2.184h.34l-.313-2.184h2.853m-17.616,1.745-3,3.927h-3.316l-.487-5.672h2.853l.3,3.179,2.425-3.179h2.121l3.083,3.179-.361-3.179h2.853l.688,5.672h-3.325l-3.827-3.927m-56.153,2.864-.048,1.063h-9.386l.074-1.063h3.24l.281-4.61H986.6l-.246,4.61h3.231m83.315-4.61,1,5.691h-7.2l-.167-1.063h4.295l-.208-1.23h-3.77l-.166-1.05h3.759l-.221-1.31h-4.255l-.163-1.037h7.1m-35.377,0-3.668,5.691h-3.526l-4.408-5.691h3.06l.705.942h4.216l.589-.942h3.032m-20.575,2.089.1,3.6h-2.9l-.112-5.691h2.853l4.92,3.562-.142-3.562h2.853l.271,5.691h-2.9l-4.948-3.6m-5.417-2.089.074,5.691h-7.2l.006-1.063h4.3l-.007-1.23h-3.779l0-1.05h3.769l-.007-1.31h-4.255l.006-1.037h7.1M994.281,607.9l-.118,3.6h-2.906l.23-5.691h2.863l4.7,3.562.072-3.562h2.863l-.071,5.691H999l-4.722-3.6m-95.726,11.481h216.229l-27.376-98.537H925.93l-27.376,98.536" transform="translate(-898.554 -520.846)" fill="#fff"/>
          <path id="Path_79028" data-name="Path 79028" d="M929.418,605.81H1086.2l-.161-.774H929.584l-.166.774" transform="translate(-901.017 -525.949)" fill="#2480fe"/>
          <path id="Path_79029" data-name="Path 79029" d="M956.492,599.408h121.021l-.136-.749H956.6l-.113.749" transform="translate(-903.075 -525.464)" fill="#5873a6"/>
          <path id="Path_79030" data-name="Path 79030" d="M1035.237,590.862h46.823l-.13-.717H1035.2l.036.717" transform="translate(-909.059 -524.817)" fill="#5873a6"/>
          <path id="Path_79031" data-name="Path 79031" d="M990.871,582.681h86.443l-.125-.687H990.916l-.045.687" transform="translate(-905.689 -524.197)" fill="#5873a6"/>
          <path id="Path_79032" data-name="Path 79032" d="M1006.828,574.841h70.381l-.12-.659h-70.245l-.016.659" transform="translate(-906.902 -523.603)" fill="#5873a6"/>
          <path id="Path_79033" data-name="Path 79033" d="M972.895,567.315h100.469l-.115-.632H972.969l-.074.632" transform="translate(-904.323 -523.033)" fill="#5873a6"/>
          <path id="Path_79034" data-name="Path 79034" d="M1019.485,560.093h56.205l-.11-.607h-56.1l.006.607" transform="translate(-907.864 -522.486)" fill="#5873a6"/>
          <path id="Path_79035" data-name="Path 79035" d="M982.3,553.15h89.4l-.106-.584H982.353l-.056.584" transform="translate(-905.037 -521.96)" fill="#5873a6"/>
          <path id="Path_79036" data-name="Path 79036" d="M1009.326,546.477h63.3l-.1-.562h-63.192l-.01.562" transform="translate(-907.092 -521.454)" fill="#5873a6"/>
          <path id="Path_79037" data-name="Path 79037" d="M1040.1,540.054h33.785l-.1-.541h-33.726l.04.541" transform="translate(-909.429 -520.968)" fill="#5873a6"/>
          <path id="Path_79038" data-name="Path 79038" d="M1095.358,599.408h2.214l-.156-.749h-2.209l.151.749" transform="translate(-913.622 -525.464)" fill="#5873a6"/>
          <path id="Path_79039" data-name="Path 79039" d="M1093.631,590.862h2.166l-.149-.717h-2.162l.145.717" transform="translate(-913.491 -524.817)" fill="#5873a6"/>
          <path id="Path_79040" data-name="Path 79040" d="M1091.979,582.681h2.121l-.143-.687h-2.116l.139.687" transform="translate(-913.366 -524.197)" fill="#5873a6"/>
          <path id="Path_79041" data-name="Path 79041" d="M1090.4,574.841h2.075l-.137-.659h-2.072l.133.659" transform="translate(-913.246 -523.603)" fill="#5873a6"/>
          <path id="Path_79042" data-name="Path 79042" d="M1088.875,567.315h2.035l-.132-.632h-2.03l.127.632" transform="translate(-913.131 -523.033)" fill="#5873a6"/>
          <path id="Path_79043" data-name="Path 79043" d="M1087.417,560.093h1.994l-.127-.607h-1.989l.122.607" transform="translate(-913.02 -522.486)" fill="#5873a6"/>
          <path id="Path_79044" data-name="Path 79044" d="M1086.015,553.15h1.954l-.121-.584H1085.9l.118.584" transform="translate(-912.914 -521.96)" fill="#5873a6"/>
          <path id="Path_79045" data-name="Path 79045" d="M1084.667,546.477h1.916l-.116-.562h-1.914l.114.562" transform="translate(-912.812 -521.454)" fill="#5873a6"/>
          <path id="Path_79046" data-name="Path 79046" d="M1083.37,540.054h1.881l-.113-.541h-1.877l.109.541" transform="translate(-912.713 -520.968)" fill="#5873a6"/>
          <path id="Path_79047" data-name="Path 79047" d="M1095.877,616.042l.27,1.372h-1.8q-.16,0-.307-.012c-.1-.008-.191-.02-.279-.036a2.229,2.229,0,0,1-.252-.06,1.738,1.738,0,0,1-.224-.084,1.391,1.391,0,0,1-.193-.106.85.85,0,0,1-.144-.119.584.584,0,0,1-.1-.132.522.522,0,0,1-.051-.147.425.425,0,0,1,0-.144.368.368,0,0,1,.046-.129.467.467,0,0,1,.1-.115.771.771,0,0,1,.148-.1,1.155,1.155,0,0,1,.192-.083,1.694,1.694,0,0,1,.229-.058,2.582,2.582,0,0,1,.268-.034q.144-.012.307-.011h1.789m-1.321,2.434h4.7l-1.161-5.673h-2.853l.43,2.184h-1.784q-.3,0-.587.011t-.544.033q-.261.022-.5.055t-.458.077q-.215.042-.4.092t-.346.1a2.939,2.939,0,0,0-.289.118,1.783,1.783,0,0,0-.231.13,2.571,2.571,0,0,0-.324.271,1.457,1.457,0,0,0-.219.275.9.9,0,0,0-.112.28.743.743,0,0,0,0,.285,1.014,1.014,0,0,0,.136.35,1.474,1.474,0,0,0,.276.323,2.524,2.524,0,0,0,.414.3,4.467,4.467,0,0,0,.55.269,5.4,5.4,0,0,0,.677.226,7.5,7.5,0,0,0,.779.161q.415.065.88.1t.979.032" transform="translate(-913.098 -527.837)" fill="#2480fe"/>
          <path id="Path_79048" data-name="Path 79048" d="M1080.582,617.091h7.2l-1-5.692h-7.1l.164,1.038h4.254l.221,1.31h-3.759l.166,1.051h3.77l.208,1.23h-4.3l.168,1.063" transform="translate(-912.442 -526.433)" fill="#2480fe"/>
          <path id="Path_79049" data-name="Path 79049" d="M1073.764,616.042l.2,1.372h-1.8q-.16,0-.306-.012t-.277-.036a2.174,2.174,0,0,1-.249-.06,1.653,1.653,0,0,1-.22-.084,1.291,1.291,0,0,1-.187-.106.782.782,0,0,1-.137-.119.544.544,0,0,1-.089-.132.5.5,0,0,1-.043-.147.425.425,0,0,1,0-.144.386.386,0,0,1,.053-.129.505.505,0,0,1,.1-.115.833.833,0,0,1,.154-.1,1.093,1.093,0,0,1,.193-.083,1.747,1.747,0,0,1,.233-.058,2.7,2.7,0,0,1,.272-.034c.1-.008.2-.011.309-.011h1.789m-1.452,2.434h4.7l-.856-5.673H1073.3l.313,2.184h-.34l-2.949-2.184h-3.342l3.18,2.293q-.344.047-.638.113a5.175,5.175,0,0,0-.537.148,3.156,3.156,0,0,0-.436.182,1.886,1.886,0,0,0-.334.216,1.99,1.99,0,0,0-.243.237,1.281,1.281,0,0,0-.165.24.9.9,0,0,0-.086.243.776.776,0,0,0-.008.246.961.961,0,0,0,.117.35,1.367,1.367,0,0,0,.258.323,2.342,2.342,0,0,0,.4.3,4.18,4.18,0,0,0,.536.269,5.161,5.161,0,0,0,.663.226,7.211,7.211,0,0,0,.768.161q.411.065.874.1t.982.032" transform="translate(-911.359 -527.837)" fill="#2480fe"/>
          <path id="Path_79050" data-name="Path 79050" d="M1051.089,617.072h3.315l3-3.928,3.827,3.928h3.325l-.687-5.673h-2.854l.361,3.179L1058.3,611.4h-2.121l-2.425,3.179-.3-3.179H1050.6l.488,5.673" transform="translate(-910.23 -526.433)" fill="#2480fe"/>
          <path id="Path_79051" data-name="Path 79051" d="M1043.734,614.789l-1.261,2.024-1.532-2.024h2.793m-2.931,3.706h3.526L1048,612.8h-3.032l-.589.942h-4.216l-.705-.942h-3.06l4.408,5.691" transform="translate(-909.034 -527.837)" fill="#2480fe"/>
          <path id="Path_79052" data-name="Path 79052" d="M1023.772,617.091h2.9l-.1-3.6,4.948,3.6h2.9l-.27-5.692h-2.854l.142,3.562-4.92-3.562h-2.853l.112,5.692" transform="translate(-908.182 -526.433)" fill="#2480fe"/>
          <path id="Path_79053" data-name="Path 79053" d="M1013.231,617.091h7.2l-.073-5.692h-7.1l-.007,1.038h4.255l.006,1.31h-3.769l0,1.051h3.779l.006,1.23h-4.295l-.006,1.063" transform="translate(-907.389 -526.433)" fill="#2480fe"/>
          <path id="Path_79054" data-name="Path 79054" d="M999.01,617.091h2.906l.118-3.6,4.722,3.6h2.906l.071-5.692h-2.863l-.072,3.562-4.7-3.562H999.24l-.23,5.692" transform="translate(-906.308 -526.433)" fill="#2480fe"/>
          <path id="Path_79055" data-name="Path 79055" d="M986.987,617.072h9.385l.048-1.063h-3.231l.247-4.61h-2.853l-.282,4.61h-3.239l-.074,1.063" transform="translate(-905.394 -526.433)" fill="#2480fe"/>
        </g>
      </g>
      <g id="Group_793" data-name="Group 793" transform="translate(591.398 455.324)" style="isolation: isolate">
        <g id="Group_792" data-name="Group 792" clip-path="url(#clip-path-2)">
          <path id="Path_79057" data-name="Path 79057" d="M757.99,594.069,761,592.535,758.393,592l-.4,2.066m-43.722-8.322,1.6.327,1.28-1.169-1.592-.325q-.146-.03-.289-.046t-.281-.021q-.139,0-.272,0a2.613,2.613,0,0,0-.263.031,2.29,2.29,0,0,0-.239.055,1.808,1.808,0,0,0-.214.076,1.415,1.415,0,0,0-.187.1,1.148,1.148,0,0,0-.159.12.717.717,0,0,0-.113.127.383.383,0,0,0-.058.125.271.271,0,0,0,0,.122.326.326,0,0,0,.053.119.53.53,0,0,0,.11.113.89.89,0,0,0,.16.1,1.571,1.571,0,0,0,.21.081,2.657,2.657,0,0,0,.261.066m144.536-65.8-.383.454-1.8-.281.385-.453,1.8.28m-7.705-1.2-.393.45-33.323-5.191.44-.434,33.277,5.175m3.527,6.152-.4.47-1.829-.29.4-.469,1.827.289M846.8,523.66l-.408.466-50.841-8.068.478-.441L846.8,523.66m3.493,6.374-.411.487-1.858-.3.413-.486,1.855.3m-7.946-1.283-.422.483-34.341-5.554.471-.465,34.292,5.537m3.459,6.6-.426.5-1.888-.311.429-.5,1.885.31m-8.072-1.329-.438.5-75.174-12.4.543-.461,75.069,12.357m3.415,6.851-.44.521-1.918-.323.442-.52,1.916.322m-8.2-1.377-.452.516-53.215-8.952.528-.487,53.138,8.922m3.371,7.107-.459.544-1.95-.335.462-.543,1.947.334m-8.337-1.429-.471.539-98.6-16.927.612-.483,98.458,16.871m3.317,7.38-.477.566-1.983-.348.48-.564,1.979.346m-8.475-1.483-.49.56-78.733-13.8.605-.513,78.618,13.753m3.254,7.673-.5.588-2.016-.361.5-.587,2.013.36m-8.618-1.54-.51.583-50.284-9,.586-.551,50.208,8.972m3.19,7.977-.516.612-2.051-.375.52-.611,2.048.374m-8.766-1.6-.53.606-89.961-16.461.665-.548,89.826,16.4m3.114,8.3-.538.638-2.087-.391.541-.636,2.084.389m-8.92-1.666-.552.632-38.431-7.191.613-.605,38.371,7.164m3.026,8.654-.561.665-2.124-.407.564-.663,2.121.405m-9.078-1.734-.576.658L692.705,557.366l.739-.583,106.581,20.36m2.934,9.019-.585.694-2.163-.424.589-.692,2.159.422m-9.241-1.807-.6.687-59.676-11.7.7-.642,59.58,11.651m4.643,7.26-.6.716-141.3-28.177.823-.609,141.085,28.07m-5.8,5.191-4.438,5.237-7.474-1.537.847-.972,4.662.956.969-1.131-3.482-.711.835-.962,3.475.708,1.839-2.147,2.768.56m-9.282-1.878-4.551,5.183-2.773-.57,4.584-5.168,2.74.554m-28.646-5.8-4.891,5.019-2.687-.553,4.018-4.085-3.308-.671.911-.915,5.957,1.206m-28.964-1.682-3.356,1.058-2.958-.608,6.01-1.76-.759-3.085,2.925.592.457,1.8,3.3-1.038,2.947.6-5.922,1.748.8,3.155-2.98-.613-.456-1.843m-2.948-4.777-5.255,4.839-4.192-.862q-.462-.1-.843-.207a6,6,0,0,1-.679-.24,3.174,3.174,0,0,1-.514-.273,1.6,1.6,0,0,1-.348-.306,1.094,1.094,0,0,1-.194-.322.68.68,0,0,1-.04-.316.762.762,0,0,1,.112-.311,1.4,1.4,0,0,1,.263-.306,2.124,2.124,0,0,1,.317-.232,3.328,3.328,0,0,1,.408-.208,5.142,5.142,0,0,1,.5-.184q.272-.086.59-.159.165-.037.349-.064t.386-.044q.2-.017.425-.024t.466,0q.239,0,.487.022t.506.047q.257.03.524.073t.542.1l1.589.323,2.038-1.861,2.564.519m46.414,11.63-2.981,3.243-2.736-.563,4.747-5.113,2.7.547,1.63,4.144,2.915-3.225,2.725.552-4.628,5.17-2.758-.567-1.618-4.188m-2.292-2.7-8.649,4.306-3.3-.679,1.053-5.832,2.852.577-.188.963,3.957.8,1.405-.719,2.869.581M742.6,586.693l-5.046,4.966-6.579-1.353.959-.923,3.919.8,1.092-1.065-3.452-.706.943-.909,3.445.7,1.168-1.139-3.891-.79.937-.9,6.5,1.316m-29.4-5.95-5.378,4.8-6.364-1.309,1.02-.892,3.792.778,1.163-1.03-3.34-.683,1-.879,3.334.679,1.244-1.1-3.766-.764,1-.872,6.3,1.274m-17.21-1.335-3.5,2.981-2.521-.518,5.569-4.7,2.494.5.752,3.814,3.439-2.965,2.513.508-5.47,4.754-2.54-.522-.733-3.853M684,574.834l-5.692,4.639-6.155-1.266,1.078-.862,3.668.752,1.23-1-3.231-.66,1.061-.85,3.225.657,1.316-1.065-3.644-.739,1.054-.843L684,574.835m4.664,1.989q-.131-.027-.26-.043t-.254-.021c-.083,0-.165,0-.246,0a2.35,2.35,0,0,0-.236.022c-.077.011-.148.025-.215.041a1.584,1.584,0,0,0-.187.058,1.152,1.152,0,0,0-.159.074.913.913,0,0,0-.134.091.625.625,0,0,0-.1.1.3.3,0,0,0-.052.1.193.193,0,0,0-.006.094.224.224,0,0,0,.042.091.49.49,0,0,0,.074.09.865.865,0,0,0,.106.087,1.518,1.518,0,0,0,.136.084c.05.028.1.055.164.082l.183.082.2.084.213.086c.073.029.15.058.23.087l.231.088q.115.045.226.092l.221.1q.109.049.216.1t.207.1q.1.052.189.1t.171.107q.081.054.153.109a.846.846,0,0,1,.129.116.613.613,0,0,1,.088.126.519.519,0,0,1,.048.135.554.554,0,0,1,.01.144.5.5,0,0,1-.028.152.714.714,0,0,1-.078.156,1.183,1.183,0,0,1-.128.161,1.993,1.993,0,0,1-.177.166,2.735,2.735,0,0,1-.438.3,3.64,3.64,0,0,1-.534.238,5.068,5.068,0,0,1-.63.179,7.188,7.188,0,0,1-.727.119q-.385.044-.778.057t-.795-.009q-.4-.021-.809-.073t-.821-.138q-.416-.086-.766-.185a6.582,6.582,0,0,1-.632-.212,3.758,3.758,0,0,1-.5-.238,2.082,2.082,0,0,1-.367-.264.792.792,0,0,1-.209-.289.549.549,0,0,1-.027-.313.894.894,0,0,1,.155-.337,2.108,2.108,0,0,1,.336-.362l2.707.554a.8.8,0,0,0-.1.129.424.424,0,0,0-.051.12.261.261,0,0,0,.039.215.383.383,0,0,0,.084.094.67.67,0,0,0,.128.08,1.224,1.224,0,0,0,.171.067,2.13,2.13,0,0,0,.213.054q.117.024.232.039t.228.02q.113.005.225,0t.223-.016a1.935,1.935,0,0,0,.208-.038,1.521,1.521,0,0,0,.185-.058,1.173,1.173,0,0,0,.162-.077,1.008,1.008,0,0,0,.14-.1.719.719,0,0,0,.1-.1.338.338,0,0,0,.057-.1.2.2,0,0,0,.009-.1.232.232,0,0,0-.039-.095.519.519,0,0,0-.074-.091.876.876,0,0,0-.105-.089,1.445,1.445,0,0,0-.135-.086q-.075-.042-.164-.083l-.187-.08-.2-.082-.215-.084-.231-.086-.23-.088-.225-.092-.221-.1-.217-.1q-.108-.05-.206-.1t-.187-.1q-.089-.053-.167-.107t-.148-.11a.844.844,0,0,1-.123-.115.624.624,0,0,1-.086-.125.515.515,0,0,1-.056-.278.477.477,0,0,1,.031-.151.728.728,0,0,1,.082-.156,1.225,1.225,0,0,1,.132-.161,2.1,2.1,0,0,1,.182-.166,2.446,2.446,0,0,1,.408-.267,3.681,3.681,0,0,1,.514-.22,5.564,5.564,0,0,1,.619-.173q.335-.074.723-.125t.785-.067q.4-.016.8,0t.824.07q.417.052.844.139t.79.189a6.515,6.515,0,0,1,.65.219,3.725,3.725,0,0,1,.511.248,2.05,2.05,0,0,1,.373.278.9.9,0,0,1,.212.3.569.569,0,0,1,.034.315.818.818,0,0,1-.145.328,1.831,1.831,0,0,1-.326.342l-2.653-.54a.661.661,0,0,0,.177-.267.248.248,0,0,0-.038-.224.606.606,0,0,0-.253-.181,2.321,2.321,0,0,0-.468-.138m-71.716-2.209,192.886,40.565,74.315-97.8L731.792,494.194,616.948,574.615" transform="translate(-616.948 -494.194)" fill="#fff"/>
          <path id="Path_79058" data-name="Path 79058" d="M659.83,568.455l141.3,28.177.6-.716L660.653,567.847l-.823.608" transform="translate(-620.325 -498.496)" fill="#fc557d"/>
          <path id="Path_79059" data-name="Path 79059" d="M743.154,578.4,802.83,590.1l.6-.687L743.85,577.759l-.7.643" transform="translate(-626.66 -499.25)" fill="#5873a6"/>
          <path id="Path_79060" data-name="Path 79060" d="M699.065,561.112,805.81,581.547l.576-.659L699.8,560.529l-.739.583" transform="translate(-623.308 -497.94)" fill="#5873a6"/>
          <path id="Path_79061" data-name="Path 79061" d="M779.575,567.926l38.431,7.191.553-.632-38.371-7.164-.613.605" transform="translate(-629.429 -498.456)" fill="#5873a6"/>
          <path id="Path_79062" data-name="Path 79062" d="M730.112,550.687l89.961,16.461.53-.607-89.826-16.4-.665.548" transform="translate(-625.668 -497.15)" fill="#5873a6"/>
          <path id="Path_79063" data-name="Path 79063" d="M779.112,551.832l50.284,9,.51-.583L779.7,551.281l-.586.551" transform="translate(-629.393 -497.236)" fill="#5873a6"/>
          <path id="Path_79064" data-name="Path 79064" d="M754.148,539.981l78.733,13.8.491-.561-78.618-13.752-.606.513" transform="translate(-627.496 -496.338)" fill="#5873a6"/>
          <path id="Path_79065" data-name="Path 79065" d="M738.25,530.194l98.6,16.926.471-.539-98.459-16.871-.612.483" transform="translate(-626.287 -495.597)" fill="#5873a6"/>
          <path id="Path_79066" data-name="Path 79066" d="M792.766,532.655l53.214,8.951.452-.516-53.138-8.923-.529.488" transform="translate(-630.432 -495.783)" fill="#5873a6"/>
          <path id="Path_79067" data-name="Path 79067" d="M774.2,522.986l75.174,12.4.438-.5-75.069-12.357-.543.46" transform="translate(-629.02 -495.05)" fill="#5873a6"/>
          <path id="Path_79068" data-name="Path 79068" d="M823.4,524.664l34.34,5.554.422-.482L823.869,524.2l-.47.465" transform="translate(-632.76 -495.178)" fill="#5873a6"/>
          <path id="Path_79069" data-name="Path 79069" d="M810.376,516.417l50.842,8.068.407-.467-50.771-8.042-.478.441" transform="translate(-631.77 -494.552)" fill="#5873a6"/>
          <path id="Path_79070" data-name="Path 79070" d="M834,514.2l33.323,5.19.394-.449-33.277-5.175-.44.434" transform="translate(-633.567 -494.384)" fill="#5873a6"/>
          <path id="Path_79071" data-name="Path 79071" d="M815.418,592.56l2.163.424.585-.694-2.159-.422-.589.692" transform="translate(-632.154 -500.322)" fill="#5873a6"/>
          <path id="Path_79072" data-name="Path 79072" d="M822.135,584.665l2.124.407.561-.665L822.7,584l-.564.662" transform="translate(-632.664 -499.724)" fill="#5873a6"/>
          <path id="Path_79073" data-name="Path 79073" d="M828.578,577.093l2.087.391.538-.638-2.084-.389-.541.636" transform="translate(-633.154 -499.151)" fill="#5873a6"/>
          <path id="Path_79074" data-name="Path 79074" d="M834.758,569.83l2.051.376.517-.613-2.048-.374-.52.611" transform="translate(-633.624 -498.6)" fill="#5873a6"/>
          <path id="Path_79075" data-name="Path 79075" d="M840.694,562.855l2.016.361.5-.589-2.013-.359-.5.587" transform="translate(-634.075 -498.072)" fill="#5873a6"/>
          <path id="Path_79076" data-name="Path 79076" d="M846.4,556.146l1.983.347.477-.565-1.979-.346-.48.565" transform="translate(-634.509 -497.564)" fill="#5873a6"/>
          <path id="Path_79077" data-name="Path 79077" d="M851.889,549.7l1.95.335.459-.545-1.947-.334-.462.543" transform="translate(-634.927 -497.075)" fill="#5873a6"/>
          <path id="Path_79078" data-name="Path 79078" d="M857.174,543.486l1.918.323.439-.521-1.915-.322-.442.52" transform="translate(-635.328 -496.604)" fill="#5873a6"/>
          <path id="Path_79079" data-name="Path 79079" d="M862.262,537.505l1.888.311.426-.5-1.885-.31-.429.5" transform="translate(-635.715 -496.151)" fill="#5873a6"/>
          <path id="Path_79080" data-name="Path 79080" d="M867.167,531.741l1.858.3.41-.487-1.855-.3-.413.486" transform="translate(-636.088 -495.714)" fill="#5873a6"/>
          <path id="Path_79081" data-name="Path 79081" d="M871.9,526.177l1.829.29.4-.469-1.827-.289-.4.468" transform="translate(-636.448 -495.292)" fill="#5873a6"/>
          <path id="Path_79082" data-name="Path 79082" d="M876.467,520.811l1.8.28.383-.454-1.8-.28-.385.454" transform="translate(-636.795 -494.885)" fill="#5873a6"/>
          <path id="Path_79083" data-name="Path 79083" d="M794.248,607.5l7.474,1.537,4.438-5.237-2.768-.56-1.839,2.146-3.475-.708-.834.963,3.482.711-.969,1.131-4.662-.955-.847.972" transform="translate(-630.544 -501.187)" fill="#fc557d"/>
          <path id="Path_79084" data-name="Path 79084" d="M789.167,606.379l2.774.57,4.551-5.184-2.74-.554-4.584,5.168" transform="translate(-630.158 -501.033)" fill="#fc557d"/>
          <path id="Path_79085" data-name="Path 79085" d="M775.6,603.613l2.736.563,2.982-3.242,1.618,4.188,2.758.567,4.628-5.171-2.726-.552-2.915,3.225-1.63-4.144-2.7-.547-4.747,5.112" transform="translate(-629.126 -500.827)" fill="#fc557d"/>
          <path id="Path_79086" data-name="Path 79086" d="M772.355,600.368l-3.014,1.534.4-2.066,2.611.531m-6.109,2.693,3.3.679,8.649-4.306-2.869-.581-1.405.719-3.957-.8.188-.963-2.852-.577-1.053,5.832" transform="translate(-628.299 -502.027)" fill="#fc557d"/>
          <path id="Path_79087" data-name="Path 79087" d="M757.89,599.9l2.687.553,4.891-5.019-5.957-1.206-.911.916,3.308.672L757.89,599.9" transform="translate(-627.78 -500.502)" fill="#fc557d"/>
          <path id="Path_79088" data-name="Path 79088" d="M740.479,596.405l6.58,1.353,5.046-4.966-6.5-1.316-.938.9,3.892.79-1.168,1.139-3.446-.7-.943.909,3.452.7-1.092,1.065-3.919-.8-.959.923" transform="translate(-626.456 -500.292)" fill="#fc557d"/>
          <path id="Path_79089" data-name="Path 79089" d="M727.911,593.806l2.958.608,3.356-1.058.456,1.842,2.98.613-.8-3.155,5.922-1.747-2.947-.6-3.3,1.038-.456-1.8-2.924-.591.759,3.085-6.009,1.76" transform="translate(-625.501 -500.101)" fill="#fc557d"/>
          <path id="Path_79090" data-name="Path 79090" d="M724.855,592.143l-1.28,1.169-1.6-.327a2.625,2.625,0,0,1-.261-.066,1.58,1.58,0,0,1-.21-.081.88.88,0,0,1-.159-.1.532.532,0,0,1-.11-.113.328.328,0,0,1-.053-.119.272.272,0,0,1,0-.122.386.386,0,0,1,.058-.125.719.719,0,0,1,.113-.127,1.138,1.138,0,0,1,.159-.12,1.407,1.407,0,0,1,.187-.1,1.8,1.8,0,0,1,.214-.076,2.308,2.308,0,0,1,.239-.055q.129-.022.263-.031t.272,0q.139,0,.281.021t.289.046l1.592.325m-3.868,1.742,4.192.862,5.255-4.839-2.564-.519-2.038,1.861-1.589-.323q-.275-.056-.542-.1t-.524-.073q-.258-.03-.506-.047t-.487-.022q-.244,0-.466,0t-.425.024q-.2.017-.386.044t-.349.064q-.318.073-.59.159a5.151,5.151,0,0,0-.5.184,3.341,3.341,0,0,0-.408.208,2.113,2.113,0,0,0-.317.232,1.391,1.391,0,0,0-.263.306.764.764,0,0,0-.112.311.683.683,0,0,0,.04.316,1.1,1.1,0,0,0,.194.322,1.6,1.6,0,0,0,.348.306,3.168,3.168,0,0,0,.514.273,6.022,6.022,0,0,0,.679.24q.38.112.843.207" transform="translate(-624.658 -501.431)" fill="#fc557d"/>
          <path id="Path_79091" data-name="Path 79091" d="M708.534,589.848l6.364,1.309,5.378-4.8-6.3-1.274-1,.872,3.766.765-1.244,1.1-3.334-.679-1,.879,3.34.683-1.162,1.03-3.792-.778-1.02.893" transform="translate(-624.028 -499.806)" fill="#fc557d"/>
          <path id="Path_79092" data-name="Path 79092" d="M696.1,587.295l2.521.518,3.5-2.982.733,3.853,2.54.522,5.47-4.753-2.512-.509-3.44,2.966-.752-3.814-2.494-.5-5.569,4.7" transform="translate(-623.082 -499.617)" fill="#fc557d"/>
          <path id="Path_79093" data-name="Path 79093" d="M689.433,587.444q.413.085.821.138t.809.074q.4.021.795.008t.778-.057a7.238,7.238,0,0,0,.727-.119,5.051,5.051,0,0,0,.63-.179,3.634,3.634,0,0,0,.534-.239,2.721,2.721,0,0,0,.438-.3,1.992,1.992,0,0,0,.177-.166,1.19,1.19,0,0,0,.128-.161.711.711,0,0,0,.078-.156.5.5,0,0,0,.028-.152.552.552,0,0,0-.01-.144.524.524,0,0,0-.048-.136.614.614,0,0,0-.088-.126.844.844,0,0,0-.129-.116c-.048-.036-.1-.073-.153-.109s-.111-.072-.171-.107-.123-.07-.189-.1-.135-.068-.207-.1-.143-.068-.216-.1-.146-.065-.221-.1-.15-.062-.226-.092-.153-.059-.231-.088-.156-.058-.23-.087l-.213-.086-.2-.084-.183-.082c-.059-.027-.114-.054-.164-.082a1.492,1.492,0,0,1-.136-.084.863.863,0,0,1-.106-.087.49.49,0,0,1-.074-.09.223.223,0,0,1-.042-.091.194.194,0,0,1,.006-.094.308.308,0,0,1,.052-.1.621.621,0,0,1,.1-.1.943.943,0,0,1,.133-.091,1.155,1.155,0,0,1,.159-.074,1.6,1.6,0,0,1,.187-.057q.1-.024.215-.041t.236-.022c.08,0,.162,0,.246,0s.168.01.254.021.173.025.26.042a2.317,2.317,0,0,1,.468.138.6.6,0,0,1,.253.181.248.248,0,0,1,.038.224.659.659,0,0,1-.178.267l2.653.54a1.835,1.835,0,0,0,.326-.342.817.817,0,0,0,.145-.328.57.57,0,0,0-.034-.315.9.9,0,0,0-.213-.3,2.047,2.047,0,0,0-.373-.278,3.714,3.714,0,0,0-.511-.248,6.494,6.494,0,0,0-.65-.219q-.36-.1-.79-.189t-.844-.139q-.417-.052-.824-.07t-.8,0q-.4.016-.785.067t-.723.125a5.549,5.549,0,0,0-.619.173,3.681,3.681,0,0,0-.514.22,2.439,2.439,0,0,0-.408.267,2.09,2.09,0,0,0-.182.166,1.244,1.244,0,0,0-.132.161.73.73,0,0,0-.082.156.477.477,0,0,0-.031.15.516.516,0,0,0,.008.143.522.522,0,0,0,.047.134.628.628,0,0,0,.086.125.856.856,0,0,0,.124.115q.069.055.148.11t.167.107q.089.053.187.1t.206.1l.217.1.221.1q.112.047.225.092l.23.088.231.086.215.084.2.082.187.08q.089.041.164.083a1.439,1.439,0,0,1,.135.086.877.877,0,0,1,.105.089.524.524,0,0,1,.074.091.231.231,0,0,1,.039.095.2.2,0,0,1-.009.1.336.336,0,0,1-.057.1.707.707,0,0,1-.1.1,1,1,0,0,1-.139.1,1.174,1.174,0,0,1-.162.077,1.49,1.49,0,0,1-.185.058,1.945,1.945,0,0,1-.208.038q-.111.012-.223.016t-.225,0q-.113-.006-.228-.02t-.232-.039a2.11,2.11,0,0,1-.213-.054,1.222,1.222,0,0,1-.17-.067.672.672,0,0,1-.128-.08.386.386,0,0,1-.084-.094.269.269,0,0,1-.043-.1.274.274,0,0,1,0-.112.428.428,0,0,1,.051-.12.8.8,0,0,1,.1-.129l-2.707-.555a2.11,2.11,0,0,0-.336.362.9.9,0,0,0-.155.337.549.549,0,0,0,.027.313.791.791,0,0,0,.209.289,2.087,2.087,0,0,0,.367.264,3.776,3.776,0,0,0,.5.238,6.6,6.6,0,0,0,.632.212q.35.1.766.185" transform="translate(-622.268 -500.904)" fill="#fc557d"/>
          <path id="Path_79094" data-name="Path 79094" d="M676.821,583.338l6.155,1.266,5.693-4.639-6.092-1.233-1.053.844,3.643.739-1.316,1.065-3.225-.657-1.061.849,3.231.661-1.23,1-3.668-.752-1.077.862" transform="translate(-621.617 -499.324)" fill="#fc557d"/>
        </g>
      </g>
      <g id="Group_795" data-name="Group 795" transform="translate(1061.019 456.07)" style="isolation: isolate">
        <g id="Group_794" data-name="Group 794" transform="translate(0)" clip-path="url(#clip-path-3)">
          <path id="Path_79096" data-name="Path 79096" d="M1339.265,577.492l1.515-.311-1.4-1.1-1.512.309q-.142.029-.256.064a1.521,1.521,0,0,0-.2.076.781.781,0,0,0-.148.088.414.414,0,0,0-.1.1.274.274,0,0,0-.035.111.264.264,0,0,0,.017.115.423.423,0,0,0,.07.117.807.807,0,0,0,.125.12,1.276,1.276,0,0,0,.17.114,1.587,1.587,0,0,0,.2.093,2,2,0,0,0,.222.073q.118.032.248.054t.267.033q.134.01.27.007t.271-.018q.136-.016.272-.044M1297.8,526.033l.636.473-1.706.293-.633-.474,1.7-.292m-7.342,1.258.626.477-65.463,11.238-.536-.514,65.373-11.2m14.289,3.912.659.49-1.73.3-.656-.491,1.728-.3m-7.446,1.3.649.495-86.4,15.144-.527-.545,86.278-15.093m14.646,4.056.684.509-1.755.314-.681-.51,1.752-.313m-7.553,1.35.673.513-33.765,6.045-.627-.534,33.718-6.025m15.023,4.21.709.528-1.78.326-.707-.529,1.778-.325m-7.663,1.4.7.533-69.91,12.792-.6-.577,69.81-12.748m15.423,4.376.737.548-1.806.338-.734-.55,1.8-.337m-7.776,1.452.726.553-53.643,10.037-.649-.589,53.566-10m15.835,4.546.766.57-1.833.351-.763-.571,1.831-.35m-7.892,1.508.755.575-105.224,20.144-.6-.649L1327.346,555.4m16.276,4.732.8.593-1.861.365-.795-.594,1.858-.363m-8.011,1.567.785.6-84.069,16.476-.66-.66,83.943-16.415m14.267,3.089.82.61-141.682,28.252-.6-.718,141.461-28.145m10.71,8.329,1.119.834-7.8,1.6-1.1-.842,2.712-.556-4.82-3.644,2.384-.483,4.84,3.634,2.672-.548m-22.083-.137,5.806,4.549-3.968.816q-.44.09-.863.145t-.832.073q-.408.018-.8,0t-.765-.073q-.375-.053-.7-.129a5.464,5.464,0,0,1-.606-.177,3.8,3.8,0,0,1-.509-.224,2.671,2.671,0,0,1-.412-.269,1.594,1.594,0,0,1-.215-.206,1.1,1.1,0,0,1-.146-.217.864.864,0,0,1-.079-.228.845.845,0,0,1-.011-.239.56.56,0,0,1,.089-.239,1,1,0,0,1,.209-.228,2.1,2.1,0,0,1,.327-.217,4.158,4.158,0,0,1,.445-.207l-4.777-1.351,2.856-.578,4.474,1.3.281-.057-2.228-1.758,2.424-.491m-13.5,4.505.984,3.812-2.872.591-5.586-4.663,2.476-.5,3.147,2.607-.791-3.084,1.831-.371,5.53,2.113-3.186-2.587,2.451-.5,5.707,4.6-2.836.583-6.856-2.6m21.568-6.139,5.908,4.52-6.047,1.244-1.091-.849,3.614-.741-1.271-.979-3.182.65-1.08-.84,3.176-.647-1.355-1.044-3.59.729-1.067-.831,5.986-1.211m-147.052,44.631,192.885-40.562L1277.568,495l-152.357,23.184,74.312,97.8" transform="translate(-1125.211 -495.001)" fill="#fff"/>
          <path id="Path_79097" data-name="Path 79097" d="M1215.99,597.992l141.682-28.252-.82-.611L1215.39,597.274l.6.718" transform="translate(-1132.184 -499.339)" fill="#eb711f"/>
          <path id="Path_79098" data-name="Path 79098" d="M1262.861,582.861l84.068-16.476-.785-.6L1262.2,582.2l.66.66" transform="translate(-1135.743 -499.085)" fill="#5873a6"/>
          <path id="Path_79099" data-name="Path 79099" d="M1230.991,579.688l105.224-20.144-.755-.576-105.066,20.07.6.65" transform="translate(-1133.324 -498.567)" fill="#5873a6"/>
          <path id="Path_79100" data-name="Path 79100" d="M1278.184,563.008l53.643-10.037-.726-.553-53.566,10,.65.589" transform="translate(-1136.908 -498.069)" fill="#5873a6"/>
          <path id="Path_79101" data-name="Path 79101" d="M1252.278,559.434l69.909-12.792-.7-.533-69.81,12.748.6.577" transform="translate(-1134.942 -497.589)" fill="#5873a6"/>
          <path id="Path_79102" data-name="Path 79102" d="M1283.4,546.6l33.765-6.045-.674-.514-33.718,6.025.626.533" transform="translate(-1137.307 -497.127)" fill="#5873a6"/>
          <path id="Path_79103" data-name="Path 79103" d="M1218.741,549.826l86.4-15.143-.649-.5-86.278,15.093.528.545" transform="translate(-1132.398 -496.683)" fill="#5873a6"/>
          <path id="Path_79104" data-name="Path 79104" d="M1233.968,540.259l65.464-11.237-.627-.478-65.373,11.2.536.514" transform="translate(-1133.555 -496.254)" fill="#5873a6"/>
          <path id="Path_79105" data-name="Path 79105" d="M1360.5,565.048l1.86-.365-.8-.593-1.858.364.795.594" transform="translate(-1143.156 -498.956)" fill="#5873a6"/>
          <path id="Path_79106" data-name="Path 79106" d="M1351.429,558.258l1.833-.351-.766-.57-1.83.349.763.572" transform="translate(-1142.468 -498.443)" fill="#5873a6"/>
          <path id="Path_79107" data-name="Path 79107" d="M1342.706,551.732l1.806-.338-.736-.549-1.8.337.734.55" transform="translate(-1141.807 -497.949)" fill="#5873a6"/>
          <path id="Path_79108" data-name="Path 79108" d="M1334.309,545.449l1.78-.326-.709-.528-1.778.324.707.529" transform="translate(-1141.171 -497.474)" fill="#5873a6"/>
          <path id="Path_79109" data-name="Path 79109" d="M1326.225,539.4l1.756-.314-.684-.508-1.753.312.681.51" transform="translate(-1140.558 -497.016)" fill="#5873a6"/>
          <path id="Path_79110" data-name="Path 79110" d="M1318.436,533.572l1.73-.3-.659-.491-1.728.3.657.491" transform="translate(-1139.968 -496.575)" fill="#5873a6"/>
          <path id="Path_79111" data-name="Path 79111" d="M1310.92,527.949l1.706-.293-.636-.473-1.7.292.634.474" transform="translate(-1139.398 -496.15)" fill="#5873a6"/>
          <path id="Path_79112" data-name="Path 79112" d="M1372.584,580.328l7.8-1.6-1.12-.834-2.672.548-4.84-3.633-2.384.482,4.82,3.644-2.712.556,1.1.842" transform="translate(-1143.89 -499.771)" fill="#eb711f"/>
          <path id="Path_79113" data-name="Path 79113" d="M1364.284,581.992l6.047-1.245-5.908-4.519-5.985,1.211,1.067.831,3.589-.729,1.355,1.044-3.176.647,1.079.84,3.182-.651,1.271.979-3.614.741,1.09.85" transform="translate(-1143.059 -499.879)" fill="#eb711f"/>
          <path id="Path_79114" data-name="Path 79114" d="M1356.291,582.5l1.4,1.1-1.515.311q-.136.028-.272.044t-.271.018q-.135,0-.27-.007t-.266-.033q-.131-.022-.248-.054a1.978,1.978,0,0,1-.222-.073,1.576,1.576,0,0,1-.2-.093,1.3,1.3,0,0,1-.17-.114.815.815,0,0,1-.125-.12.422.422,0,0,1-.07-.117.26.26,0,0,1-.017-.115.274.274,0,0,1,.035-.111.412.412,0,0,1,.1-.1.781.781,0,0,1,.148-.088,1.515,1.515,0,0,1,.2-.075q.114-.035.256-.064l1.511-.309m.961,2.269,3.968-.816-5.806-4.549-2.424.491,2.228,1.758-.281.057-4.475-1.3-2.856.578,4.777,1.352a4.157,4.157,0,0,0-.445.207,2.107,2.107,0,0,0-.327.217,1,1,0,0,0-.209.227.56.56,0,0,0-.089.239.849.849,0,0,0,.011.238.868.868,0,0,0,.079.228,1.1,1.1,0,0,0,.146.217,1.57,1.57,0,0,0,.215.206,2.692,2.692,0,0,0,.412.269,3.813,3.813,0,0,0,.51.224,5.485,5.485,0,0,0,.606.177q.327.077.7.129t.765.073q.391.018.8,0t.832-.073q.424-.055.863-.145" transform="translate(-1142.119 -501.418)" fill="#eb711f"/>
          <path id="Path_79115" data-name="Path 79115" d="M1339.07,587.061l2.873-.591-.984-3.811,6.856,2.6,2.836-.583-5.707-4.6-2.451.5,3.186,2.588-5.531-2.113-1.831.371.791,3.084-3.147-2.607-2.476.5,5.586,4.664" transform="translate(-1141.162 -500.172)" fill="#eb711f"/>
        </g>
      </g>
      <path id="Path_79117" data-name="Path 79117" d="M817.34,530.305c13.86,0,53.245-14.091,53.245-14.091L842.6,507.9l-44.351,12.936,1.623,3.691,23.941-3.691Z" transform="translate(-39.334 -39.912)" fill="#d7f2f8" style="mix-blend-mode: darken;isolation: isolate"/>
      <path id="Path_79118" data-name="Path 79118" d="M1263.675,398.2c-5.775-3.927-27.95-19.258-69.76-20.6S996.47,450.927,996.47,450.927c58.464,8.315,150.222,12.5,219.814,14.575,34.61,1.032,60.579-26.719,61.327-58.058C1274.069,410.906,1269.45,402.129,1263.675,398.2Z" transform="translate(-54.404 -30.004)" fill="#2480fe"/>
      <path id="Path_79119" data-name="Path 79119" d="M817.947,351.042c50.661-1.882,176.479,8.778,256.864,0,42.965-19.314,71.146-29.567,107.181-35.573,18.436-3.073,36.5,1.256,49.752,6.216l-36.905-79.078a82.843,82.843,0,0,0-93.576-45.715L1022.64,214.91l-81.9,14.238-68.308-21.484a77.85,77.85,0,0,0-99.527,58.177L746.744,389.726c-8.253,39.078,24.33,74.7,63.986,69.948,2.741-.329,5.529-.665,8.342-1C819.062,458.658,767.6,403.01,817.947,351.042Z" transform="translate(-35.32 -16.107)" fill="#2480fe"/>
      <path id="Path_79120" data-name="Path 79120" d="M1284.912,363.082l-6.719-14.4-16.782-2.29S1275.832,353.364,1284.912,363.082Z" transform="translate(-74.547 -27.633)" fill="#2480fe"/>
      <path id="Path_79121" data-name="Path 79121" d="M1022.64,214.91l78.623-18.018a82.843,82.843,0,0,1,93.576,45.715l58.046,124.376c18.735,40.144-11.4,85.941-55.684,84.621-69.593-2.074-161.35-6.26-219.814-14.575-44.1,7.45-112.823,16.188-166.656,22.644-39.655,4.756-72.239-30.87-63.986-69.948l26.165-123.885a77.85,77.85,0,0,1,99.527-58.177l68.308,21.484Z" transform="translate(-35.32 -16.107)" fill="#2480fe"/>
      <path id="Path_79122" data-name="Path 79122" d="M1053.385,287c10.862,34.747-8.344,91.207-8.344,91.207l-149.324-2.273,46.414-79.91Z" transform="translate(-46.744 -23.117)" fill="#0064dc"/>
      <path id="Path_79123" data-name="Path 79123" d="M1051.323,211.7c42.608,38.406,30.344,107.707-4.207,149.219l-49.867-30.027-38.834,37.791s-82.542-101.637-17.555-145.68S1051.323,211.7,1051.323,211.7Z" transform="translate(-48.28 -16.503)" fill="#fff"/>
      <path id="Path_79124" data-name="Path 79124" d="M1055.866,287l-111.254,9.025-16.264,28C940.934,352.609,959.36,375.3,959.36,375.3l38.834-37.79,49.867,30.028q2.048-2.461,3.986-5.054C1056.942,343.207,1063.133,310.246,1055.866,287Z" transform="translate(-49.225 -23.117)" fill="#d7f2f8"/>
      <path id="Path_79125" data-name="Path 79125" d="M859.788,356.441l23.161-80.331-3.165,80.331Z" transform="translate(-44.129 -20.992)" fill="#0064dc"/>
      <path id="Path_79126" data-name="Path 79126" d="M1261.631,390.969s1.061-6.289-4.6-14.141c3.557-14-30.7-32.113-30.7-32.113l16.782,2.29,8.869,1.21a4.264,4.264,0,0,0,4.84-4.225h0a4.254,4.254,0,0,0-2.133-3.694,129.8,129.8,0,0,0-18.8-8.767c-13.256-4.96-31.317-9.288-49.752-6.216-36.035,6.006-64.216,16.259-107.181,35.573-80.386,8.778-206.2-1.882-256.865,0-50.352,51.969,1.115,107.616,1.125,107.627,52.435-6.339,116.462-14.569,158.315-21.639,0,0,155.635-74.669,197.445-73.326s63.985,16.675,69.76,20.6,10.395,12.7,13.937,9.241h0C1266.217,399.927,1261.631,390.969,1261.631,390.969Z" transform="translate(-39.467 -25.952)" fill="#ffa452"/>
      <circle id="Ellipse_455" data-name="Ellipse 455" cx="74.896" cy="74.896" r="74.896" transform="translate(860.501 165.829)" fill="#ff8a39"/>
      <path id="Path_79127" data-name="Path 79127" d="M999.141,119.583s-35.111-33.725-98.4-3.234-49.433,73.918-49.433,73.918l7.854,79s-5.082,32.339,9.24,60.982,47.585,36.5,85.929,11.55,54.976-45.275,58.21-64.216c9.24-15.246,27.719-42.965,27.719-42.965s14.322-45.275,2.31-80.386S999.141,119.583,999.141,119.583Z" transform="translate(-43.27 -9.173)" fill="#ffa452"/>
      <path id="Path_79128" data-name="Path 79128" d="M1040.258,234.617s14.322-45.275,2.31-80.386-43.427-34.649-43.427-34.649-35.111-33.725-98.4-3.234-49.433,73.918-49.433,73.918c61.444,39.731,109.953,3.7,109.953,3.7l.981,22.555a14.293,14.293,0,0,0,19.47,12.7l8.654-3.374v49.895c-21.251,5.082-27.719,9.24-35.111,32.8-4.62-15.246-27.257-19.865-48.047-8.316s-34.187,6.93-48.718-9.715c.646,11.457,3.049,26.021,9.911,39.744,14.322,28.643,47.585,36.5,85.929,11.55s54.976-45.275,58.21-64.216C1021.779,262.336,1040.258,234.617,1040.258,234.617Z" transform="translate(-43.27 -9.173)" fill="#a3472b"/>
      <path id="Path_79129" data-name="Path 79129" d="M1025.911,287.343V247.22s26.948-31.637,34.828-3.759C1069.979,276.145,1025.911,287.343,1025.911,287.343Z" transform="translate(-56.642 -18.934)" fill="#ffa452"/>
      <path id="Path_79130" data-name="Path 79130" d="M888.686,277.532l-11.83,42.7a8.163,8.163,0,0,0,12.792,8.689l22.333-16.9Z" transform="translate(-45.288 -22.398)" fill="#ffa452"/>
      <path id="Path_79131" data-name="Path 79131" d="M884.722,331.225a8.815,8.815,0,0,1-8.493-11.167l11.83-42.7a.65.65,0,0,1,1.253.347l-11.83,42.7a7.513,7.513,0,0,0,11.774,8l22.333-16.9a.65.65,0,1,1,.784,1.037l-22.333,16.9A8.8,8.8,0,0,1,884.722,331.225Z" transform="translate(-45.288 -22.398)" fill="#eb711f"/>
      <path id="Path_79132" data-name="Path 79132" d="M964.132,252.439a.647.647,0,0,1-.3-.076,70.187,70.187,0,0,0-10.294-4.157,67.329,67.329,0,0,0-10.456-2.481,46.421,46.421,0,0,0-11.837-.353.65.65,0,0,1-.14-1.292,47.729,47.729,0,0,1,12.187.362,68.669,68.669,0,0,1,10.669,2.534,71.485,71.485,0,0,1,10.48,4.238.65.65,0,0,1-.3,1.225Z" transform="translate(-49.44 -19.886)" fill="#a3472b"/>
      <path id="Path_79133" data-name="Path 79133" d="M856.18,245.854a.65.65,0,0,1-.216-1.263c5.109-1.8,12.667-1.975,12.986-1.982h.014a.65.65,0,0,1,.014,1.3c-.076,0-7.672.183-12.583,1.909A.649.649,0,0,1,856.18,245.854Z" transform="translate(-43.738 -19.792)" fill="#a3472b"/>
      <path id="Path_79134" data-name="Path 79134" d="M926.552,285.039c-5.716.7-7.1-1.594-4.88-8.56,2.094-6.565,7.945-12.2,18.274-13.5a15.354,15.354,0,0,1,17.466,12.725c.612,4.979-2.059,5.462-6.135,5.76C940.723,282.236,926.552,285.039,926.552,285.039Z" transform="translate(-48.641 -21.278)" fill="#fff"/>
      <path id="Path_79135" data-name="Path 79135" d="M936.429,268.122a11.514,11.514,0,0,0-9.938,17.357c.129-.013.249-.02.383-.036,0,0,10.963-2.168,20.786-3.214a11.5,11.5,0,0,0-11.231-14.107Z" transform="translate(-48.963 -21.682)" fill="#292852"/>
      <g id="Group_796" data-name="Group 796" transform="translate(806.75 94.414)" clip-path="url(#clip-path-4)">
        <path id="Path_79136" data-name="Path 79136" d="M870.656,283.381c5.672,1,7.176-1.222,5.32-8.295-1.75-6.665-7.3-12.6-17.546-14.431a15.354,15.354,0,0,0-18.1,11.8c-.87,4.94,1.771,5.562,5.827,6.071C856.65,279.845,870.656,283.381,870.656,283.381Z" transform="translate(-849.27 -115.505)" fill="#fff"/>
        <path id="Path_79137" data-name="Path 79137" d="M862.816,266.017a11.514,11.514,0,0,1,9.02,17.851c-.128-.02-.248-.032-.381-.055,0,0-10.836-2.736-20.59-4.292a11.5,11.5,0,0,1,11.95-13.5Z" transform="translate(-850.071 -115.935)" fill="#292852"/>
      </g>
      <path id="Path_79139" data-name="Path 79139" d="M910.024,342.3a.65.65,0,0,1-.378-1.179,105.736,105.736,0,0,1,12.536-7.462,56.488,56.488,0,0,1,11.022-4.309c4.143-1.057,7.586-1.113,10.234-.168a.65.65,0,1,1-.437,1.224c-2.4-.856-5.584-.789-9.468.2a55.161,55.161,0,0,0-10.755,4.207,104.332,104.332,0,0,0-12.376,7.365A.647.647,0,0,1,910.024,342.3Z" transform="translate(-47.832 -26.323)" fill="#842e23"/>
      <path id="Path_79140" data-name="Path 79140" d="M996.469,141.337a.65.65,0,0,1-.588-.926,71.626,71.626,0,0,1,13.932-19.969.65.65,0,1,1,.925.914,70.327,70.327,0,0,0-13.68,19.607A.65.65,0,0,1,996.469,141.337Z" transform="translate(-54.404 -10.489)" fill="#842e23"/>
      <path id="Path_79141" data-name="Path 79141" d="M1289,379.16a.648.648,0,0,1-.448-.18,118.478,118.478,0,0,0-41.026-25.913,102.925,102.925,0,0,0-27.034-6.015.65.65,0,0,1,.105-1.3,104.222,104.222,0,0,1,27.376,6.09,119.769,119.769,0,0,1,41.476,26.192.65.65,0,0,1-.449,1.12Z" transform="translate(-71.44 -27.634)" fill="#eb711f"/>
      <path id="Path_79142" data-name="Path 79142" d="M1257.889,346.173a.648.648,0,0,1-.243-.047,178.813,178.813,0,0,0-26.43-8.765,59.508,59.508,0,0,0-16.1-1.741.65.65,0,1,1-.063-1.3,60.776,60.776,0,0,1,16.454,1.772,180.052,180.052,0,0,1,26.627,8.827.65.65,0,0,1-.244,1.253Z" transform="translate(-71.025 -26.761)" fill="#eb711f"/>
      <path id="Path_79143" data-name="Path 79143" d="M1293.6,394.384a.648.648,0,0,1-.456-.186,120.228,120.228,0,0,0-34.742-23.572c-12.739-5.717-25.837-8.941-37.878-9.323a.65.65,0,0,1,.02-1.3h.021c12.209.388,25.477,3.651,38.369,9.437a121.543,121.543,0,0,1,35.121,23.831.65.65,0,0,1-.456,1.114Z" transform="translate(-71.44 -28.717)" fill="#eb711f"/>
      <path id="Path_79144" data-name="Path 79144" d="M1203.654,378.066c-35.057-13.28-135.291,11.585-135.291,11.585l-91.686,46.62,6.092,16.39c4.235-.673,8.316-1.339,12.2-1.995,58.464,8.315,150.222,12.5,219.814,14.575C1245.521,465.02,1238.711,391.346,1203.654,378.066Z" transform="translate(-52.899 -29.744)" fill="#ffa452"/>
      <path id="Path_79145" data-name="Path 79145" d="M816.325,462.984a.65.65,0,0,1-.6-.908l6.41-14.815a32.722,32.722,0,0,1,10.179-13.006l6.146-4.683-22.487,1.743a6.519,6.519,0,0,1-3.147-12.458l32.008-14.195a58.584,58.584,0,0,1,23.751-5.031h20.437c1.386-.609,12.134-4.479,72.935-11.315,6.03-.678,12.131-1.38,18.59-2.123,31.185-3.589,66.53-7.657,102.533-9.859,41.485-2.538,76.792-2.153,107.938,1.175a.65.65,0,1,1-.138,1.293,538.137,538.137,0,0,0-57.163-2.818c-15.8,0-32.6.55-50.558,1.649-35.968,2.2-71.3,6.266-102.464,9.853-6.46.743-12.561,1.446-18.593,2.124-33.421,3.757-51.332,6.6-60.473,8.32-9.933,1.871-12.017,2.857-12.153,2.925a.589.589,0,0,1-.309.078H868.588a57.285,57.285,0,0,0-23.224,4.919l-32.008,14.195a5.219,5.219,0,0,0,2.519,9.973l24.684-1.914A.65.65,0,0,1,841,429.27l-7.9,6.018a31.42,31.42,0,0,0-9.773,12.488l-6.41,14.815A.65.65,0,0,1,816.325,462.984Z" transform="translate(-40.197 -29.833)" fill="#eb711f"/>
      <path id="Line_3026" data-name="Line 3026" d="M0,13.087A.649.649,0,0,1-.539,12.8a.65.65,0,0,1,.175-.9L18.057-.539a.65.65,0,0,1,.9.175.65.65,0,0,1-.175.9L.364,12.975A.647.647,0,0,1,0,13.087Z" transform="translate(800.413 386.484)" fill="#eb711f"/>
      <path id="Path_79146" data-name="Path 79146" d="M815.181,467.851l-20.2,45.073a4.974,4.974,0,0,0,3.729,6.942h0a9.477,9.477,0,0,0,9.572-4.314l19.4-30.925-16.333,34.929a4.347,4.347,0,0,0,3.938,6.188h0a17.388,17.388,0,0,0,15.093-8.754l24.328-42.527.624,18.963a10.3,10.3,0,0,0,14.946,8.85l3.834-1.941h0a12.841,12.841,0,0,0,20.725,1.534c5.857-6.967,11.906-16.65,13.462-28.1,13.629-3.927,28.412-25.871,28.412-25.871Z" transform="translate(-39.053 -35.35)" fill="#ffa452"/>
      <path id="Path_79147" data-name="Path 79147" d="M901.764,492.725a.65.65,0,0,1-.6-.9l6.058-14.866a.65.65,0,0,1,.409-.375l8.748-2.716a.65.65,0,1,1,.385,1.242l-8.455,2.625-5.942,14.581A.65.65,0,0,1,901.764,492.725Z" transform="translate(-47.321 -36.074)" fill="#eb711f"/>
      <path id="Path_79148" data-name="Path 79148" d="M880.489,502.409a.65.65,0,0,1-.587-.37c-1.464-3.07-2.193-9.981-2.167-20.541.02-7.813.465-14.837.47-14.907a.65.65,0,0,1,1.3.083c-.018.278-1.745,27.85,1.573,34.8a.65.65,0,0,1-.586.93Z" transform="translate(-45.427 -36.774)" fill="#eb711f"/>
      <path id="Path_79149" data-name="Path 79149" d="M859.661,476.2h0a.65.65,0,0,1-.65-.65c0-.381.018-9.383,1.489-13.556a.65.65,0,1,1,1.226.432c-1.4,3.966-1.415,13.033-1.415,13.124A.65.65,0,0,1,859.661,476.2Z" transform="translate(-44.003 -36.438)" fill="#eb711f"/>
      <path id="Path_79150" data-name="Path 79150" d="M830.411,485.879A.65.65,0,0,1,829.8,485c.417-1.089,10.248-26.708,12.325-29.564a.65.65,0,1,1,1.051.765c-1.582,2.175-8.648,20.094-12.163,29.265A.65.65,0,0,1,830.411,485.879Z" transform="translate(-41.779 -35.952)" fill="#eb711f"/>
      <path id="Path_79151" data-name="Path 79151" d="M932.332,465.2s11.142-9.46,14.857-17.3c22.068,4.6,44.4,8.374,44.4,8.374Z" transform="translate(-49.528 -35.35)" fill="#ff8a39"/>
      <path id="Path_79152" data-name="Path 79152" d="M769.421,406.12l-1.464-.328a72.216,72.216,0,0,1,4.966-14.706,63.133,63.133,0,0,1,7.188-11.878,50.128,50.128,0,0,1,18.047-14.946c8.039-3.769,16.02-4.2,21.9-1.189l-.684,1.335c-5.462-2.8-12.961-2.358-20.577,1.212a48.627,48.627,0,0,0-17.5,14.5,61.628,61.628,0,0,0-7.016,11.6A70.714,70.714,0,0,0,769.421,406.12Z" transform="translate(-37.087 -28.807)" fill="#0064dc"/>
      <path id="Line_3027" data-name="Line 3027" d="M15.155,39.953-.6.24.6-.24,16.363,39.473Z" transform="translate(1055.239 281.672)" fill="#0064dc"/>
    </g>
  </g>
</svg>
