<?xml version="1.0" encoding="UTF-8"?>
<svg id="Layer_1" data-name="Layer 1" xmlns="http://www.w3.org/2000/svg" viewBox="0 0 1100 700">
  <defs>
    <style>
      .cls-1 {
        fill: #005799;
      }

      .cls-1, .cls-2, .cls-3 {
        stroke-width: 0px;
      }

      .cls-2 {
        fill: #fff;
      }

      .cls-3 {
        fill: #acd1e8;
      }
    </style>
  </defs>
  <g>
    <g>
      <rect class="cls-2" x="261.35" y="383.19" width="96.44" height="33.98"/>
      <path class="cls-2" d="m227.38,352.07v31.12h33.98v-31.12h53.56l-22.41-33.98h-31.15c-18.77,0-33.98,15.21-33.98,33.98h0Z"/>
      <polygon class="cls-2" points="357.8 284.15 270.12 284.15 292.5 318.1 357.8 318.1 357.8 284.15"/>
    </g>
    <g>
      <path class="cls-2" d="m414.24,336.2v21.22h52.59v16.34h-72.62v-89.62h69.85v16.47h-49.82v19.64h41.78v15.95h-41.78Z"/>
      <path class="cls-2" d="m501.89,317.09v23.72c0,12.26,9.75,17.4,22.93,17.4,10.02,0,18.98-1.84,25.7-6.06l6.72,14.89c-9.49,5.8-18.32,8.04-33.74,8.04-23.98,0-41.65-11.07-41.65-33.21v-25.96c0-20.56,19.11-33.08,41.52-33.08,15.15,0,24.91,2.5,34.79,8.96l-7.38,14.5c-6.98-4.09-15.02-6.46-26.09-6.46-12.12,0-22.8,6.19-22.8,17.26Z"/>
      <path class="cls-2" d="m659.12,314.72v27.41c0,21.74-17.93,32.95-42.96,32.95h-1.98c-25.57,0-42.96-10.94-42.96-32.95v-27.41c0-20.03,18.05-31.89,42.83-31.89h2.11c23.98,0,42.96,12.12,42.96,31.89Zm-20.17,2.37c0-11.73-9.75-17.79-22.8-17.79h-2.11c-13.31,0-22.67,6.59-22.67,17.66v22.93c0,12.91,8.83,18.85,22.8,18.85h1.98c13.97,0,22.8-5.93,22.8-18.85v-22.8Z"/>
      <path class="cls-2" d="m747.16,284.15h18.58v89.62h-18.98l-49.95-63.39v63.39h-18.58v-89.62h18.98l49.95,63v-63Z"/>
      <path class="cls-2" d="m872.62,314.72v27.41c0,21.74-17.92,32.95-42.96,32.95h-1.98c-25.57,0-42.96-10.94-42.96-32.95v-27.41c0-20.03,18.06-31.89,42.83-31.89h2.11c23.99,0,42.96,12.12,42.96,31.89Zm-20.16,2.37c0-11.73-9.75-17.79-22.8-17.79h-2.11c-13.31,0-22.67,6.59-22.67,17.66v22.93c0,12.91,8.83,18.85,22.8,18.85h1.98c13.97,0,22.8-5.93,22.8-18.85v-22.8Z"/>
      <g>
        <path class="cls-2" d="m420.87,407.65c.04,6.21-5.99,9.43-13.11,9.43-5.12,0-10.97-1.81-14.33-4.9l2.72-4.53c3.26,2.22,7.08,3.81,11.61,3.81s5.94-1.45,5.94-3.54-1.18-3.08-7.53-4.04c-8.3-1.32-11.97-3.72-12.02-8.98-.09-6.21,6.3-9.43,12.92-9.43,4.99,0,8.89,1.04,13.24,3.81l-2.58,4.99c-3.95-2.27-6.76-3.08-10.66-3.08s-5.8,1.54-5.8,3.63,1.41,2.99,7.26,3.72c7.44.95,12.29,3.13,12.33,9.12Z"/>
        <path class="cls-2" d="m438.6,403.79v7.3h18.09v5.62h-24.99v-30.84h24.04v5.67h-17.14v6.76h14.38v5.49h-14.38Z"/>
        <path class="cls-2" d="m488.16,403.84l7.85,12.88h-7.53l-6.8-11.38h-7.85v11.38h-6.89v-30.84h16.32c7.08,0,11.75,2.9,11.75,8.93v1.04c0,4.26-2.77,6.89-6.85,7.98Zm-14.33-3.76h9.07c2.63-.05,5.17-1.18,5.17-3.67v-1.13c0-2.4-2.13-3.72-5.26-3.72h-8.98v8.53Z"/>
        <path class="cls-2" d="m510.46,385.88l9.03,23.17,9.21-23.17h7.53l-13.15,30.84h-7.21l-12.88-30.84h7.48Z"/>
        <path class="cls-2" d="m545.97,385.88h6.89v30.84h-6.89v-30.84Z"/>
        <path class="cls-2" d="m571.4,397.22v8.16c0,4.22,3.36,5.99,7.89,5.99,3.45,0,6.53-.63,8.84-2.09l2.31,5.12c-3.26,1.99-6.3,2.77-11.61,2.77-8.25,0-14.33-3.81-14.33-11.43v-8.93c0-7.07,6.57-11.38,14.28-11.38,5.22,0,8.57.86,11.97,3.09l-2.54,4.99c-2.4-1.4-5.17-2.22-8.98-2.22-4.17,0-7.85,2.13-7.85,5.94Z"/>
        <path class="cls-2" d="m607.23,403.79v7.3h18.09v5.62h-24.99v-30.84h24.04v5.67h-17.14v6.76h14.38v5.49h-14.38Z"/>
        <path class="cls-2" d="m668.03,385.65l12.47,31.07h-7.66l-2.63-6.71h-12.02l-2.63,6.71h-7.66l12.47-31.07h7.66Zm.86,19.09l-4.67-12.29-4.72,12.29h9.39Z"/>
        <path class="cls-2" d="m705.44,399.21h13.06v14.56c-3.76,2.04-8.16,3.4-14.01,3.4-8.48,0-15.19-3.76-15.19-11.34v-9.07c0-7.35,7.07-11.34,15.6-11.34,4.9,0,9.11,1.27,12.56,3.13l-2.4,4.99c-2.95-1.54-5.8-2.45-9.84-2.45-5.04,0-9.03,2.09-9.03,6.44v7.53c0,4.72,3.76,6.49,8.3,6.49,2.9,0,4.67-.36,7.07-1.22v-5.85h-6.12v-5.26Z"/>
        <path class="cls-2" d="m736.5,403.79v7.3h18.09v5.62h-24.99v-30.84h24.03v5.67h-17.14v6.76h14.38v5.49h-14.38Z"/>
        <path class="cls-2" d="m788.56,385.88h6.39v30.84h-6.53l-17.19-21.81v21.81h-6.39v-30.84h6.53l17.19,21.68v-21.68Z"/>
        <path class="cls-2" d="m812.91,397.22v8.16c0,4.22,3.36,5.99,7.89,5.99,3.45,0,6.53-.63,8.84-2.09l2.31,5.12c-3.26,1.99-6.3,2.77-11.61,2.77-8.25,0-14.33-3.81-14.33-11.43v-8.93c0-7.07,6.57-11.38,14.28-11.38,5.22,0,8.57.86,11.97,3.09l-2.54,4.99c-2.4-1.4-5.17-2.22-8.98-2.22-4.17,0-7.85,2.13-7.85,5.94Z"/>
        <path class="cls-2" d="m852.76,405.34l-12.7-19.46h8.39l7.85,12.92,7.89-12.92h8.43l-12.88,19.5v11.34h-6.98v-11.38Z"/>
      </g>
    </g>
  </g>
  <rect class="cls-1" x="0" y="0" width="1100" height="700"/>
  <g>
    <g>
      <rect class="cls-3" x="375.02" y="370.12" width="58.47" height="20.6"/>
      <path class="cls-3" d="m354.42,351.26v18.87h20.6v-18.87h32.47l-13.58-20.6h-18.88c-11.38,0-20.6,9.22-20.6,20.6h0Z"/>
      <polygon class="cls-3" points="433.49 310.08 380.34 310.08 393.9 330.66 433.49 330.66 433.49 310.08"/>
    </g>
    <g>
      <path class="cls-2" d="m467.7,341.64v12.86h31.88v9.91h-44.02v-54.33h42.34v9.99h-30.2v11.9h25.33v9.67h-25.33Z"/>
      <path class="cls-2" d="m520.83,330.05v14.38c0,7.43,5.91,10.55,13.9,10.55,6.07,0,11.5-1.12,15.58-3.67l4.07,9.03c-5.75,3.52-11.1,4.87-20.45,4.87-14.54,0-25.25-6.71-25.25-20.13v-15.74c0-12.46,11.58-20.05,25.17-20.05,9.19,0,15.1,1.52,21.09,5.43l-4.47,8.79c-4.23-2.48-9.11-3.91-15.82-3.91-7.35,0-13.82,3.75-13.82,10.47Z"/>
      <path class="cls-2" d="m616.15,328.61v16.62c0,13.18-10.87,19.97-26.04,19.97h-1.2c-15.5,0-26.04-6.63-26.04-19.97v-16.62c0-12.14,10.94-19.33,25.96-19.33h1.28c14.54,0,26.04,7.35,26.04,19.33Zm-12.22,1.44c0-7.11-5.91-10.79-13.82-10.79h-1.28c-8.07,0-13.74,3.99-13.74,10.71v13.9c0,7.83,5.35,11.42,13.82,11.42h1.2c8.47,0,13.82-3.6,13.82-11.42v-13.82Z"/>
      <path class="cls-2" d="m669.52,310.08h11.26v54.33h-11.5l-30.28-38.43v38.43h-11.26v-54.33h11.5l30.28,38.19v-38.19Z"/>
      <path class="cls-2" d="m745.58,328.61v16.62c0,13.18-10.86,19.97-26.04,19.97h-1.2c-15.5,0-26.04-6.63-26.04-19.97v-16.62c0-12.14,10.95-19.33,25.97-19.33h1.28c14.54,0,26.04,7.35,26.04,19.33Zm-12.22,1.44c0-7.11-5.91-10.79-13.82-10.79h-1.28c-8.07,0-13.74,3.99-13.74,10.71v13.9c0,7.83,5.35,11.42,13.82,11.42h1.2c8.47,0,13.82-3.6,13.82-11.42v-13.82Z"/>
      <g>
        <path class="cls-2" d="m471.72,384.95c.03,3.77-3.63,5.72-7.95,5.72-3.11,0-6.65-1.1-8.69-2.97l1.65-2.75c1.98,1.35,4.29,2.31,7.04,2.31s3.6-.88,3.6-2.14-.72-1.87-4.56-2.45c-5.03-.8-7.26-2.25-7.28-5.44-.06-3.77,3.82-5.72,7.83-5.72,3.03,0,5.39.63,8.03,2.31l-1.57,3.02c-2.39-1.38-4.1-1.87-6.46-1.87s-3.52.93-3.52,2.2.85,1.81,4.4,2.25c4.51.58,7.45,1.9,7.48,5.53Z"/>
        <path class="cls-2" d="m482.47,382.61v4.43h10.97v3.41h-15.15v-18.69h14.57v3.44h-10.39v4.1h8.71v3.33h-8.71Z"/>
        <path class="cls-2" d="m512.51,382.64l4.76,7.81h-4.56l-4.12-6.9h-4.76v6.9h-4.18v-18.69h9.9c4.29,0,7.12,1.76,7.12,5.42v.63c0,2.58-1.68,4.18-4.15,4.84Zm-8.69-2.28h5.5c1.6-.03,3.13-.72,3.13-2.23v-.69c0-1.46-1.29-2.25-3.19-2.25h-5.44v5.17Z"/>
        <path class="cls-2" d="m526.03,371.75l5.47,14.05,5.58-14.05h4.56l-7.97,18.69h-4.37l-7.81-18.69h4.53Z"/>
        <path class="cls-2" d="m547.55,371.75h4.18v18.69h-4.18v-18.69Z"/>
        <path class="cls-2" d="m562.98,378.62v4.95c0,2.56,2.04,3.63,4.78,3.63,2.09,0,3.96-.38,5.36-1.26l1.4,3.11c-1.98,1.21-3.82,1.68-7.04,1.68-5,0-8.69-2.31-8.69-6.93v-5.42c0-4.29,3.99-6.9,8.66-6.9,3.16,0,5.2.52,7.26,1.87l-1.54,3.02c-1.46-.85-3.13-1.35-5.44-1.35-2.53,0-4.76,1.29-4.76,3.6Z"/>
        <path class="cls-2" d="m584.69,382.61v4.43h10.97v3.41h-15.15v-18.69h14.57v3.44h-10.39v4.1h8.71v3.33h-8.71Z"/>
        <path class="cls-2" d="m621.55,371.61l7.56,18.83h-4.65l-1.59-4.07h-7.29l-1.59,4.07h-4.65l7.56-18.83h4.65Zm.52,11.57l-2.83-7.45-2.86,7.45h5.69Z"/>
        <path class="cls-2" d="m644.23,379.83h7.92v8.82c-2.28,1.24-4.95,2.06-8.49,2.06-5.14,0-9.21-2.28-9.21-6.87v-5.5c0-4.45,4.29-6.87,9.46-6.87,2.97,0,5.52.77,7.61,1.9l-1.46,3.02c-1.79-.94-3.52-1.48-5.96-1.48-3.05,0-5.47,1.26-5.47,3.9v4.56c0,2.86,2.28,3.93,5.03,3.93,1.76,0,2.83-.22,4.29-.74v-3.55h-3.71v-3.19Z"/>
        <path class="cls-2" d="m663.06,382.61v4.43h10.97v3.41h-15.15v-18.69h14.57v3.44h-10.39v4.1h8.71v3.33h-8.71Z"/>
        <path class="cls-2" d="m694.62,371.75h3.88v18.69h-3.96l-10.42-13.22v13.22h-3.88v-18.69h3.96l10.42,13.14v-13.14Z"/>
        <path class="cls-2" d="m709.38,378.62v4.95c0,2.56,2.04,3.63,4.78,3.63,2.09,0,3.96-.38,5.36-1.26l1.4,3.11c-1.98,1.21-3.82,1.68-7.04,1.68-5,0-8.69-2.31-8.69-6.93v-5.42c0-4.29,3.99-6.9,8.66-6.9,3.16,0,5.2.52,7.26,1.87l-1.54,3.02c-1.46-.85-3.13-1.35-5.44-1.35-2.53,0-4.76,1.29-4.76,3.6Z"/>
        <path class="cls-2" d="m733.54,383.54l-7.7-11.79h5.09l4.76,7.83,4.79-7.83h5.11l-7.81,11.82v6.87h-4.23v-6.9Z"/>
      </g>
    </g>
  </g>
</svg>